SplineFontDB: 3.2
FontName: Vazir-Bold
FullName: Vazir Bold
FamilyName: Vazir
Weight: Bold
Copyright: Copyright (c) 2003 by Bitstream, Inc. All Rights Reserved.\nDejaVu changes are in public domain\nChanges by Saber Rastikerdar are in public domain.
Version: 26.0.1
ItalicAngle: 0
UnderlinePosition: -500
UnderlineWidth: 100
Ascent: 1638
Descent: 410
InvalidEm: 0
LayerCount: 2
Layer: 0 0 "Back" 1
Layer: 1 0 "Fore" 0
PreferredKerning: 4
XUID: [1021 502 1027637223 14131625]
UniqueID: 4207614
UseUniqueID: 1
FSType: 0
OS2Version: 1
OS2_WeightWidthSlopeOnly: 0
OS2_UseTypoMetrics: 1
CreationTime: 1431850356
ModificationTime: 1589449037
PfmFamily: 33
TTFWeight: 700
TTFWidth: 5
LineGap: 0
VLineGap: 0
Panose: 2 11 6 3 3 8 4 2 2 4
OS2TypoAscent: 2100
OS2TypoAOffset: 0
OS2TypoDescent: -1100
OS2TypoDOffset: 0
OS2TypoLinegap: 0
OS2WinAscent: 2100
OS2WinAOffset: 0
OS2WinDescent: 1100
OS2WinDOffset: 0
HheadAscent: 2100
HheadAOffset: 0
HheadDescent: -1100
HheadDOffset: 0
OS2SubXSize: 1331
OS2SubYSize: 1433
OS2SubXOff: 0
OS2SubYOff: 286
OS2SupXSize: 1331
OS2SupYSize: 1433
OS2SupXOff: 0
OS2SupYOff: 983
OS2StrikeYSize: 102
OS2StrikeYPos: 530
OS2CapHeight: 1638
OS2XHeight: 1082
OS2Vendor: '    '
OS2CodePages: 00000041.20080000
OS2UnicodeRanges: 80002003.80000000.00000008.00000000
Lookup: 1 9 0 "Single Substitution 0" { "Single Substitution 0 subtable"  } []
Lookup: 1 9 0 "'fina' Terminal Forms in Arabic lookup 1" { "'fina' Terminal Forms in Arabic lookup 1 subtable"  } ['fina' ('DFLT' <'dflt' > 'arab' <'FAR ' 'KUR ' 'URD ' 'dflt' > ) ]
Lookup: 1 9 0 "'medi' Medial Forms in Arabic lookup 2" { "'medi' Medial Forms in Arabic lookup 2 subtable"  } ['medi' ('DFLT' <'dflt' > 'arab' <'FAR ' 'KUR ' 'URD ' 'dflt' > ) ]
Lookup: 1 9 0 "'init' Initial Forms in Arabic lookup 3" { "'init' Initial Forms in Arabic lookup 3 subtable"  } ['init' ('DFLT' <'dflt' > 'arab' <'FAR ' 'KUR ' 'URD ' 'dflt' > ) ]

StartChar: exclam
Encoding: 33 33 1
GlifName: exclam
Width: 632
VWidth: 2762
GlyphClass: 2
Flags: HW
LayerCount: 2
Fore
SplineSet
143 174 m 0
 143 268.897460938 220.413085938 348 316 348 c 0
 411.584960938 348 489 268.893554688 489 174 c 0
 489 78.8173828125 411.184570312 1 316 1 c 0
 220.569335938 1 143 75.9228515625 143 174 c 0
179.879882812 1356 m 5
 456.077148438 1356 l 5
 438.951171875 475 l 1
 198.08984375 475 l 1
 179.879882812 1356 l 5
EndSplineSet
EndChar

StartChar: period
Encoding: 46 46 2
GlifName: period
Width: 632
VWidth: 2762
GlyphClass: 2
Flags: HW
LayerCount: 2
Fore
SplineSet
143 174 m 0
 143 268.897460938 220.413085938 348 316 348 c 0
 411.584960938 348 489 268.893554688 489 174 c 0
 489 78.8173828125 411.184570312 1 316 1 c 0
 220.569335938 1 143 75.9228515625 143 174 c 0
EndSplineSet
EndChar

StartChar: colon
Encoding: 58 58 3
GlifName: colon
Width: 632
VWidth: 2762
GlyphClass: 2
Flags: HW
LayerCount: 2
Fore
SplineSet
143 794 m 0
 143 888.897460938 220.413085938 968 316 968 c 0
 411.584960938 968 489 888.893554688 489 794 c 0
 489 698.817382812 411.184570312 621 316 621 c 0
 220.569335938 621 143 695.922851562 143 794 c 0
143 174 m 0
 143 268.897460938 220.413085938 348 316 348 c 0
 411.584960938 348 489 268.893554688 489 174 c 0
 489 78.8173828125 411.184570312 1 316 1 c 0
 220.569335938 1 143 75.9228515625 143 174 c 0
EndSplineSet
EndChar

StartChar: uni060C
Encoding: 1548 1548 5
GlifName: afii57388
Width: 669
VWidth: 2770
GlyphClass: 2
Flags: HW
LayerCount: 2
Fore
SplineSet
529.991210938 583.478515625 m 2
 443.06640625 504.005859375 393.975585938 441.438476562 383.189453125 354.194335938 c 1
 478.735351562 340.37890625 516 269.266601562 516 183 c 0
 516 78.7138671875 451.302734375 1 341 1 c 4
 204.7109375 1 143 95.30859375 143 215 c 0
 143 423.127929688 252.057617188 585.6328125 404.517578125 703.6328125 c 2
 429.3671875 722.865234375 l 1
 453.936523438 703.276367188 l 1
 527.936523438 644.276367188 l 1
 564.5546875 615.080078125 l 1
 529.991210938 583.478515625 l 2
EndSplineSet
EndChar

StartChar: uni0615
Encoding: 1557 1557 6
GlifName: uni0615
Width: 0
VWidth: 2712
GlyphClass: 4
Flags: HW
AnchorPoint: "Anchor-10" 438.449 1190.96 mark 0
AnchorPoint: "Anchor-9" 438.449 1190.96 mark 0
AnchorPoint: "Anchor-1" 436.616 1958.36 basemark 0
AnchorPoint: "Anchor-1" 438.449 1190.96 mark 0
LayerCount: 2
Fore
SplineSet
400.474662451 1372.5 m 2
 582.75022145 1372.5 666 1411.21288572 666 1481 c 0
 666 1531.52828551 630.000179385 1569.5 576 1569.5 c 0
 505.807846743 1569.5 426.332802528 1502.49952015 340.382024957 1372.09396867 c 1
 400.474662451 1372.5 l 2
231.814221009 1371.5 m 1
 243.697174967 1390.6981373 254.139372545 1406.99620743 265 1424.17089236 c 1
 265 1897 l 1
 265 1904.5 l 1
 272.5 1904.5 l 1
 357 1904.5 l 1
 364.5 1904.5 l 1
 364.5 1897 l 1
 364.5 1562.58341118 l 1
 428.274966206 1635.67804946 496.236695459 1675 571.5 1675 c 0
 688.742007086 1675 770 1594.69989378 770 1484.97330995 c 0
 768.953499248 1337.93995434 642.52150262 1266.5 402.5 1266.5 c 2
 125 1266.5 l 1
 117.5 1266.5 l 1
 117.5 1274 l 1
 117.5 1364 l 1
 117.5 1371.5 l 1
 125 1371.5 l 1
 231.814221009 1371.5 l 1
EndSplineSet
EndChar

StartChar: uni061B
Encoding: 1563 1563 7
GlifName: uni061B_
Width: 669
VWidth: 2770
GlyphClass: 2
Flags: HW
LayerCount: 2
Fore
SplineSet
171 174 m 0
 171 268.897460938 248.413085938 348 344 348 c 0
 439.584960938 348 517 268.893554688 517 174 c 0
 517 78.8173828125 439.184570312 1 344 1 c 0
 248.569335938 1 171 75.9228515625 171 174 c 0
529.921875 1054.41601562 m 6
 442.788085938 975.125 393.954101562 912.887695312 383.166992188 825.166015625 c 5
 478.72265625 811.162109375 516 739.951171875 516 654 c 4
 516 549.713867188 451.302734375 472 341 472 c 4
 204.7109375 472 143 566.30859375 143 686 c 4
 143 894.127929688 252.057617188 1056.6328125 404.517578125 1174.6328125 c 6
 429.3671875 1193.86523438 l 5
 453.936523438 1174.27636719 l 5
 527.936523438 1115.27636719 l 5
 564.641601562 1086.01074219 l 5
 529.921875 1054.41601562 l 6
EndSplineSet
EndChar

StartChar: uni061F
Encoding: 1567 1567 8
GlifName: uni061F_
Width: 924
VWidth: 2762
GlyphClass: 2
Flags: HW
LayerCount: 2
Fore
SplineSet
352 174 m 0
 352 268.897460938 429.413085938 348 525 348 c 0
 620.584960938 348 698 268.893554688 698 174 c 0
 698 78.8173828125 620.184570312 1 525 1 c 0
 429.569335938 1 352 75.9228515625 352 174 c 0
59 971 m 4
 59 1208.86914062 265.135742188 1366 469 1366 c 4
 742.455078125 1366 864.946289062 1207.20019531 866 931.15234375 c 6
 866.153320312 921 l 5
 826 921 l 5
 670 921 l 5
 630.291015625 921 l 5
 630.000976562 930.708007812 l 6
 629.088867188 1055.734375 593.6015625 1106 480 1106 c 4
 376.495117188 1106 320 1056.25976562 320 962 c 4
 320 825.518554688 656.311786986 820.079489995 658 502.16015625 c 2
 658.16015625 472 l 1
 618 472 l 1
 433 472 l 1
 393.1953125 472 l 1
 393 501.8046875 l 2
 391.353010689 753.135256357 59 639.580078125 59 971 c 4
EndSplineSet
EndChar

StartChar: uni0621
Encoding: 1569 1569 9
GlifName: uni0621
Width: 830
VWidth: 2950
GlyphClass: 2
Flags: HW
AnchorPoint: "Anchor-7" 445.326 -65.6465 basechar 0
AnchorPoint: "Anchor-10" 401.848 1039.06 basechar 0
LayerCount: 2
Fore
SplineSet
458.462890625 345.05078125 m 1
 537.838867188 363.154296875 618.6484375 381.038085938 697.07421875 398.991210938 c 2
 738.995117188 408.587890625 l 1
 745.53515625 366.08203125 l 1
 771.53515625 197.08203125 l 1
 777.795898438 156.3828125 l 1
 736.932617188 151.305664062 l 2
 576.181640625 131.330078125 368.865234375 52.6318359375 117.202148438 -85.08984375 c 2
 58 -117.487304688 l 1
 58 -50 l 1
 58 123 l 1
 58 143.995117188 l 1
 75.2802734375 155.920898438 l 2
 121.450195312 187.78515625 165.264648438 213.583984375 207.0703125 234.104492188 c 1
 124.811523438 293.86328125 78 373.811523438 78 474 c 0
 78 699.708984375 234.045898438 848 443 848 c 0
 543.196289062 848 628.719726562 813.725585938 696.045898438 747.520507812 c 2
 715.209960938 728.67578125 l 1
 705.00390625 703.811523438 l 1
 650.00390625 569.811523438 l 1
 631.044921875 523.620117188 l 1
 590.103515625 552.202148438 l 2
 541.599609375 586.0625 499.001953125 601 456 601 c 0
 367.64453125 601 320 557.202148438 320 475 c 0
 320 441.3671875 355.041992188 394.458007812 458.462890625 345.05078125 c 1
EndSplineSet
Position2: "Single Positioning lookup 2 subtable" dx=0 dy=0 dh=-178 dv=0
Position2: "Single Positioning lookup 1 subtable" dx=0 dy=0 dh=-120 dv=0
EndChar

StartChar: uni0627
Encoding: 1575 1575 15
GlifName: uni0627
Width: 465
VWidth: 2950
GlyphClass: 2
Flags: HW
AnchorPoint: "Anchor-10" 224.871 1495.46 basechar 0
AnchorPoint: "Anchor-7" 228.587 -198.365 basechar 0
LayerCount: 2
Fore
SplineSet
148 1366 m 5
 317 1366 l 5
 357 1366 l 5
 357 1326 l 5
 357 41 l 1
 357 1 l 1
 317 1 l 1
 148 1 l 1
 108 1 l 1
 108 41 l 1
 108 1326 l 5
 108 1366 l 5
 148 1366 l 5
EndSplineSet
Position2: "Single Positioning lookup 2 subtable" dx=0 dy=0 dh=-143 dv=0
Position2: "Single Positioning lookup 1 subtable" dx=0 dy=0 dh=-127 dv=0
Position2: "Single Positioning lookup 0 subtable" dx=0 dy=0 dh=130 dv=0
Substitution2: "'fina' Terminal Forms in Arabic lookup 1 subtable" uniFE8E
EndChar

StartChar: uni062D
Encoding: 1581 1581 21
GlifName: uni062D_
Width: 1347
VWidth: 2950
GlyphClass: 2
Flags: HW
AnchorPoint: "Anchor-7" 690.833 -790.619 basechar 0
AnchorPoint: "Anchor-10" 601.478 1216.07 basechar 0
LayerCount: 2
Fore
SplineSet
709.375 598.170898438 m 5
 585.901367188 647.567382812 506.001953125 676 477 676 c 4
 418.35546875 676 351.596679688 634.939453125 307.715820312 577.625976562 c 6
 280.670898438 542.567382812 l 5
 260.615234375 516.568359375 l 5
 231.206054688 531.17578125 l 5
 80.2060546875 606.17578125 l 5
 42.078125 625.11328125 l 5
 63.3525390625 661.989257812 l 5
 78.6201171875 688.452148438 l 5
 168.51171875 835.061523438 310.080078125 934 478 934 c 4
 574.026367188 934 679.11328125 891.638671875 798.469726562 833.983398438 c 4
 1004.41210938 733.5 1124.06152344 693.477539062 1230.08398438 687.9453125 c 6
 1271.0078125 685.810546875 l 5
 1267.88378906 644.950195312 l 5
 1254.88378906 474.950195312 l 5
 1252.27832031 440.877929688 l 5
 1218.21679688 438.129882812 l 6
 685.506835938 395.153320312 305 166.15625 305 -95 c 4
 305 -313.041992188 450.592773438 -426 798 -426 c 4
 955.787139281 -426 1085.06347656 -384.377929688 1220 -324 c 5
 1230.23730469 -373.719726562 l 5
 1265.23730469 -543.719726562 l 5
 1271.55078125 -574.38671875 l 5
 1123.92480469 -640.895507812 981.938133834 -677 784 -677 c 4
 369.944335938 -677 59 -501.993164062 59 -111 c 4
 59 207.313476562 293.124023438 472.37109375 709.375 598.170898438 c 5
EndSplineSet
Substitution2: "'fina' Terminal Forms in Arabic lookup 1 subtable" uniFEA2
Substitution2: "'medi' Medial Forms in Arabic lookup 2 subtable" uniFEA4
Substitution2: "'init' Initial Forms in Arabic lookup 3 subtable" uniFEA3
EndChar

StartChar: uni062F
Encoding: 1583 1583 23
GlifName: uni062F_
Width: 963
VWidth: 2950
GlyphClass: 2
Flags: HW
AnchorPoint: "Anchor-10" 371.137 1249.03 basechar 0
AnchorPoint: "Anchor-7" 432.24 -201.316 basechar 0
LayerCount: 2
Fore
SplineSet
105.934570312 286.205078125 m 2
 188.284179688 269.5390625 257.809570312 261 317 261 c 0
 566.600585938 261 649 320.940429688 649 404 c 0
 649 502.838867188 526.966796875 648.974609375 253.677734375 821.157226562 c 2
 219.05859375 842.967773438 l 1
 241.6484375 877.083984375 l 1
 339.6484375 1025.08398438 l 1
 360.734375 1056.92675781 l 1
 393.518554688 1037.33691406 l 2
 724.256835938 839.700195312 905 632.560546875 905 407 c 0
 905 134.591796875 695.203125 2 330 2 c 0
 243.140625 2 162.362304688 11.2998046875 89.619140625 26.8876953125 c 2
 58 33.6630859375 l 1
 58 66 l 1
 58 247 l 1
 58 295.90625 l 1
 105.934570312 286.205078125 l 2
EndSplineSet
Position2: "Single Positioning lookup 2 subtable" dx=0 dy=0 dh=-178 dv=0
Position2: "Single Positioning lookup 1 subtable" dx=0 dy=0 dh=-173 dv=0
Substitution2: "'fina' Terminal Forms in Arabic lookup 1 subtable" uniFEAA
EndChar

StartChar: uni0631
Encoding: 1585 1585 25
GlifName: uni0631
Width: 780
VWidth: 2142
GlyphClass: 2
Flags: HW
AnchorPoint: "Anchor-10" 493.256 888.2 basechar 0
AnchorPoint: "Anchor-7" 322.969 -599.998 basechar 0
LayerCount: 2
Fore
SplineSet
637.100585938 581.951171875 m 2
 693.001953125 443.233398438 722 295.297851562 722 175 c 0
 722 -207.5546875 491.612304688 -444.798828125 57.4677734375 -527.296875 c 2
 24.7998046875 -533.50390625 l 1
 12.728515625 -502.521484375 l 1
 -47.271484375 -348.521484375 l 1
 -64.74609375 -303.669921875 l 1
 -17.453125 -294.700195312 l 2
 319.6171875 -230.7734375 473.170898438 -76.7861328125 475 170.1484375 c 0
 475 253.70703125 450.086914062 378.294921875 401.186523438 493.354492188 c 2
 384.60546875 532.370117188 l 1
 424.517578125 546.659179688 l 1
 586.517578125 604.659179688 l 1
 622.725585938 617.623046875 l 1
 637.100585938 581.951171875 l 2
EndSplineSet
Position2: "Single Positioning lookup 2 subtable" dx=0 dy=0 dh=-30 dv=0
Position2: "Single Positioning lookup 1 subtable" dx=0 dy=0 dh=-30 dv=0
Substitution2: "'fina' Terminal Forms in Arabic lookup 1 subtable" uniFEAE
EndChar

StartChar: uni0633
Encoding: 1587 1587 27
GlifName: uni0633
Width: 2456
GlyphClass: 2
Flags: HW
AnchorPoint: "Anchor-10" 1767.53 928.1 basechar 0
AnchorPoint: "Anchor-7" 710.902 -676.086 basechar 0
LayerCount: 2
Fore
SplineSet
1531 0 m 0
 1474 0 1422 10 1379 29 c 1
 1365 -136 1306 -269 1200 -363 c 0
 1081 -469 920 -520 721 -520 c 0
 289 -520 58 -309 58 96 c 0
 58 242 89 390 151 540 c 2
 166 577 l 1
 203 562 l 1
 358 499 l 1
 394 484 l 1
 380 448 l 2
 333 323 310 207 310 101 c 0
 310 -149 438 -267 728 -267 c 0
 1008 -267 1136 -139 1137 140 c 0
 1137 254 1109 371 1051 492 c 2
 1032 532 l 1
 1074 547 l 1
 1243 605 l 1
 1282 618 l 1
 1294 579 l 1
 1353 396 l 2
 1384 300 1433 261 1533 260 c 0
 1641 260 1678 307 1678 429 c 0
 1678 459 1675 518 1668 604 c 2
 1665 642 l 1
 1703 647 l 1
 1868 667 l 1
 1910 672 l 1
 1913 630 l 1
 1929 404 l 2
 1935 311 1971 260 2047 260 c 0
 2105 260 2146 299 2146 442 c 0
 2146 508 2132 593 2103 695 c 2
 2093 734 l 1
 2132 745 l 1
 2300 790 l 1
 2337 800 l 1
 2348 763 l 2
 2381 658 2398 556 2398 457 c 0
 2398 222 2308 1 2048 0 c 0
 1943 0 1858 38 1801 114 c 1
 1729 38 1637 0 1531 0 c 0
EndSplineSet
Position2: "Single Positioning lookup 2 subtable" dx=0 dy=0 dh=-178 dv=0
Position2: "Single Positioning lookup 1 subtable" dx=0 dy=0 dh=-173 dv=0
Substitution2: "'fina' Terminal Forms in Arabic lookup 1 subtable" uniFEB2
Substitution2: "'medi' Medial Forms in Arabic lookup 2 subtable" uniFEB4
Substitution2: "'init' Initial Forms in Arabic lookup 3 subtable" uniFEB3
EndChar

StartChar: uni0635
Encoding: 1589 1589 29
GlifName: uni0635
Width: 2575
VWidth: 2950
GlyphClass: 2
Flags: HW
AnchorPoint: "Anchor-7" 710.902 -676.086 basechar 0
AnchorPoint: "Anchor-10" 2052.53 1168.1 basechar 0
LayerCount: 2
Fore
SplineSet
1752.86523438 261 m 2
 2121.66699219 261 2259 340.8046875 2259 453 c 0
 2259 540.817382812 2198.66113281 605 2104 605 c 0
 1986.11621094 605 1840.85253906 494.591796875 1679.90234375 260.506835938 c 1
 1752.86523438 261 l 2
1137 140.067382812 m 0
 1137 256.118164062 1107.79785156 373.154296875 1050.93457031 491.700195312 c 2
 1031.48925781 532.239257812 l 1
 1074.015625 546.833984375 l 1
 1243.015625 604.833984375 l 1
 1281.56445312 618.063476562 l 1
 1294.0703125 579.274414062 l 1
 1353.05273438 396.329101562 l 2
 1369.87695312 344.653320312 1388.79199219 312.823242188 1402.66113281 299.73046875 c 1
 1624.95605469 668.0625 1851.28222656 867 2098 867 c 0
 2337.57128906 867 2517 690.586914062 2517 461.928710938 c 0
 2515.87597656 146.055664062 2239.69140625 0 1757 0 c 2
 1706 0 l 2
 1567.42773438 0 1460.59960938 13.1005859375 1379.50878906 39.25 c 1
 1351.484375 -332.780273438 1092.46289062 -520 721 -520 c 0
 288.607421875 -520 58 -309.212890625 58 96 c 0
 58 241.758789062 89.298828125 390.05859375 151.001953125 540.204101562 c 2
 166.1484375 577.059570312 l 1
 203.061523438 562.055664062 l 1
 358.061523438 499.055664062 l 1
 394.213867188 484.362304688 l 1
 380.416992188 447.858398438 l 2
 333.69921875 324.250976562 310 210.14453125 310 101 c 0
 310 -148.56640625 438.224609375 -267 728 -267 c 0
 1006.27636719 -267 1136.06347656 -139.001953125 1137 140.067382812 c 0
EndSplineSet
Position2: "Single Positioning lookup 2 subtable" dx=0 dy=0 dh=-178 dv=0
Position2: "Single Positioning lookup 1 subtable" dx=0 dy=0 dh=-173 dv=0
Substitution2: "'fina' Terminal Forms in Arabic lookup 1 subtable" uniFEBA
Substitution2: "'medi' Medial Forms in Arabic lookup 2 subtable" uniFEBC
Substitution2: "'init' Initial Forms in Arabic lookup 3 subtable" uniFEBB
EndChar

StartChar: uni0637
Encoding: 1591 1591 31
GlifName: uni0637
Width: 1471
VWidth: 2950
GlyphClass: 2
Flags: HW
AnchorPoint: "Anchor-10" 476.36 1498.58 basechar 0
AnchorPoint: "Anchor-7" 636.602 -198.453 basechar 0
LayerCount: 2
Fore
SplineSet
648.865234375 262 m 2
 1017.66699219 262 1155 341.8046875 1155 454 c 0
 1155 541.817382812 1094.66113281 606 1000 606 c 0
 882.116210938 606 736.852539062 495.591796875 575.90234375 261.506835938 c 1
 648.865234375 262 l 2
297.720703125 260 m 1
 317.01953125 290.9765625 335.483398438 319.913085938 353 347.5859375 c 1
 353 1326 l 5
 353 1366 l 5
 393 1366 l 5
 562 1366 l 5
 602 1366 l 5
 602 1326 l 5
 602 680.928710938 l 1
 720.049804688 800.344726562 848.9765625 867 991 867 c 0
 1237.95703125 867 1413 695.399414062 1413 461.857421875 c 0
 1410.75195312 146.013671875 1134.78320312 0 653 0 c 2
 98 0 l 1
 58 0 l 1
 58 40 l 1
 58 220 l 1
 58 260 l 1
 98 260 l 1
 297.720703125 260 l 1
EndSplineSet
Position2: "Single Positioning lookup 2 subtable" dx=0 dy=0 dh=-178 dv=0
Position2: "Single Positioning lookup 1 subtable" dx=0 dy=0 dh=-173 dv=0
Substitution2: "'fina' Terminal Forms in Arabic lookup 1 subtable" uniFEC2
Substitution2: "'medi' Medial Forms in Arabic lookup 2 subtable" uniFEC4
Substitution2: "'init' Initial Forms in Arabic lookup 3 subtable" uniFEC3
EndChar

StartChar: uni0639
Encoding: 1593 1593 33
GlifName: uni0639
Width: 1306
VWidth: 2990
GlyphClass: 2
Flags: HW
AnchorPoint: "Anchor-7" 670.833 -790.619 basechar 0
AnchorPoint: "Anchor-10" 694.478 1404.07 basechar 0
LayerCount: 2
Fore
SplineSet
947.780273438 788.487304688 m 2
 851.754882812 844.744140625 773.66796875 871 715 871 c 0
 614.530273438 871 535 807.733398438 535 710 c 0
 535 637.0546875 567.40625 599.521484375 621.493164062 532.435546875 c 1
 733.990234375 551.345703125 828.998046875 561 912 561 c 0
 975.72265625 561 1037.11425781 556.889648438 1097.046875 550.794921875 c 2
 1138.15039062 546.614257812 l 1
 1132.64257812 505.66796875 l 1
 1109.64257812 334.66796875 l 1
 1104.76171875 298.37890625 l 1
 1068.18359375 300.041015625 l 2
 1025.06933594 302.000976562 991.932617188 302 971 302 c 0
 498.771484375 302 304 141.548828125 304 -117 c 0
 304 -303.18359375 447.23828125 -422 766 -422 c 0
 916.263660336 -422 1046.59667969 -381.23046875 1180.59277344 -319.306640625 c 1
 1190.76464844 -368.709960938 l 1
 1225.76464844 -538.709960938 l 1
 1232 -569 l 1
 1086.74707031 -640.524414062 944.594569335 -674 755 -674 c 0
 378.58203125 -674 58 -498.809570312 58 -124 c 0
 58 97.361328125 153.1484375 318.64453125 374.995117188 439.0390625 c 1
 311.048828125 527.80859375 282 623.229492188 282 723 c 0
 282 940.27734375 480.767578125 1129 705 1129 c 0
 816.709960938 1129 935.182617188 1085.02441406 1056.57714844 1002.01953125 c 2
 1084.265625 983.086914062 l 1
 1070.44921875 952.5234375 l 1
 1004.44921875 806.5234375 l 1
 986.13671875 766.015625 l 1
 947.780273438 788.487304688 l 2
EndSplineSet
Substitution2: "'fina' Terminal Forms in Arabic lookup 1 subtable" uniFECA
Substitution2: "'medi' Medial Forms in Arabic lookup 2 subtable" uniFECC
Substitution2: "'init' Initial Forms in Arabic lookup 3 subtable" uniFECB
EndChar

StartChar: uni0640
Encoding: 1600 1600 35
GlifName: afii57440
Width: 286
VWidth: 2950
GlyphClass: 2
Flags: HW
AnchorPoint: "Anchor-10" 143.774 870.11 basechar 0
AnchorPoint: "Anchor-7" 147.7 -196.739 basechar 0
LayerCount: 2
Fore
SplineSet
-20 0 m 1
 -20 260 l 1
 306 260 l 5
 306 0 l 1
 -20 0 l 1
EndSplineSet
Position2: "Single Positioning lookup 2 subtable" dx=0 dy=0 dh=-178 dv=0
Position2: "Single Positioning lookup 1 subtable" dx=0 dy=0 dh=-173 dv=0
EndChar

StartChar: uni0643
Encoding: 1603 1603 38
GlifName: uni0643
Width: 1831
VWidth: 2950
GlyphClass: 2
Flags: HW
AnchorPoint: "Anchor-10" 916.11 1280.05 basechar 0
AnchorPoint: "Anchor-7" 900.268 -186.468 basechar 0
LayerCount: 2
Fore
SplineSet
709.122070312 637.936523438 m 6
 771.411132812 630.904296875 794.72265625 627 839 627 c 4
 942.766601562 627 1015 628.559570312 1015 700 c 4
 1015 752.848632812 990.133789062 757.701171875 921.956054688 758 c 4
 828.858398438 758.409179688 743 808.408203125 743 949 c 4
 743 1064.41503906 817.897460938 1150.578125 972.252929688 1150.578125 c 4
 1005.65820312 1150.578125 1042.77050781 1147.09863281 1083.74316406 1139.84667969 c 6
 1092 1138.38574219 l 5
 1092 1130 l 5
 1092 1035 l 5
 1092 1023.5078125 l 5
 1080.61816406 1025.09570312 l 6
 1040.1953125 1030.73632812 1005.70019531 1033.39941406 976.748046875 1033.39941406 c 4
 883.76171875 1033.39941406 852 997.62109375 852 958 c 4
 852 910.715820312 870.310546875 882.375 940.053710938 882 c 4
 1072.04199219 881.2890625 1123 826.350585938 1123 704 c 4
 1123 553.578125 1030.08886719 509 846 509 c 4
 793.200195312 509 772.049804688 514.181640625 706.501953125 524.11328125 c 6
 698 525.401367188 l 5
 698 534 l 5
 698 628 l 5
 698 639.192382812 l 5
 709.122070312 637.936523438 l 6
978 260 m 2
 1450.11230469 260 1474 348 1474 510 c 6
 1474 1326 l 5
 1474 1366 l 5
 1514 1366 l 5
 1683 1366 l 5
 1723 1366 l 5
 1723 1326 l 5
 1723 512 l 6
 1723 170 1570.88867188 0 985 0 c 2
 840 0 l 2
 355.549804688 0 58 169.282226562 58 524 c 0
 58 619.020507812 79.3525390625 710.384765625 115.2578125 793.8125 c 2
 130.302734375 828.768554688 l 1
 165.96484375 815.483398438 l 1
 318.96484375 758.483398438 l 1
 356.528320312 744.489257812 l 1
 342.453125 706.955078125 l 2
 323.043945312 655.196289062 313 601.823242188 313 549.090820312 c 0
 313.841796875 363.971679688 464.77734375 260 830 260 c 2
 978 260 l 2
EndSplineSet
Position2: "Single Positioning lookup 2 subtable" dx=0 dy=0 dh=-143 dv=0
Position2: "Single Positioning lookup 1 subtable" dx=0 dy=0 dh=-104 dv=0
Position2: "Single Positioning lookup 0 subtable" dx=0 dy=0 dh=130 dv=0
Substitution2: "'fina' Terminal Forms in Arabic lookup 1 subtable" uniFEDA
Substitution2: "'medi' Medial Forms in Arabic lookup 2 subtable" uniFEDC
Substitution2: "'init' Initial Forms in Arabic lookup 3 subtable" uniFEDB
EndChar

StartChar: uni0644
Encoding: 1604 1604 39
GlifName: uni0644
Width: 1377
VWidth: 2990
GlyphClass: 2
Flags: HW
AnchorPoint: "Anchor-7" 662.902 -668.086 basechar 0
AnchorPoint: "Anchor-10" 654.908 1045.66 basechar 0
LayerCount: 2
Fore
SplineSet
372.23046875 383.374023438 m 2
 329.3671875 274.26953125 309 185.6796875 309 76 c 0
 309 -158.313476562 422.0234375 -267 675 -267 c 0
 907.654296875 -267 1017 -152 1018 108.045898438 c 2
 1021 1326.09082031 l 5
 1021.09082031 1366 l 5
 1061 1366 l 5
 1229 1366 l 5
 1269.03125 1366 l 5
 1269 1325.96875 l 5
 1268 147 l 2
 1268 -287 1065.59179688 -520 674 -520 c 0
 272.267578125 -520 58 -314.872070312 58 77 c 0
 58 217.543945312 86.6728515625 339.990234375 143.036132812 476.286132812 c 2
 158.229492188 513.026367188 l 1
 195.061523438 498.055664062 l 1
 350.061523438 435.055664062 l 1
 386.685546875 420.169921875 l 1
 372.23046875 383.374023438 l 2
EndSplineSet
Position2: "Single Positioning lookup 2 subtable" dx=0 dy=0 dh=-60 dv=0
Position2: "Single Positioning lookup 1 subtable" dx=0 dy=0 dh=-58 dv=0
Position2: "Single Positioning lookup 0 subtable" dx=0 dy=0 dh=130 dv=0
Substitution2: "'fina' Terminal Forms in Arabic lookup 1 subtable" uniFEDE
Substitution2: "'medi' Medial Forms in Arabic lookup 2 subtable" uniFEE0
Substitution2: "'init' Initial Forms in Arabic lookup 3 subtable" uniFEDF
EndChar

StartChar: uni0645
Encoding: 1605 1605 40
GlifName: uni0645
Width: 1230
VWidth: 2620
GlyphClass: 2
Flags: HW
AnchorPoint: "Anchor-10" 763.952 1060.2 basechar 0
AnchorPoint: "Anchor-7" 714.983 -298.909 basechar 0
LayerCount: 2
Fore
SplineSet
608.0859375 349.688476562 m 1
 715.889648438 269.482421875 795.978515625 235.201171875 842.79296875 235 c 0
 902.32421875 235.995117188 925 257.801757812 925 335 c 0
 925 444.620117188 867.54296875 516 781 516 c 0
 715.229492188 516 657.145507812 469.454101562 608.0859375 349.688476562 c 1
72.0712890625 -617.388671875 m 6
 65.0458984375 -499.95703125 61 -399.030273438 61 -293 c 4
 61 40.853515625 93.7841796875 336.181640625 355.75390625 403.388671875 c 1
 455.771484375 645.087890625 595.8125 779.884765625 779.87890625 781 c 0
 1021.57910156 781 1172 578.122070312 1172 347 c 0
 1172 140.458007812 1064.0859375 -23 843 -23 c 0
 763.83203125 -23 677.03125 8.04296875 578.430664062 64.6865234375 c 0
 546.564453125 84.6025390625 515.01171875 101.271484375 477.67578125 120.444335938 c 0
 452.997070312 133.208984375 431.1953125 137.90234375 419.208984375 138 c 0
 363.76171875 137.181640625 314 44.0341796875 314 -265 c 4
 314 -394.989257812 318.951171875 -505.744140625 327.859375 -611.647460938 c 6
 331.505859375 -655 l 5
 288 -655 l 5
 112 -655 l 5
 74.3212890625 -655 l 5
 72.0712890625 -617.388671875 l 6
EndSplineSet
Position2: "Single Positioning lookup 2 subtable" dx=0 dy=0 dh=-178 dv=0
Position2: "Single Positioning lookup 1 subtable" dx=0 dy=0 dh=-173 dv=0
Substitution2: "'init' Initial Forms in Arabic lookup 3 subtable" uniFEE3
Substitution2: "'medi' Medial Forms in Arabic lookup 2 subtable" uniFEE4
Substitution2: "'fina' Terminal Forms in Arabic lookup 1 subtable" uniFEE2
EndChar

StartChar: uni0647
Encoding: 1607 1607 42
GlifName: uni0647
Width: 922
VWidth: 2950
GlyphClass: 2
Flags: HW
AnchorPoint: "Anchor-10" 399.775 1239.01 basechar 0
AnchorPoint: "Anchor-7" 445.63 -202.576 basechar 0
LayerCount: 2
Fore
SplineSet
448.251953125 622.206054688 m 1
 341.28125 522.732421875 305 450.7734375 305 389 c 0
 305 301.705078125 340.985351562 260 460 260 c 4
 585.219726562 260 617 301.90234375 617 390 c 0
 617 442.938476562 572.102539062 518.05078125 448.251953125 622.206054688 c 1
392.631835938 1004.27246094 m 2
 703.985351562 776.28125 864 578.947265625 864 384 c 0
 864 165.375 706.544921875 7.2412109375 461.264648438 4 c 0
 212.365234375 4 58 142.774414062 58 384 c 0
 58 527.537109375 124.33203125 660.353515625 258.5234375 800.748046875 c 1
 245.802734375 811.772460938 l 1
 217.70703125 836.122070312 l 1
 239.940429688 865.920898438 l 1
 336.940429688 995.920898438 l 1
 360.647460938 1027.69335938 l 1
 392.631835938 1004.27246094 l 2
EndSplineSet
Position2: "Single Positioning lookup 2 subtable" dx=0 dy=0 dh=-178 dv=0
Position2: "Single Positioning lookup 1 subtable" dx=0 dy=0 dh=-173 dv=0
Substitution2: "'fina' Terminal Forms in Arabic lookup 1 subtable" uniFEEA
Substitution2: "'medi' Medial Forms in Arabic lookup 2 subtable" uniFEEC
Substitution2: "'init' Initial Forms in Arabic lookup 3 subtable" uniFEEB
EndChar

StartChar: uni0648
Encoding: 1608 1608 43
GlifName: uni0648
Width: 880
VWidth: 2142
GlyphClass: 2
Flags: HW
AnchorPoint: "Anchor-7" 415.969 -599.998 basechar 0
AnchorPoint: "Anchor-10" 430.256 1070.2 basechar 0
LayerCount: 2
Fore
SplineSet
557.537109375 5.787109375 m 1
 508.865234375 0.4814453125 477.973632812 -2 457 -2 c 0
 204.091796875 -2 58 111.453125 58 336 c 0
 58 575.069335938 201.731445312 800 428 800 c 0
 710.670898438 800 822 486.165039062 822 206 c 0
 822 -184.240234375 600.448242188 -446.249023438 175.493164062 -527.291992188 c 2
 142.80859375 -533.525390625 l 1
 130.728515625 -502.521484375 l 1
 70.728515625 -348.521484375 l 1
 53.1953125 -303.517578125 l 1
 100.677734375 -294.67578125 l 2
 349.509765625 -248.341796875 494.779296875 -141.53515625 557.537109375 5.787109375 c 1
573.61328125 268.624023438 m 1
 555.16015625 468.71875 496.330078125 535 420 535 c 0
 362.400390625 535 303 457.723632812 303 351 c 0
 303 288.405273438 337.463867188 252 458 252 c 0
 494.712890625 252 535.008789062 258.637695312 573.61328125 268.624023438 c 1
EndSplineSet
Position2: "Single Positioning lookup 2 subtable" dx=0 dy=0 dh=-30 dv=0
Position2: "Single Positioning lookup 1 subtable" dx=0 dy=0 dh=-30 dv=0
Substitution2: "'fina' Terminal Forms in Arabic lookup 1 subtable" uniFEEE
EndChar

StartChar: uni0649
Encoding: 1609 1609 44
GlifName: uni0649
Width: 1477
VWidth: 2950
GlyphClass: 2
Flags: HW
AnchorPoint: "Anchor-7" 716.902 -636.086 basechar 0
AnchorPoint: "Anchor-10" 644.6 976.22 basechar 0
LayerCount: 2
Fore
SplineSet
937 316 m 4
 937 275.744140625 942.012695312 272 984 272 c 6
 1164.08300781 272 l 6
 1323.91308594 271.333984375 1419 171.860351562 1419 38 c 4
 1419 -311.319335938 1120.96777344 -499 719 -499 c 4
 288.452148438 -499 58 -288.056640625 58 119 c 0
 58 267.784179688 95.6103515625 419.923828125 169.166992188 593.599609375 c 2
 184.541015625 629.899414062 l 1
 221.061523438 615.055664062 l 1
 376.061523438 552.055664062 l 1
 413.2109375 536.956054688 l 1
 398.017578125 499.844726562 l 2
 338.346679688 354.090820312 309 236.116210938 309 122 c 0
 309 -127.860351562 436.658203125 -247.051757812 724.06640625 -248 c 4
 957.73046875 -248 1177 -143.649414062 1177 -2 c 4
 1177 11.626953125 1166.22460938 16 1118 16 c 6
 974 16 l 6
 793.969726562 16 688 120.90625 688 303 c 4
 688 598.701171875 931.416992188 786.53515625 1191.55859375 786.53515625 c 4
 1230.984375 786.53515625 1307.41503906 785.244140625 1387.38476562 751.922851562 c 6
 1417.47460938 739.385742188 l 5
 1411.26855469 707.384765625 l 5
 1379.26855469 542.384765625 l 5
 1370.77050781 498.568359375 l 5
 1328.14355469 511.797851562 l 6
 1275.19726562 528.229492188 1228.76855469 531.233398438 1191.96875 531.233398438 c 4
 1034.125 531.233398438 937 413.5703125 937 316 c 4
EndSplineSet
Position2: "Single Positioning lookup 2 subtable" dx=0 dy=0 dh=-60 dv=0
Position2: "Single Positioning lookup 1 subtable" dx=0 dy=0 dh=-58 dv=0
Substitution2: "'fina' Terminal Forms in Arabic lookup 1 subtable" uniFEF0
Substitution2: "'medi' Medial Forms in Arabic lookup 2 subtable" uniFBE9
Substitution2: "'init' Initial Forms in Arabic lookup 3 subtable" uniFBE8
EndChar

StartChar: uni064B
Encoding: 1611 1611 46
GlifName: uni064B_
Width: 0
VWidth: 2316
GlyphClass: 4
Flags: HW
AnchorPoint: "Anchor-10" 583.551 1123.65 mark 0
AnchorPoint: "Anchor-9" 583.551 1123.65 mark 0
AnchorPoint: "Anchor-1" 553.285 1596.25 basemark 0
AnchorPoint: "Anchor-1" 583.551 1123.65 mark 0
LayerCount: 2
Fore
SplineSet
319.5 1076 m 1
 319.5 1180 l 1
 319.5 1185.03653171 l 1
 324.162036086 1186.94233108 l 1
 779.162036086 1372.94233108 l 1
 789.5 1377.16839984 l 1
 789.5 1366 l 1
 789.5 1263 l 1
 789.5 1257.97370017 l 1
 784.851022015 1256.0630213 l 1
 329.851022015 1069.0630213 l 1
 319.5 1064.808865 l 1
 319.5 1076 l 1
319.5 1288 m 1
 319.5 1392 l 1
 319.5 1397.03653171 l 1
 324.162036086 1398.94233108 l 1
 779.162036086 1584.94233108 l 1
 789.5 1589.16839984 l 1
 789.5 1578 l 1
 789.5 1475 l 1
 789.5 1469.97370017 l 1
 784.851022015 1468.0630213 l 1
 329.851022015 1281.0630213 l 1
 319.5 1276.808865 l 1
 319.5 1288 l 1
EndSplineSet
EndChar

StartChar: uni064C
Encoding: 1612 1612 47
GlifName: uni064C_
Width: 0
VWidth: 2316
GlyphClass: 4
Flags: HW
AnchorPoint: "Anchor-10" 680.906 1278.67 mark 0
AnchorPoint: "Anchor-9" 680.906 1278.67 mark 0
AnchorPoint: "Anchor-1" 637.739 1852.46 basemark 0
AnchorPoint: "Anchor-1" 680.906 1278.67 mark 0
LayerCount: 2
Fore
SplineSet
481.5 1629 m 0
 481.5 1730.41015071 553.766977595 1798.5 652 1798.5 c 0
 750.783386164 1798.5 821.5 1731.21728053 821.5 1628 c 0
 821.5 1590.57272646 812.518328868 1550.93933172 797.5412277 1512.91996944 c 1
 811.912968785 1510.94719739 821.094040773 1510.5 830 1510.5 c 2
 837.5 1510.5 l 1
 837.5 1503 l 1
 837.5 1427 l 1
 837.5 1419.11563085 l 1
 829.625467873 1419.50935746 l 2
 810.808090161 1420.45022634 786.74252555 1422.54925702 758.555629789 1427.54372682 c 1
 693.996661335 1278.0672037 599.530382584 1203.49202128 471.867219481 1203.49202128 c 0
 332.81693156 1203.49202128 263.498872087 1333.03140483 260.500965174 1519.87968094 c 2
 260.398439082 1526.26974712 l 1
 266.691277574 1527.38493369 l 1
 345.691277574 1541.38493369 l 1
 354.315932562 1542.91335356 l 1
 354.498372925 1534.1562161 l 2
 357.511336243 1389.53397684 399.899344998 1296.5 473 1296.5 c 0
 541.318034468 1296.5 604.606226353 1345.24071762 662.044900829 1443.93481016 c 1
 559.12238515 1481.24892116 481.5 1531.38646524 481.5 1629 c 0
704.630074949 1531.94062203 m 1
 717.715135241 1563.57152748 728.5 1598.26296409 728.5 1627 c 0
 728.5 1671.15153237 695.33002255 1703.5 656 1703.5 c 0
 609.489129977 1703.5 576.5 1672.9892247 576.5 1625 c 0
 576.5 1576.66056442 640.827973575 1549.39968853 704.630074949 1531.94062203 c 1
EndSplineSet
EndChar

StartChar: uni064D
Encoding: 1613 1613 48
GlifName: uni064D_
Width: 0
VWidth: 2316
GlyphClass: 4
Flags: HW
AnchorPoint: "Anchor-7" 542.278 32.7109 mark 0
AnchorPoint: "Anchor-6" 542.278 32.7109 mark 0
AnchorPoint: "Anchor-0" 592.022 -407.025 basemark 0
AnchorPoint: "Anchor-0" 542.278 32.7109 mark 0
LayerCount: 2
Fore
SplineSet
324.5 -446 m 1
 324.5 -342 l 1
 324.5 -336.959286512 l 1
 329.167371088 -335.05549041 l 1
 785.167371088 -149.05549041 l 1
 795.5 -144.840865459 l 1
 795.5 -156 l 1
 795.5 -260 l 1
 795.5 -265.040713488 l 1
 790.832628912 -266.94450959 l 1
 334.832628912 -452.94450959 l 1
 324.5 -457.159134541 l 1
 324.5 -446 l 1
324.5 -234 m 1
 324.5 -130 l 1
 324.5 -124.959286512 l 1
 329.167371088 -123.05549041 l 1
 785.167371088 62.9445095902 l 1
 795.5 67.159134541 l 1
 795.5 56 l 1
 795.5 -48 l 1
 795.5 -53.0407134884 l 1
 790.832628912 -54.9445095902 l 1
 334.832628912 -240.94450959 l 1
 324.5 -245.159134541 l 1
 324.5 -234 l 1
EndSplineSet
EndChar

StartChar: uni064E
Encoding: 1614 1614 49
GlifName: uni064E_
Width: 0
VWidth: 2316
GlyphClass: 4
Flags: HW
AnchorPoint: "Anchor-10" 545.66 1397.63 mark 0
AnchorPoint: "Anchor-9" 545.66 1397.63 mark 0
AnchorPoint: "Anchor-1" 541.396 1651.77 basemark 0
AnchorPoint: "Anchor-1" 545.66 1397.63 mark 0
LayerCount: 2
Fore
SplineSet
288.5 1349 m 1
 288.5 1453 l 1
 288.5 1458.04071349 l 1
 293.167371088 1459.94450959 l 1
 749.167371088 1645.94450959 l 1
 759.5 1650.15913454 l 1
 759.5 1639 l 1
 759.5 1535 l 1
 759.5 1529.95928651 l 1
 754.832628912 1528.05549041 l 1
 298.832628912 1342.05549041 l 1
 288.5 1337.84086546 l 1
 288.5 1349 l 1
EndSplineSet
EndChar

StartChar: uni064F
Encoding: 1615 1615 50
GlifName: uni064F_
Width: 0
VWidth: 2316
GlyphClass: 4
Flags: HW
AnchorPoint: "Anchor-10" 591.295 1339.37 mark 0
AnchorPoint: "Anchor-9" 591.295 1339.37 mark 0
AnchorPoint: "Anchor-1" 542.134 1865.4 basemark 0
AnchorPoint: "Anchor-1" 591.295 1339.37 mark 0
LayerCount: 2
Fore
SplineSet
723 1419.5 m 2
 696.220979458 1419.5 670.437542826 1421.44271101 646.385077107 1424.91077456 c 1
 577.957394798 1333.0814329 443.159218252 1284.44257453 280.410966997 1275.51126806 c 2
 272.5 1275.07712962 l 1
 272.5 1283 l 1
 272.5 1361 l 1
 272.5 1367.84437806 l 1
 279.315841531 1368.46872996 l 2
 400.949047822 1379.61070305 501.944308236 1408.9424443 550.462824734 1450.54324496 c 1
 461.317841578 1471.22581491 372.5 1531.89068924 372.5 1626 c 0
 372.5 1727.8449726 444.995463154 1795.5 543 1795.5 c 0
 641.318487564 1795.5 713.5 1727.33053868 713.5 1625 c 0
 713.5 1587.68788251 705.008877408 1549.34555439 690.51208418 1512.04247145 c 1
 702.564765457 1510.42087039 711.798213914 1509.5 723 1509.5 c 2
 730.5 1509.5 l 1
 730.5 1502 l 1
 730.5 1427 l 1
 730.5 1419.5 l 1
 723 1419.5 l 2
595.630074949 1528.94062203 m 1
 608.715135241 1560.57152748 619.5 1595.26296409 619.5 1624 c 0
 619.5 1668.59454452 587.25938608 1699.5 547 1699.5 c 0
 499.950970863 1699.5 467.5 1670.24283065 467.5 1622 c 0
 467.5 1573.66056442 531.827973575 1546.39968853 595.630074949 1528.94062203 c 1
EndSplineSet
EndChar

StartChar: uni0650
Encoding: 1616 1616 51
GlifName: uni0650
Width: 0
VWidth: 2316
GlyphClass: 4
Flags: HW
AnchorPoint: "Anchor-7" 571.144 -44.8242 mark 0
AnchorPoint: "Anchor-6" 571.144 -44.8242 mark 0
AnchorPoint: "Anchor-0" 619.091 -324.624 basemark 0
AnchorPoint: "Anchor-0" 571.144 -44.8242 mark 0
LayerCount: 2
Fore
SplineSet
335.5 -346 m 1
 335.5 -242 l 1
 335.5 -236.963468287 l 1
 340.162036086 -235.05766892 l 1
 795.162036086 -49.0576689201 l 1
 805.5 -44.8316001553 l 1
 805.5 -56 l 1
 805.5 -159 l 1
 805.5 -164.026299835 l 1
 800.851022015 -165.936978699 l 1
 345.851022015 -352.936978699 l 1
 335.5 -357.191135 l 1
 335.5 -346 l 1
EndSplineSet
EndChar

StartChar: uni0651
Encoding: 1617 1617 52
GlifName: uni0651
Width: 0
VWidth: 2393
GlyphClass: 4
Flags: HW
AnchorPoint: "Anchor-10" 598.801 1453.71 mark 0
AnchorPoint: "Anchor-9" 598.801 1453.71 mark 0
AnchorPoint: "Anchor-1" 570.087 1839.1 basemark 0
AnchorPoint: "Anchor-1" 598.801 1453.71 mark 0
LayerCount: 2
Fore
SplineSet
615.495221408 1758.26768648 m 2
 616.501456668 1730.0930992 616.506880713 1703.18450815 618.479510779 1676.55400226 c 0
 622.953192781 1616.15541688 643.51953838 1581.5 681 1581.5 c 0
 722.079730715 1581.5 740.5 1608.95414398 740.5 1675 c 0
 740.5 1698.89333382 734.607641352 1738.7112682 723.656496219 1791.47587657 c 2
 722.059204231 1799.17191979 l 1
 729.821637134 1800.4068523 l 1
 817.821637134 1814.4068523 l 1
 824.343117418 1815.44436052 l 1
 826.198030553 1809.10674065 l 2
 838.387223109 1767.46033275 844.5 1725.75060297 844.5 1685 c 0
 844.5 1548.28714424 793.388581306 1475.55459507 690.03826431 1474.5 c 0
 650.16905291 1474.5 607.02551744 1491.44577507 583.354116273 1521.36842338 c 1
 557.052331298 1450.90180245 490.23628128 1430.5 432 1430.5 c 0
 333.279114705 1430.5 286.373817788 1496.93250824 286.373817788 1616.0779836 c 0
 286.373817788 1652.90284676 291.352240994 1687.12926928 299.764271341 1717.97338054 c 2
 301.547582836 1724.51218936 l 1
 308.232992405 1723.39795443 l 1
 386.232992405 1710.39795443 l 1
 394.064597955 1709.09268684 l 1
 392.315807516 1701.34804346 l 2
 385.462113812 1670.99597135 383.5 1643.5825296 383.5 1620 c 0
 383.5 1566.33194702 403.752943645 1543.5 444 1543.5 c 0
 521.349272019 1543.5 523.9140625 1595.25863088 523.9140625 1719.33203125 c 0
 523.9140625 1731.60515287 523.793460589 1744.42318999 523.501772611 1757.8369478 c 2
 523.335136219 1765.5 l 1
 531 1765.5 l 1
 608 1765.5 l 1
 615.236924496 1765.5 l 1
 615.495221408 1758.26768648 l 2
EndSplineSet
EndChar

StartChar: uni0652
Encoding: 1618 1618 53
GlifName: uni0652
Width: 0
VWidth: 2316
GlyphClass: 4
Flags: HW
AnchorPoint: "Anchor-10" 593.219 1239.43 mark 0
AnchorPoint: "Anchor-9" 593.219 1239.43 mark 0
AnchorPoint: "Anchor-1" 589.537 1682.66 basemark 0
AnchorPoint: "Anchor-1" 593.219 1239.43 mark 0
LayerCount: 2
Fore
SplineSet
507.5 1462 m 0
 507.5 1414.2124203 546.028078836 1376.5 594 1376.5 c 0
 641.89553369 1376.5 679.5 1414.10451199 679.5 1462 c 0
 679.5 1509.97190239 641.787619576 1548.5 594 1548.5 c 0
 546.136212317 1548.5 507.5 1509.86380866 507.5 1462 c 0
413.5 1462 m 0
 413.5 1561.15787058 494.842039268 1642.5 594 1642.5 c 0
 693.157870583 1642.5 774.5 1561.15796073 774.5 1462 c 0
 774.5 1362.84212942 693.157960732 1281.5 594 1281.5 c 0
 494.842129417 1281.5 413.5 1362.84203927 413.5 1462 c 0
EndSplineSet
EndChar

StartChar: uni0653
Encoding: 1619 1619 54
GlifName: uni0653
Width: 0
VWidth: 2673
GlyphClass: 4
Flags: HW
AnchorPoint: "Anchor-10" 461.017 1539.11 mark 0
AnchorPoint: "Anchor-9" 461.017 1539.11 mark 0
AnchorPoint: "Anchor-1" 449.017 1873.25 basemark 0
AnchorPoint: "Anchor-1" 461.017 1539.11 mark 0
LayerCount: 2
Fore
SplineSet
373.235351562 1635.82714844 m 0
 317.84765625 1635.82714844 273.09375 1594.02441406 220.8125 1531.45800781 c 2
 208.190429688 1516.35351562 l 1
 194.272460938 1530.27246094 l 1
 93.2724609375 1621.27246094 l 1
 82.599609375 1631.94433594 l 1
 91.248046875 1644.31347656 l 2
 161.051757812 1744.16015625 236.762695312 1813.68457031 338.674804688 1813.68457031 c 0
 428.803710938 1813.68457031 496.763671875 1762.62207031 574.038085938 1762.62207031 c 0
 624.560546875 1762.62207031 671.194335938 1783.33496094 733.87109375 1815.05957031 c 2
 750.009765625 1823.22851562 l 1
 758.099609375 1807.04980469 l 1
 824.099609375 1685.04980469 l 1
 831.465820312 1670.31738281 l 1
 817.443359375 1661.67675781 l 2
 746.322265625 1617.84570312 680.37890625 1589.77539062 600.071289062 1589.77539062 c 0
 513.538085938 1589.77539062 445.873046875 1635.82714844 373.235351562 1635.82714844 c 0
EndSplineSet
EndChar

StartChar: uni0657
Encoding: 1623 1623 57
GlifName: uni0657
Width: 0
VWidth: 2316
GlyphClass: 4
Flags: HW
AnchorPoint: "Anchor-10" 513.285 1400.55 mark 0
AnchorPoint: "Anchor-9" 513.285 1400.55 mark 0
AnchorPoint: "Anchor-1" 537.285 2069.85 basemark 0
AnchorPoint: "Anchor-1" 513.285 1400.55 mark 0
LayerCount: 2
Fore
SplineSet
265.187441434 1812.49765735 m 2
 303.943084872 1811.52876626 347.752635337 1808.47349463 391.687478449 1803.89071633 c 1
 492.523366606 1945.80609352 623.036931976 2025.34884925 784.299944685 2040.4672567 c 2
 792.5 2041.23601188 l 1
 792.5 2033 l 1
 792.5 1955 l 1
 792.5 1948.62101169 l 1
 786.203703474 1947.59722363 l 2
 668.393232504 1928.44104949 572.922546079 1873.31067929 498.695398936 1781.9493537 c 1
 583.238394782 1754.75091035 665.5 1698.38889186 665.5 1599 c 0
 665.5 1503.94074662 597.306947851 1430.5 501 1430.5 c 0
 405.045170285 1430.5 324.5 1498.15529328 324.5 1603 c 0
 324.5 1631.29352949 331.112436887 1669.56106387 345.016128259 1715.2097029 c 1
 319.539620415 1717.03262749 295.103420132 1718.5 265 1718.5 c 2
 257.5 1718.5 l 1
 257.5 1726 l 1
 257.5 1805 l 1
 257.5 1812.68984338 l 1
 265.187441434 1812.49765735 l 2
501 1523.5 m 0
 544.672412162 1523.5 569.5 1552.16971794 569.5 1597 c 0
 569.5 1650.01397879 504.961991208 1683.93274639 441.469159019 1700.17375377 c 1
 424.68354608 1658.71074978 417.5 1629.52830237 417.5 1605 c 0
 417.5 1557.20764412 455.049266621 1523.5 501 1523.5 c 0
EndSplineSet
EndChar

StartChar: uni065A
Encoding: 1626 1626 58
GlifName: uni065A_
Width: 0
VWidth: 2316
GlyphClass: 4
Flags: HW
AnchorPoint: "Anchor-10" 573.285 1350.55 mark 0
AnchorPoint: "Anchor-9" 573.285 1350.55 mark 0
AnchorPoint: "Anchor-1" 571.012 1862.38 basemark 0
AnchorPoint: "Anchor-1" 573.285 1350.55 mark 0
LayerCount: 2
Fore
SplineSet
495.55655238 1440.16177349 m 1
 302.55655238 1764.16177349 l 1
 295.802608809 1775.5 l 1
 309 1775.5 l 1
 433 1775.5 l 1
 437.307777493 1775.5 l 1
 439.478341757 1771.77903269 l 1
 573.02303373 1542.84527502 l 1
 707.5334164 1771.79911786 l 1
 709.707684655 1775.5 l 1
 714 1775.5 l 1
 838 1775.5 l 1
 851.232408339 1775.5 l 1
 844.434699028 1764.14712466 l 1
 650.434699028 1440.14712466 l 1
 648.250926858 1436.5 l 1
 644 1436.5 l 1
 502 1436.5 l 1
 497.737793994 1436.5 l 1
 495.55655238 1440.16177349 l 1
EndSplineSet
EndChar

StartChar: uni0660
Encoding: 1632 1632 59
GlifName: afii57392
Width: 799
VWidth: 2655
GlyphClass: 2
Flags: HW
LayerCount: 2
Fore
SplineSet
146.609108382 517.177536519 m 1
 369.809303695 741.277145895 l 1
 398.037098017 769.618687766 l 1
 426.378186766 741.390438503 l 1
 652.277600829 516.390438503 l 1
 680.674822402 488.106279907 l 1
 652.334075935 459.765533441 l 1
 428.234466559 235.665924065 l 1
 399.950195312 207.381652817 l 1
 371.665924065 235.665924065 l 1
 146.665924065 460.665924065 l 1
 118.438468615 488.893379514 l 1
 146.609108382 517.177536519 l 1
EndSplineSet
EndChar

StartChar: uni0661
Encoding: 1633 1633 60
GlifName: afii57393
Width: 651
VWidth: 2950
GlyphClass: 2
Flags: HW
LayerCount: 2
Fore
SplineSet
310.4765625 1296.41503906 m 6
 448.2421875 990.26953125 517 634.20703125 517 205 c 6
 517 40 l 1
 517 0 l 1
 477 0 l 1
 307 0 l 1
 267 0 l 1
 267 40 l 1
 267 208 l 6
 267 630.224609375 204.370117188 955.965820312 82.083984375 1205.39160156 c 6
 62.5126953125 1245.3125 l 5
 104.272460938 1260.5703125 l 5
 260.272460938 1317.5703125 l 5
 295.211914062 1330.33691406 l 5
 310.4765625 1296.41503906 l 6
EndSplineSet
EndChar

StartChar: uni0662
Encoding: 1634 1634 61
GlifName: afii57394
Width: 1114
VWidth: 2950
GlyphClass: 2
Flags: HW
LayerCount: 2
Fore
SplineSet
267 208 m 6
 267 630.224609375 204.370117188 955.965820312 82.083984375 1205.39160156 c 6
 62.44140625 1245.45800781 l 5
 104.408203125 1260.62011719 l 5
 259.408203125 1316.62011719 l 5
 296.577148438 1330.04882812 l 5
 310.453125 1293.04492188 l 6
 340.283203125 1213.49902344 371.369140625 1134.26757812 401.409179688 1054.16113281 c 4
 444.138671875 942.337890625 499.854492188 895 624 895 c 4
 738.172851562 895 790 965.7265625 790 1110 c 4
 790 1158.36328125 780.052734375 1223.34472656 773.517578125 1263.58789062 c 6
 766.783203125 1305.05566406 l 5
 808.53125 1309.75 l 5
 977.53125 1328.75 l 5
 1016.64160156 1333.14648438 l 5
 1021.671875 1294.11230469 l 6
 1027.41503906 1249.54199219 1036 1182.46679688 1036 1120 c 4
 1036 834.291992188 891.715820312 642 626 642 c 4
 572.461914062 642 529.461914062 648.111328125 486.611328125 661.689453125 c 5
 507.6875 495.392578125 517 347.305664062 517 205 c 6
 517 40 l 1
 517 0 l 1
 477 0 l 1
 307 0 l 1
 267 0 l 1
 267 40 l 1
 267 208 l 6
EndSplineSet
EndChar

StartChar: uni0663
Encoding: 1635 1635 62
GlifName: afii57395
Width: 1411
VWidth: 2950
GlyphClass: 2
Flags: HW
LayerCount: 2
Fore
SplineSet
267 208 m 6
 267 630.224609375 204.370117188 955.965820312 82.083984375 1205.39160156 c 6
 62.44140625 1245.45800781 l 5
 104.408203125 1260.62011719 l 5
 259.408203125 1316.62011719 l 5
 297.190429688 1330.27050781 l 5
 310.677734375 1292.4296875 l 6
 346.564453125 1191.74707031 383.583984375 1091.69433594 419.668945312 990.456054688 c 4
 442.883789062 925.615234375 486.399414062 895.858398438 566.21484375 895 c 4
 614.90625 895 656.984375 942.440429688 658 1121.11328125 c 4
 658 1153.66992188 659 1186.8984375 659 1218 c 6
 659 1254.765625 l 5
 695.635742188 1257.85839844 l 5
 849.635742188 1270.85839844 l 5
 891.740234375 1274.41210938 l 5
 892.982421875 1232.17578125 l 6
 893.95703125 1199.04199219 895.967773438 1163.69140625 896.977539062 1129.35644531 c 4
 904.068359375 945.00390625 949.163085938 895 999 895 c 4
 1064.01367188 895 1088 951.23046875 1088 1054 c 4
 1088 1145.70214844 1076.56933594 1211.27636719 1067.5859375 1263.17871094 c 6
 1060.38867188 1304.76269531 l 5
 1102.29882812 1309.72265625 l 5
 1271.29882812 1329.72265625 l 5
 1310.67382812 1334.3828125 l 5
 1315.6796875 1295.04980469 l 6
 1322.68261719 1240.03125 1333 1160.65625 1333 1060 c 4
 1333 830.287109375 1229.53320312 642 995 642 c 4
 913.35546875 642 837.157226562 672.670898438 772.387695312 734.407226562 c 5
 708.176757812 671.787109375 636.748046875 642 568 642 c 4
 542.165039062 642 514.212890625 644.953125 488.629882812 651.650390625 c 5
 508.603515625 489.989257812 517 355.048828125 517 205 c 6
 517 40 l 1
 517 0 l 1
 477 0 l 1
 307 0 l 1
 267 0 l 1
 267 40 l 1
 267 208 l 6
EndSplineSet
EndChar

StartChar: uni0664
Encoding: 1636 1636 63
GlifName: afii57396
Width: 1006
VWidth: 2950
GlyphClass: 2
Flags: HW
LayerCount: 2
Fore
SplineSet
782.918945312 587.88671875 m 6
 512.857852932 489.972687449 355.621000448 418.070789117 354 351 c 4
 352.879182624 304.624870386 447.677734375 260 704 260 c 2
 896 260 l 1
 935.557617188 260 l 1
 935.997070312 220.444335938 l 1
 937.997070312 40.4443359375 l 1
 938.447265625 0 l 1
 898 0 l 1
 696.946289062 0 l 2
 323.961914062 1 91 103.46484375 91 347 c 0
 91 504.43359375 216.002929688 572.322265625 416.626953125 678.075195312 c 1
 262.78515625 734.038085938 174 798.470703125 174 953 c 0
 174 1195.26269531 409.48046875 1315.89550781 655.748046875 1319 c 0
 702.140625 1319 752.099609375 1315.91894531 802.861328125 1309.703125 c 2
 840.66796875 1305.07421875 l 1
 837.893554688 1267.0859375 l 1
 824.893554688 1089.0859375 l 1
 821.837890625 1047.2421875 l 1
 780.186523438 1052.29101562 l 2
 748.4765625 1056.13378906 720.091796875 1058 694 1058 c 0
 507.21484375 1058 449 1009.85644531 449 936 c 0
 449 882.821289062 527.296875 865.459960938 769.391601562 844.85546875 c 2
 805.595703125 841.774414062 l 1
 805.997070312 805.442382812 l 1
 807.997070312 624.442382812 l 1
 808.299804688 597.088867188 l 1
 782.918945312 587.88671875 l 6
EndSplineSet
EndChar

StartChar: uni0665
Encoding: 1637 1637 64
GlifName: afii57397
Width: 1177
VWidth: 2950
GlyphClass: 2
Flags: HW
LayerCount: 2
Fore
SplineSet
566.013671875 883.907226562 m 5
 406.993164062 703.731445312 329 586.740234375 329 478 c 0
 329 340.961914062 408.801757812 258 595 258 c 0
 764.572265625 258 849 340.840820312 849 485 c 0
 849 613.129882812 747.524414062 729.515625 566.013671875 883.907226562 c 5
493.2421875 1281.5546875 m 6
 891.079101562 997.529296875 1101 802.330078125 1101 462 c 0
 1101 187.465820312 909.049804688 0 591 0 c 0
 254.53515625 0 77 194.489257812 77 461 c 0
 77 687.565429688 180.32421875 826.346679688 361.537109375 1044.95507812 c 5
 336.48046875 1064.39648438 l 5
 306.141601562 1087.93554688 l 5
 328.421875 1119.20898438 l 5
 437.421875 1272.20898438 l 5
 460.654296875 1304.8203125 l 5
 493.2421875 1281.5546875 l 6
EndSplineSet
EndChar

StartChar: uni0666
Encoding: 1638 1638 65
GlifName: afii57398
Width: 1175
VWidth: 2950
GlyphClass: 2
Flags: HW
LayerCount: 2
Fore
SplineSet
797.1328125 30.5458984375 m 2
 718.827148438 352.471679688 674.845703125 598.732421875 664.193359375 984.854492188 c 5
 571.081054688 963.268554688 500.721679688 959 404 959 c 4
 269.467773438 959 199.022460938 977.869140625 76.4482421875 1033.58496094 c 6
 53 1044.24316406 l 5
 53 1070 l 5
 53 1267 l 5
 53 1329.51660156 l 5
 109.762695312 1303.31835938 l 6
 237.786132812 1244.23046875 300.888671875 1226 450 1226 c 4
 592.784179688 1226 698.41796875 1246.43652344 849.26953125 1306.18847656 c 6
 903.189453125 1327.546875 l 5
 903.99609375 1269.55664062 l 6
 911.967773438 696.568359375 962.89453125 370.211914062 1058.31933594 51.47265625 c 2
 1073.72949219 -0 l 1
 1020 0 l 1
 836 0 l 1
 804.563476562 0 l 1
 797.1328125 30.5458984375 l 2
EndSplineSet
EndChar

StartChar: uni0667
Encoding: 1639 1639 66
GlifName: afii57399
Width: 1246
VWidth: 2950
GlyphClass: 2
Flags: HW
LayerCount: 2
Fore
SplineSet
502.6015625 33.087890625 m 2
 413.3203125 541.993164062 251.067382812 890.920898438 66.5234375 1173.10644531 c 6
 42.744140625 1209.46777344 l 5
 80.94140625 1230.16796875 l 5
 235.94140625 1314.16796875 l 5
 269.842773438 1332.54003906 l 5
 289.4453125 1299.33496094 l 6
 415.358398438 1086.05273438 543.642578125 804.35546875 623.596679688 466.04296875 c 1
 702.759765625 806.125 830.51953125 1085.84667969 956.5546875 1299.33496094 c 6
 976.157226562 1332.54003906 l 5
 1010.05859375 1314.16796875 l 5
 1165.05859375 1230.16796875 l 5
 1203.25585938 1209.46777344 l 5
 1179.4765625 1173.10644531 l 6
 994.965820312 890.971679688 833.689453125 542.044921875 744.3984375 33.087890625 c 2
 738.59375 -0 l 1
 705 0 l 1
 542 0 l 1
 508.40625 0 l 1
 502.6015625 33.087890625 l 2
EndSplineSet
EndChar

StartChar: uni0668
Encoding: 1640 1640 67
GlifName: afii57400
Width: 1246
VWidth: 2950
GlyphClass: 2
Flags: HW
LayerCount: 2
Fore
SplineSet
542 1305 m 5
 705 1305 l 5
 738.59375 1305 l 5
 744.3984375 1271.91210938 l 6
 833.689453125 762.955078125 994.965820312 414.028320312 1179.4765625 131.893554688 c 2
 1203.25585938 95.5322265625 l 1
 1165.05859375 74.83203125 l 1
 1010.05859375 -9.16796875 l 1
 976.157226562 -27.5400390625 l 1
 956.5546875 5.6650390625 l 2
 830.677734375 218.884765625 702.30078125 500.849609375 623.596679688 838.95703125 c 5
 543.17578125 498.666992188 415.51953125 219.219726562 289.4453125 5.6650390625 c 2
 269.842773438 -27.5400390625 l 1
 235.94140625 -9.16796875 l 1
 80.94140625 74.83203125 l 1
 42.744140625 95.5322265625 l 1
 66.5234375 131.893554688 l 2
 251.067382812 414.079101562 413.3203125 763.006835938 502.6015625 1271.91210938 c 6
 508.40625 1305 l 5
 542 1305 l 5
EndSplineSet
EndChar

StartChar: uni0669
Encoding: 1641 1641 68
GlifName: afii57401
Width: 1026
GlyphClass: 2
Flags: HW
LayerCount: 2
Fore
SplineSet
67 887 m 4
 67 1096.921875 233.532226562 1313 462 1313 c 4
 761.8046875 1313 839.30859375 1071.68945312 853.948242188 789.026367188 c 4
 869.299804688 480.000976562 880.309570312 297.448242188 886.986328125 41.041015625 c 2
 888.055664062 0 l 1
 847 0 l 1
 679 0 l 1
 640.030273438 0 l 1
 639.013671875 38.95703125 l 2
 635.825195312 161.178710938 626.736328125 384.701171875 622.33984375 548.0546875 c 5
 585.993164062 540.518554688 538.692382812 534 483 534 c 4
 221.91015625 534 67 637.821289062 67 887 c 4
461 1062 m 4
 383.380859375 1062 313 976.564453125 313 887 c 4
 313 819.969726562 338.138671875 784 486 784 c 4
 518.087890625 784 569.530273438 791.905273438 604.944335938 799.638671875 c 5
 598.186523438 897.876953125 586.002929688 975.665039062 557.4765625 1017.4453125 c 4
 538.243164062 1045.61425781 512.801757812 1062 461 1062 c 4
EndSplineSet
EndChar

StartChar: uni066A
Encoding: 1642 1642 69
GlifName: afii57381
Width: 1033
VWidth: 4036
GlyphClass: 2
Flags: HW
LayerCount: 2
Fore
SplineSet
758 1348 m 1
 890 1288 l 1
 927 1272 l 1
 312 -7 l 1
 276 9 l 1
 143 69 l 1
 107 85 l 1
 722 1365 l 1
 758 1348 l 1
597 233 m 0
 597 328 674 407 770 407 c 0
 866 407 943 328 943 233 c 0
 943 138 865 60 770 60 c 0
 675 60 597 135 597 233 c 0
90 1119 m 0
 90 1214 167 1293 263 1293 c 0
 359 1293 436 1214 436 1119 c 0
 436 1024 358 946 263 946 c 0
 168 946 90 1021 90 1119 c 0
EndSplineSet
EndChar

StartChar: uni066B
Encoding: 1643 1643 70
GlifName: uni066B_
Width: 772
VWidth: 2950
GlyphClass: 2
Flags: HW
LayerCount: 2
Fore
SplineSet
549.651367188 789.810546875 m 1
 676.651367188 735.810546875 l 1
 713.705078125 720.055664062 l 1
 697.70703125 683.106445312 l 1
 235.70703125 -383.893554688 l 1
 219.842773438 -420.532226562 l 1
 183.174804688 -404.736328125 l 1
 53.1748046875 -348.736328125 l 1
 16.2568359375 -332.833007812 l 1
 32.341796875 -295.994140625 l 1
 497.341796875 769.005859375 l 1
 513.194335938 805.3125 l 1
 549.651367188 789.810546875 l 1
EndSplineSet
PairPos2: "'kern' Horizontal Kerning lookup 4 subtable 1" uni06F2 dx=-130 dy=0 dh=-130 dv=0 dx=0 dy=0 dh=0 dv=0
PairPos2: "'kern' Horizontal Kerning lookup 4 subtable 1" uni06F3 dx=-130 dy=0 dh=-130 dv=0 dx=0 dy=0 dh=0 dv=0
PairPos2: "'kern' Horizontal Kerning lookup 4 subtable 1" uni06F4 dx=-110 dy=0 dh=-110 dv=0 dx=0 dy=0 dh=0 dv=0
EndChar

StartChar: uni066C
Encoding: 1644 1644 71
GlifName: uni066C_
Width: 560
GlyphClass: 2
Flags: HW
LayerCount: 2
Fore
SplineSet
153.83923225 -331.878790782 m 1
 58.8392322496 -259.878790782 l 1
 27.7823641149 -236.34095388 l 1
 50.5011230928 -204.67998714 l 2
 109.377942623 -122.628981332 144.45252224 -28.8581223025 147 52.589489279 c 2
 147 219 l 1
 147 259 l 1
 187 259 l 1
 358 259 l 1
 398 259 l 1
 398 219 l 1
 398 74 l 2
 398 -93.3026811426 300.507182337 -251.92004103 203.239399703 -331.031801472 c 2
 178.871862629 -350.850889596 l 1
 153.83923225 -331.878790782 l 1
EndSplineSet
EndChar

StartChar: uni066D
Encoding: 1645 1645 72
GlifName: afii63167
Width: 1436
VWidth: 2948
GlyphClass: 2
Flags: HW
LayerCount: 2
Fore
SplineSet
151 1079 m 1
 554.036131895 1079 l 1
 679.997555041 1462.48255491 l 1
 718 1578.17888734 l 1
 756.002444959 1462.48255491 l 1
 881.963868105 1079 l 1
 1285 1079 l 1
 1407.1600695 1079 l 1
 1308.65855285 1006.7467385 l 1
 983.022304153 767.884619118 l 1
 1108.02086631 385.426331917 l 1
 1146.16636886 268.712480825 l 1
 1046.59383791 340.563113955 l 1
 718 577.673440175 l 1
 389.406162089 340.563113955 l 1
 289.833631136 268.712480825 l 1
 327.979133688 385.426331917 l 1
 452.977695847 767.884619118 l 1
 127.341447154 1006.7467385 l 1
 28.839930503 1079 l 1
 151 1079 l 1
EndSplineSet
EndChar

StartChar: uni066E
Encoding: 1646 1646 73
GlifName: uni066E_
Width: 1777
VWidth: 2950
GlyphClass: 2
Flags: HW
AnchorPoint: "Anchor-10" 973.36 1453.35 basechar 0
AnchorPoint: "Anchor-7" 923.36 -219.261 basechar 0
LayerCount: 2
Fore
SplineSet
975 0 m 6
 840 0 l 2
 356 0 58 169 58 524 c 0
 58 619 79 711 115 794 c 2
 130 829 l 1
 166 815 l 1
 319 758 l 1
 357 744 l 1
 342 707 l 2
 323 655 313 602 313 549 c 0
 314 364 465 260 830 260 c 2
 968 260 l 2
 1255 260 1466 265 1466 488 c 0
 1466 542 1454 626 1431 727 c 2
 1422 765 l 1
 1460 775 l 1
 1620 815 l 1
 1656 824 l 1
 1668 789 l 2
 1702 686 1719 588 1719 503 c 0
 1719 64 1384 0 975 0 c 6
EndSplineSet
Substitution2: "'fina' Terminal Forms in Arabic lookup 1 subtable" uni066E.fina
EndChar

StartChar: uni066F
Encoding: 1647 1647 74
GlifName: uni066F_
Width: 1437
VWidth: 2950
GlyphClass: 2
Flags: HW
AnchorPoint: "Anchor-10" 115.809 1400.22 basechar 0
AnchorPoint: "Anchor-7" 329.219 -723.353 basechar 0
LayerCount: 2
Fore
SplineSet
1118.60644531 345.524414062 m 1
 1097.78125 478.990234375 1049.27050781 584 971 584 c 0
 917.630859375 584 851 517.965820312 851 416 c 0
 851 361.135742188 879.819335938 329 987 329 c 0
 1030.34375 329 1076.12988281 335.2890625 1118.60644531 345.524414062 c 1
380.416992188 507.858398438 m 2
 333.69921875 384.250976562 310 270.14453125 310 161 c 0
 310 -88.0458984375 434.584960938 -207 725 -207 c 0
 1021.99609375 -207 1119.109375 -98.40234375 1137.23632812 96.7646484375 c 1
 1083.77246094 85.0751953125 1030.97851562 79 971 79 c 0
 746.405273438 79 611 185.653320312 611 389 c 0
 611 603.151367188 739.97265625 839 978 839 c 0
 1287.48632812 839 1379 497.537109375 1379 196 c 0
 1379 -236.875 1169.71972656 -460 721 -460 c 0
 285.5625 -460 58 -249.021484375 58 156 c 0
 58 301.758789062 89.298828125 450.05859375 151.001953125 600.204101562 c 2
 166.1484375 637.059570312 l 1
 203.061523438 622.055664062 l 1
 358.061523438 559.055664062 l 1
 394.213867188 544.362304688 l 1
 380.416992188 507.858398438 l 2
EndSplineSet
Substitution2: "'fina' Terminal Forms in Arabic lookup 1 subtable" uni066F.fina
EndChar

StartChar: uni0670
Encoding: 1648 1648 75
GlifName: uni0670
Width: 0
VWidth: 2574
GlyphClass: 4
Flags: HW
AnchorPoint: "Anchor-10" 636.984 1500.61 mark 0
AnchorPoint: "Anchor-9" 636.984 1500.61 mark 0
AnchorPoint: "Anchor-1" 636.984 1957.18 basemark 0
AnchorPoint: "Anchor-1" 636.984 1500.61 mark 0
LayerCount: 2
Fore
SplineSet
585.5 1568 m 1
 585.5 1930 l 1
 585.5 1937.5 l 1
 593 1937.5 l 1
 681 1937.5 l 1
 688.5 1937.5 l 1
 688.5 1930 l 1
 688.5 1568 l 1
 688.5 1560.5 l 1
 681 1560.5 l 1
 593 1560.5 l 1
 585.5 1560.5 l 1
 585.5 1568 l 1
EndSplineSet
EndChar

StartChar: uni0674
Encoding: 1652 1652 76
GlifName: uni0674
Width: 551
VWidth: 2539
GlyphClass: 2
Flags: HW
LayerCount: 2
Fore
SplineSet
169.944399235 1973.41725864 m 1
 125.693815952 2014.49838316 108.5 2062.75780096 108.5 2133 c 0
 108.5 2265.1411114 207.440912061 2348.5 317 2348.5 c 0
 366.752814302 2348.5 414.185404357 2333.26226371 456.987580024 2306.59405451 c 2
 460.489787935 2304.4119782 l 1
 460.521266141 2300.28572974 l 1
 461.430445828 2181.10799537 l 1
 461.532428086 2167.73988497 l 1
 450.070539219 2174.62042852 l 2
 409.621515577 2198.90187741 371.02144361 2210.5 331 2210.5 c 0
 283.144371469 2210.5 238.5 2185.60790511 238.5 2120.03127343 c 0
 239.486361828 2080.59282422 260.922058803 2050.95357153 321.830129269 2028.35840903 c 0
 328.2690282 2026.21177995 333.866387638 2024.6953125 338.90234375 2024.6953125 c 0
 341.584820005 2024.6953125 340.885501822 2024.61727142 345.855452496 2025.7090147 c 0
 389.642042811 2034.10705836 435.243919398 2043.73836505 478.548461163 2052.28097956 c 2
 487.5 2054.04683465 l 1
 487.5 2044.92278447 l 1
 487.5 1928.93916352 l 1
 487.5 1923.03070596 l 1
 481.755717381 1921.64756174 l 1
 84.7557173812 1826.05542415 l 1
 75.5 1823.82677476 l 1
 75.5 1833.34702593 l 1
 75.5 1946.00679526 l 1
 75.5 1951.9962041 l 1
 81.3410512792 1953.32102038 l 1
 169.944399235 1973.41725864 l 1
EndSplineSet
EndChar

StartChar: uni06A1
Encoding: 1697 1697 80
GlifName: uni06A_1
Width: 1781
VWidth: 2950
GlyphClass: 2
Flags: HW
AnchorPoint: "Anchor-10" 637.853 1668.62 basechar 0
AnchorPoint: "Anchor-7" 620.182 -314.248 basechar 0
LayerCount: 2
Fore
SplineSet
1482.95507812 376.723632812 m 5
 1431.91308594 365.981445312 1382.18261719 361 1328 361 c 4
 1097.41699219 361 962 468.063476562 962 678 c 4
 962 898.1953125 1095.19335938 1121 1328 1121 c 4
 1619.73144531 1121 1723 795.38671875 1723 500.895507812 c 4
 1720.87597656 95.2392578125 1531.87207031 0 1127 0 c 6
 837 0 l 2
 344.237304688 0 58 169.952148438 58 524 c 0
 58 619.020507812 79.3525390625 710.384765625 115.2578125 793.8125 c 2
 130.302734375 828.768554688 l 1
 165.96484375 815.483398438 l 1
 318.96484375 758.483398438 l 1
 356.528320312 744.489257812 l 1
 342.453125 706.955078125 l 2
 323.02734375 655.15234375 313 601.930664062 313 549 c 0
 313 364.950195312 476.177734375 260 833 260 c 2
 1148 260 l 6
 1368.57910156 260 1460.80371094 291.987304688 1482.95507812 376.723632812 c 5
1469.29199219 627.5390625 m 5
 1447.78222656 758.817382812 1399.12597656 865 1322 865 c 4
 1268.26464844 865 1202 800.86328125 1202 697 c 4
 1202 642.485351562 1230.26269531 611 1339 611 c 4
 1381.52246094 611 1426.06835938 617.185546875 1469.29199219 627.5390625 c 5
EndSplineSet
Substitution2: "'init' Initial Forms in Arabic lookup 3 subtable" uni06A1.init
Substitution2: "'medi' Medial Forms in Arabic lookup 2 subtable" uni06A1.medi
Substitution2: "'fina' Terminal Forms in Arabic lookup 1 subtable" uni06A1.fina
EndChar

StartChar: uni06A9
Encoding: 1705 1705 81
GlifName: uni06A_9
Width: 1865
VWidth: 2950
GlyphClass: 2
Flags: HW
AnchorPoint: "Anchor-10" 1193.88 1364.67 basechar 0
AnchorPoint: "Anchor-7" 900.268 -186.468 basechar 0
LayerCount: 2
Fore
SplineSet
1208.28320312 1014.05664062 m 1
 1358.64941406 885.40625 1471.84570312 791.39453125 1543.94628906 713.748046875 c 0
 1633.23632812 616.15234375 1682.06542969 515.2734375 1682.06542969 395.299804688 c 0
 1682.06542969 120.6796875 1439.3671875 0 1031 0 c 2
 840 0 l 2
 355.890625 0 58 168.836914062 58 524 c 0
 58 619.047851562 78.884765625 710.963867188 115.413085938 794.491210938 c 2
 130.615234375 829.25390625 l 1
 166.1328125 815.907226562 l 1
 319.478515625 758.28125 l 1
 356.9765625 744.189453125 l 1
 342.830078125 706.711914062 l 2
 323.098632812 654.439453125 313 601.44140625 313 549.08203125 c 0
 313.84765625 364.219726562 464.6640625 260 830 260 c 2
 1030 260 l 2
 1324.32617188 260 1426.00488281 326.403320312 1426.00488281 411.697265625 c 0
 1426.00488281 464.133789062 1400.13476562 508.928710938 1335.01855469 570.26953125 c 0
 1233.92382812 664.426757812 1142.30175781 733.08203125 1063.58789062 795.067382812 c 0
 983.038085938 857.600585938 935 929.989257812 935 1012 c 0
 935 1115.07324219 995 1191 1100.18164062 1230.21972656 c 2
 1804.75 1492.10644531 l 1
 1804.75 1235.77539062 l 1
 1208.28320312 1014.05664062 l 1
EndSplineSet
Position2: "Single Positioning lookup 2 subtable" dx=0 dy=0 dh=-226 dv=0
Position2: "Single Positioning lookup 1 subtable" dx=0 dy=0 dh=-219 dv=0
Position2: "Single Positioning lookup 0 subtable" dx=0 dy=0 dh=180 dv=0
Substitution2: "'init' Initial Forms in Arabic lookup 3 subtable" uniFB90
Substitution2: "'medi' Medial Forms in Arabic lookup 2 subtable" uniFB91
Substitution2: "'fina' Terminal Forms in Arabic lookup 1 subtable" uniFB8F
EndChar

StartChar: uni06BA
Encoding: 1722 1722 83
GlifName: afii57514
Width: 1447
VWidth: 2950
GlyphClass: 2
Flags: HW
LayerCount: 2
Fore
SplineSet
1074 617 m 1
 1243 675 l 1
 1279 687 l 1
 1293 652 l 2
 1357 490 1389 333 1389 180 c 0
 1389 -229 1124 -450 721 -450 c 0
 289 -450 58 -238 58 166 c 0
 58 312 89 460 151 610 c 2
 166 647 l 1
 203 632 l 1
 358 569 l 1
 394 554 l 1
 380 518 l 2
 333 394 310 280 310 171 c 0
 310 -78 438 -197 728 -197 c 0
 1006 -197 1136 -68 1137 210 c 0
 1137 326 1108 443 1051 562 c 2
 1031 602 l 1
 1074 617 l 1
EndSplineSet
Substitution2: "'fina' Terminal Forms in Arabic lookup 1 subtable" uniFB9F
EndChar

StartChar: uni06F0
Encoding: 1776 1776 86
GlifName: uni06F_0
Width: 902
VWidth: 2655
GlyphClass: 2
Flags: HW
LayerCount: 2
Fore
SplineSet
95 493 m 4
 95 689 255 849 451 849 c 4
 647 849 807 689 807 493 c 4
 807 297 647 137 451 137 c 4
 255 137 95 297 95 493 c 4
317 493 m 4
 317 418 377 358 451 358 c 4
 525 358 585 418 585 493 c 4
 585 567 526 626 451 626 c 4
 376 626 317 567 317 493 c 4
EndSplineSet
PairPos2: "'kern' Horizontal Kerning lookup 4 subtable 1" uni06F2 dx=-100 dy=0 dh=-100 dv=0 dx=0 dy=0 dh=0 dv=0
PairPos2: "'kern' Horizontal Kerning lookup 4 subtable 1" uni06F3 dx=-100 dy=0 dh=-100 dv=0 dx=0 dy=0 dh=0 dv=0
PairPos2: "'kern' Horizontal Kerning lookup 4 subtable 1" uni06F4 dx=-10 dy=0 dh=-10 dv=0 dx=0 dy=0 dh=0 dv=0
PairPos2: "'kern' Horizontal Kerning lookup 4 subtable 1" uni06F7 dx=-100 dy=0 dh=-100 dv=0 dx=0 dy=0 dh=0 dv=0
PairPos2: "'kern' Horizontal Kerning lookup 4 subtable 1" uni06F8 dx=-46 dy=0 dh=-46 dv=0 dx=0 dy=0 dh=0 dv=0
PairPos2: "'kern' Horizontal Kerning lookup 4 subtable 1" uni06F6 dx=-20 dy=0 dh=-20 dv=0 dx=0 dy=0 dh=0 dv=0
EndChar

StartChar: uni06F4
Encoding: 1780 1780 90
GlifName: uni06F_4
Width: 1193
VWidth: 2950
GlyphClass: 2
Flags: HW
LayerCount: 2
Fore
SplineSet
311.759765625 1292.19726562 m 1
 383.75 1086.22558594 l 2
 397.068359375 1048.30273438 408.74609375 1017.03417969 417.447265625 995.192382812 c 1
 460.46875 1163.09667969 589.466796875 1327 801 1327 c 4
 954.057213156 1327 1052.38646406 1256.46028174 1088.72753906 1229.20410156 c 5
 1078.59179688 1201.33007812 l 1
 1022.59179688 1047.33007812 l 1
 1007.25390625 1005.15136719 l 1
 947.775301956 1037.89066933 912.848554374 1066 812 1066 c 4
 703.623046875 1066 632 967.4296875 632 854 c 0
 632 844.84375 633.23828125 840.47265625 633.461914062 839.862304688 c 0
 634.877929688 838.704101562 645.12890625 833.571289062 664.333984375 826.711914062 c 0
 698.71484375 814.678710938 744.4140625 807 804 807 c 0
 888.603515625 807 965.10546875 829.923828125 1043.14453125 861.138671875 c 2
 1090.80078125 880.202148438 l 1
 1097.64257812 829.33203125 l 1
 1120.64257812 658.33203125 l 1
 1124.65332031 628.51953125 l 1
 1097.12402344 616.393554688 l 2
 1009.95214844 577.997070312 923.58984375 554 825 554 c 0
 685.763671875 554 573.569335938 587.6484375 489.548828125 639.338867188 c 1
 507.694335938 472.107421875 517 324.657226562 517 205 c 2
 517 40 l 1
 517 0 l 1
 477 0 l 1
 307 0 l 1
 267 0 l 1
 267 40 l 1
 267 208 l 2
 267 630.224609375 204.370117188 955.965820312 82.083984375 1205.39160156 c 2
 62.400390625 1245.54003906 l 1
 104.485351562 1260.64746094 l 1
 260.485351562 1316.64746094 l 1
 298.451171875 1330.27636719 l 1
 311.759765625 1292.19726562 l 1
EndSplineSet
Substitution2: "'locl' Localized Forms in Arabic lookup 10 subtable" uni06F4.urdu
PairPos2: "'kern' Horizontal Kerning lookup 4 subtable 1" uni06F0 dx=-64 dy=0 dh=-64 dv=0 dx=0 dy=0 dh=0 dv=0
PairPos2: "'kern' Horizontal Kerning lookup 4 subtable 1" uni06F5 dx=-40 dy=0 dh=-40 dv=0 dx=0 dy=0 dh=0 dv=0
PairPos2: "'kern' Horizontal Kerning lookup 4 subtable 1" uni06F8 dx=-64 dy=0 dh=-64 dv=0 dx=0 dy=0 dh=0 dv=0
PairPos2: "'kern' Horizontal Kerning lookup 4 subtable 1" uni06F1 dx=-64 dy=0 dh=-64 dv=0 dx=0 dy=0 dh=0 dv=0
PairPos2: "'kern' Horizontal Kerning lookup 4 subtable 1" uni06F9 dx=-64 dy=0 dh=-64 dv=0 dx=0 dy=0 dh=0 dv=0
EndChar

StartChar: uni06F5
Encoding: 1781 1781 91
GlifName: uni06F_5
Width: 1246
VWidth: 2950
GlyphClass: 2
Flags: HW
LayerCount: 2
Fore
SplineSet
396 250 m 0
 455.016601562 250 491.275189435 271.633595806 521.680664062 434.34765625 c 2
 527.782226562 467 l 1
 561 467 l 1
 685 467 l 1
 718.884765625 467 l 1
 724.456054688 433.576171875 l 2
 751.125598155 273.577610137 792.857421875 250 854 250 c 0
 895.028320312 250 926 276.567382812 926 364 c 0
 926 546.916015625 839.865234375 667.1875 620.40234375 907.796875 c 5
 412.56640625 626.370117188 320 513.278320312 320 364 c 0
 320 282.80078125 360.384765625 250 396 250 c 0
562.217773438 1322.31152344 m 6
 985.701171875 929.078125 1170 687.412109375 1170 365 c 0
 1170 125.868164062 1051.75878906 0 854 0 c 0
 758.604492188 0 675.5859375 50.6923828125 624.852539062 125.984375 c 1
 577.99609375 49.6806640625 498.791015625 0 397 0 c 0
 205.145507812 0 76 131.422851562 76 365 c 0
 76 633.629882812 244.99609375 818.78125 438.340820312 1085.68945312 c 5
 401.950195312 1121.48339844 l 5
 377.264648438 1145.76367188 l 5
 397.7578125 1173.67382812 l 5
 502.7578125 1316.67382812 l 5
 529.325195312 1352.85546875 l 5
 562.217773438 1322.31152344 l 6
EndSplineSet
PairPos2: "'kern' Horizontal Kerning lookup 4 subtable 1" uni06F2 dx=-100 dy=0 dh=-100 dv=0 dx=0 dy=0 dh=0 dv=0
PairPos2: "'kern' Horizontal Kerning lookup 4 subtable 1" uni06F3 dx=-100 dy=0 dh=-100 dv=0 dx=0 dy=0 dh=0 dv=0
PairPos2: "'kern' Horizontal Kerning lookup 4 subtable 1" uni06F4 dx=-42 dy=0 dh=-42 dv=0 dx=0 dy=0 dh=0 dv=0
PairPos2: "'kern' Horizontal Kerning lookup 4 subtable 1" uni06F6 dx=-42 dy=0 dh=-42 dv=0 dx=0 dy=0 dh=0 dv=0
PairPos2: "'kern' Horizontal Kerning lookup 4 subtable 1" uni06F7 dx=-100 dy=0 dh=-100 dv=0 dx=0 dy=0 dh=0 dv=0
PairPos2: "'kern' Horizontal Kerning lookup 4 subtable 1" uni06F8 dx=-38 dy=0 dh=-38 dv=0 dx=0 dy=0 dh=0 dv=0
EndChar

StartChar: uni06F6
Encoding: 1782 1782 92
GlifName: uni06F_6
Width: 1009
VWidth: 2950
GlyphClass: 2
Flags: HW
LayerCount: 2
Fore
SplineSet
885.09765625 888.048828125 m 5
 898.416015625 842.145507812 l 5
 945.416015625 680.145507812 l 5
 955.059570312 646.907226562 l 5
 669.208984375 522.8203125 535.664603489 346.242880766 305.245117188 -51.375 c 1
 267.624023438 -34.494140625 l 1
 111.624023438 35.505859375 l 1
 76.4619140625 51.283203125 l 5
 201.971676805 277.248499313 275.59765625 380.517578125 404.630859375 530.659179688 c 5
 203.119140625 582.834960938 93 716.140625 93 869 c 4
 93 1091.02050781 259.211914062 1320 528 1320 c 4
 595.547851562 1320 684.801757812 1310.80957031 781.01171875 1247.39746094 c 6
 808.193359375 1229.48242188 l 5
 796.172851562 1199.22851562 l 5
 736.172851562 1048.22851562 l 5
 719.997070312 1007.51953125 l 5
 680.920898438 1027.31835938 l 6
 611.6640625 1062.40820312 573.951171875 1063 535 1063 c 4
 436.921875 1063 347 958.904296875 347 876 c 4
 347 836.025390625 392.04296875 760.004882812 616.575195312 738.819335938 c 5
 703.61328125 793.630859375 747 820 842.258789062 866.850585938 c 6
 885.09765625 888.048828125 l 5
EndSplineSet
Substitution2: "'locl' Localized Forms in Arabic lookup 10 subtable" uni0666
PairPos2: "'kern' Horizontal Kerning lookup 4 subtable 1" uni06F7 dx=-40 dy=0 dh=-40 dv=0 dx=0 dy=0 dh=0 dv=0
PairPos2: "'kern' Horizontal Kerning lookup 4 subtable 1" uni06F8 dx=-40 dy=0 dh=-40 dv=0 dx=0 dy=0 dh=0 dv=0
PairPos2: "'kern' Horizontal Kerning lookup 4 subtable 1" uni06F9 dx=-30 dy=0 dh=-30 dv=0 dx=0 dy=0 dh=0 dv=0
EndChar

StartChar: uniFB8F
Encoding: 64399 64399 107
GlifName: uniF_B_8F_
Width: 1941
VWidth: 2950
GlyphClass: 2
Flags: HW
AnchorPoint: "Anchor-10" 1193.88 1364.67 basechar 0
AnchorPoint: "Anchor-7" 900.268 -186.468 basechar 0
LayerCount: 2
Fore
SplineSet
1208.28320312 1014.05664062 m 1
 1355.23144531 887.319335938 1470.11914062 794.903320312 1544.36035156 714.166015625 c 4
 1603.10742188 651.067382812 1646.44726562 580.862304688 1680.68359375 485.415039062 c 0
 1736.66992188 326.946289062 1820.19238281 260 1933 260 c 2
 1961 260 l 1
 1961 220 l 1
 1961 40 l 1
 1961 0 l 1
 1933 0 l 2
 1791.99609375 0 1675.29882812 55.298828125 1584.54003906 155.653320312 c 1
 1481.33203125 46.4423828125 1297.58691406 0 1030 0 c 2
 838 0 l 2
 354.462890625 0 58 169.377929688 58 524 c 0
 58 619.020507812 79.3525390625 710.384765625 115.2578125 793.8125 c 2
 130.302734375 828.768554688 l 1
 165.96484375 815.483398438 l 1
 318.96484375 758.483398438 l 1
 356.528320312 744.489257812 l 1
 342.453125 706.955078125 l 2
 323.043945312 655.196289062 313 601.823242188 313 549.090820312 c 0
 313.841796875 363.84375 463.890625 260 828 260 c 2
 1030 260 l 2
 1324.38867188 260 1426 326.796875 1426 413 c 0
 1426 463.506835938 1398.43261719 508.784179688 1333.63476562 569.825195312 c 4
 1228.28417969 668.21875 1137.83398438 737.674804688 1063.47070312 795.403320312 c 0
 982.470703125 858.28515625 935 930.200195312 935 1012 c 0
 935 1115.01464844 995 1191 1100.18164062 1230.21972656 c 2
 1804.75 1492.10644531 l 1
 1804.75 1235.77539062 l 1
 1208.28320312 1014.05664062 l 1
EndSplineSet
EndChar

StartChar: uniFB9F
Encoding: 64415 64415 115
GlifName: uniF_B_9F_
Width: 1528
VWidth: 2950
GlyphClass: 2
Flags: HW
AnchorPoint: "Anchor-10" 687.458 1404.61 basechar 0
AnchorPoint: "Anchor-7" 579.902 -762.086 basechar 0
LayerCount: 2
Fore
SplineSet
1137 140.067382812 m 0
 1137 255.817382812 1107.30566406 373.15625 1050.69238281 491.59765625 c 2
 1031.39160156 531.974609375 l 1
 1073.67480469 546.639648438 l 1
 1242.61328125 605.23046875 l 1
 1281.32226562 618.655273438 l 1
 1293.81445312 579.634765625 l 1
 1366.16699219 353.662109375 l 2
 1388.31835938 285.502929688 1418.90234375 260 1508 260 c 2
 1548 260 l 5
 1548 220 l 5
 1548 40 l 5
 1548 0 l 5
 1512 0 l 2
 1457.78320312 0 1411.50683594 8.251953125 1377.91503906 24.388671875 c 1
 1342.54785156 -330.1953125 1088.18457031 -520 721 -520 c 0
 288.412109375 -520 57.99609375 -309.053710938 57.99609375 96.2255859375 c 0
 57.99609375 242.159179688 89.4892578125 390.770507812 151.087890625 540.60546875 c 2
 166.267578125 577.528320312 l 1
 203.220703125 562.421875 l 1
 358.564453125 498.916015625 l 1
 394.758789062 484.119140625 l 1
 380.787109375 447.598632812 l 2
 333.658203125 324.404296875 310 209.993164062 310 101 c 0
 310 -148.662109375 438.451171875 -267 728 -267 c 0
 1006.20703125 -267 1136.05957031 -138.954101562 1137 140.067382812 c 0
EndSplineSet
EndChar

StartChar: uniFBE8
Encoding: 64488 64488 118
GlifName: uniF_B_E_8
Width: 672
VWidth: 2950
GlyphClass: 2
Flags: HW
AnchorPoint: "Anchor-10" 311.384 1391 basechar 0
AnchorPoint: "Anchor-7" 303.422 -185.625 basechar 0
LayerCount: 2
Fore
SplineSet
564 792 m 2
 596 684 614 562 614 460 c 0
 614 146 450 0 129 0 c 2
 -20 0 l 5
 -20 40 l 5
 -20 220 l 5
 -20 260 l 5
 129 260 l 2
 314 260 363 284 363 457 c 0
 363 530 349 640 327 732 c 2
 318 770 l 1
 356 780 l 1
 516 820 l 1
 553 829 l 1
 564 792 l 2
EndSplineSet
EndChar

StartChar: uniFBE9
Encoding: 64489 64489 119
GlifName: uniF_B_E_9
Width: 767
VWidth: 2950
GlyphClass: 2
Flags: HW
AnchorPoint: "Anchor-10" 315.665 1335.09 basechar 0
AnchorPoint: "Anchor-7" 380.537 -139.742 basechar 0
LayerCount: 2
Fore
SplineSet
763 0 m 2
 638.0625 0 548.092773438 39.3857421875 488.336914062 116.690429688 c 1
 404.633789062 36.064453125 279.036132812 0 129 0 c 2
 -20 0 l 1
 -20 40 l 1
 -20 220 l 1
 -20 260 l 1
 131 260 l 2
 321.25390625 260 362.157226562 292.228515625 363 427.125 c 0
 363 490.557617188 359.25390625 563.8515625 355.088867188 626.338867188 c 2
 352.5546875 664.349609375 l 1
 390.396484375 668.734375 l 1
 554.396484375 687.734375 l 1
 596.196289062 692.577148438 l 1
 598.916015625 650.5859375 l 1
 614.915039062 403.612304688 l 2
 621.78125 299.749023438 662.686523438 260 765 260 c 2
 787 260 l 5
 787 220 l 5
 787 40 l 5
 787 0 l 5
 763 0 l 2
EndSplineSet
EndChar

StartChar: uniFE73
Encoding: 65139 65139 127
GlifName: uniF_E_73
Width: 672
VWidth: 2950
GlyphClass: 2
Flags: HW
AnchorPoint: "Anchor-10" 342.943 1050.47 basechar 0
AnchorPoint: "Anchor-7" 416.943 -168.304 basechar 0
LayerCount: 2
Fore
SplineSet
338.336914062 464.018554688 m 2
 338.336914062 328.834960938 416.096679688 260.342773438 618.00390625 260.342773438 c 2
 684.674804688 260.342773438 l 1
 686.674804688 260.342773438 l 1
 696.674804688 260.342773438 l 5
 696.674804688 220.342773438 l 5
 696.674804688 218.342773438 l 5
 696.674804688 43.5537109375 l 5
 696.674804688 41.5537109375 l 5
 696.674804688 1.5537109375 l 5
 686.674804688 1.5537109375 l 1
 684.674804688 1.5537109375 l 1
 607.991210938 1.5537109375 l 2
 262.389648438 1.86328125 71.544921875 159.768554688 71.544921875 466.563476562 c 2
 71.544921875 486.69140625 l 1
 71.544921875 488.69140625 l 1
 71.544921875 528.69140625 l 1
 111.544921875 528.69140625 l 1
 113.544921875 528.69140625 l 1
 296.336914062 528.69140625 l 1
 298.336914062 528.69140625 l 1
 338.336914062 528.69140625 l 1
 338.336914062 488.69140625 l 1
 338.336914062 486.69140625 l 1
 338.336914062 464.018554688 l 2
EndSplineSet
EndChar

StartChar: uniFE8E
Encoding: 65166 65166 153
GlifName: uniF_E_8E_
Width: 527
VWidth: 2950
GlyphClass: 2
Flags: HW
AnchorPoint: "Anchor-10" 230.697 1501.11 basechar 0
AnchorPoint: "Anchor-7" 292.078 -201.903 basechar 0
LayerCount: 2
Fore
SplineSet
522 0 m 2
 258.678710938 0 108 139 108 445 c 2
 108 1326 l 5
 108 1366 l 5
 148 1366 l 5
 317 1366 l 5
 357 1366 l 5
 357 1326 l 5
 357 444 l 2
 357 293 407.83984375 260 522 260 c 2
 547 260 l 1
 547 220 l 1
 547 40 l 1
 547 0 l 1
 522 0 l 2
EndSplineSet
EndChar

StartChar: uniFEA2
Encoding: 65186 65186 173
GlifName: uniF_E_A_2
Width: 1378
VWidth: 2950
GlyphClass: 2
Flags: HW
AnchorPoint: "Anchor-7" 690.833 -790.619 basechar 0
AnchorPoint: "Anchor-10" 601.478 1216.07 basechar 0
LayerCount: 2
Fore
SplineSet
784 -677 m 0
 370.944335938 -677 59 -501.993164062 59 -111 c 0
 59 206.407226562 293.052734375 472.194335938 709.40234375 598.16015625 c 1
 585.869140625 647.580078125 506.017578125 676 477 676 c 0
 418.35546875 676 351.596679688 634.939453125 307.715820312 577.625976562 c 2
 280.670898438 542.567382812 l 1
 260.615234375 516.568359375 l 1
 231.206054688 531.17578125 l 1
 80.2060546875 606.17578125 l 1
 42.078125 625.11328125 l 1
 63.3525390625 661.989257812 l 1
 78.6201171875 688.452148438 l 1
 168.51171875 835.061523438 310.080078125 934 478 934 c 0
 574.026367188 934 679.11328125 891.638671875 798.469726562 833.983398438 c 0
 1004.41210938 733.5 1124.06152344 693.477539062 1230.08398438 687.9453125 c 2
 1270.75292969 685.82421875 l 1
 1267.90234375 645.200195312 l 2
 1263.8671875 587.69921875 1258.8671875 531.69921875 1254.90234375 475.200195312 c 2
 1252.46972656 440.540039062 l 1
 1217.80957031 438.098632812 l 2
 1161.92285156 434.163085938 1109.83203125 428.180664062 1061.37890625 422.025390625 c 1
 1071.94628906 289.419921875 1127.21289062 260 1300 260 c 2
 1398 260 l 5
 1398 220 l 5
 1398 40 l 5
 1398 0 l 5
 1303 0 l 2
 1014.60839844 0 849.811523438 97.87890625 831.72265625 374.018554688 c 1
 468.95703125 261.208984375 305 77.2646484375 305 -95 c 0
 305 -313.041992188 451.592773438 -426 798 -426 c 0
 955.787109375 -426 1085.06347656 -384.377929688 1220 -324 c 1
 1230.23730469 -373.719726562 l 1
 1265.23730469 -543.719726562 l 1
 1271.55078125 -574.38671875 l 1
 1123.92480469 -640.895507812 981.938476562 -677 784 -677 c 0
EndSplineSet
EndChar

StartChar: uniFEA3
Encoding: 65187 65187 174
GlifName: uniF_E_A_3
Width: 1334
VWidth: 2950
GlyphClass: 2
Flags: HW
AnchorPoint: "Anchor-10" 591.825 1170.07 basechar 0
AnchorPoint: "Anchor-7" 553.524 -196.745 basechar 0
LayerCount: 2
Fore
SplineSet
-20 40 m 5
 -20 220 l 5
 -20 260 l 5
 143 260 l 2
 391.009765625 260 568.370117188 345.333984375 851.521484375 491.4765625 c 2
 853.311523438 492.416992188 l 1
 827.602539062 503.373046875 795.158203125 516.981445312 748.000976562 535.918945312 c 0
 612.895507812 590.961914062 526.169921875 622 495 622 c 0
 436.35546875 622 369.596679688 580.939453125 325.715820312 523.625976562 c 2
 298.670898438 488.567382812 l 1
 278.615234375 462.568359375 l 1
 249.206054688 477.17578125 l 1
 98.2060546875 552.17578125 l 1
 60.078125 571.11328125 l 1
 81.3525390625 607.989257812 l 1
 96.6201171875 634.452148438 l 1
 186.51171875 781.061523438 328.080078125 880 496 880 c 0
 592.026367188 880 697.11328125 837.638671875 816.469726562 779.983398438 c 0
 1022.41210938 679.5 1142.06152344 639.477539062 1248.08398438 633.9453125 c 2
 1286.44921875 631.944335938 l 1
 1285.99707031 593.529296875 l 1
 1283.99707031 423.529296875 l 1
 1283.58105469 388.151367188 l 1
 1248.41699219 384.245117188 l 2
 1178.33496094 376.458007812 1083.51757812 336.543945312 879.6875 228.633789062 c 0
 635.100585938 99.638671875 420.471679688 0 140 0 c 2
 -20 0 l 5
 -20 40 l 5
EndSplineSet
Position2: "Single Positioning lookup 2 subtable" dx=0 dy=0 dh=-178 dv=0
Position2: "Single Positioning lookup 1 subtable" dx=0 dy=0 dh=-173 dv=0
EndChar

StartChar: uniFEA4
Encoding: 65188 65188 175
GlifName: uniF_E_A_4
Width: 1351
VWidth: 2950
GlyphClass: 2
Flags: HW
AnchorPoint: "Anchor-10" 591.825 1170.07 basechar 0
AnchorPoint: "Anchor-7" 553.524 -196.745 basechar 0
LayerCount: 2
Fore
SplineSet
1248.41699219 384.245117188 m 2
 1204.12402344 379.323242188 1151.51757812 367.737304688 1085.83789062 339.130859375 c 1
 1098.93945312 293.985351562 1156.08496094 260 1317 260 c 2
 1371 260 l 1
 1371 220 l 1
 1371 40 l 1
 1371 0 l 1
 1313 0 l 2
 1087.07617188 0 931.19140625 64.2998046875 884.27734375 232.115234375 c 1
 646.684570312 105.727539062 404.657226562 0 140 0 c 2
 -20 0 l 5
 -20 40 l 5
 -20 220 l 5
 -20 260 l 5
 143 260 l 2
 391.009765625 260 568.370117188 345.333984375 851.521484375 491.4765625 c 2
 853.311523438 492.416992188 l 1
 827.602539062 503.373046875 795.158203125 516.981445312 748.000976562 535.918945312 c 0
 612.895507812 590.961914062 526.169921875 622 495 622 c 0
 436.35546875 622 369.596679688 580.939453125 325.715820312 523.625976562 c 2
 298.670898438 488.567382812 l 1
 278.615234375 462.568359375 l 1
 249.206054688 477.17578125 l 1
 98.2060546875 552.17578125 l 1
 60.078125 571.11328125 l 1
 81.3525390625 607.989257812 l 1
 96.6201171875 634.452148438 l 1
 186.51171875 781.061523438 328.080078125 880 496 880 c 0
 592.026367188 880 697.11328125 837.638671875 816.469726562 779.983398438 c 0
 1022.41210938 679.5 1142.06152344 639.477539062 1248.08398438 633.9453125 c 2
 1286.44921875 631.944335938 l 1
 1285.99707031 593.529296875 l 1
 1283.99707031 423.529296875 l 1
 1283.58105469 388.151367188 l 1
 1248.41699219 384.245117188 l 2
EndSplineSet
EndChar

StartChar: uniFEAA
Encoding: 65194 65194 181
GlifName: uniF_E_A_A_
Width: 1055
VWidth: 2950
GlyphClass: 2
Flags: HW
AnchorPoint: "Anchor-7" 401.24 -201.316 basechar 0
AnchorPoint: "Anchor-10" 506.848 1193.53 basechar 0
LayerCount: 2
Fore
SplineSet
107.517578125 288.2890625 m 2
 184.717773438 269.376953125 244.311523438 261 307 261 c 0
 540.267578125 261 614.006835938 316.311523438 614.006835938 386.581054688 c 0
 614.006835938 402.502929688 587.096679688 487.974609375 526.041015625 631.104492188 c 2
 405.802734375 913.318359375 l 1
 390.5703125 949.0703125 l 1
 425.8671875 965.328125 l 1
 587.181640625 1039.62988281 l 1
 625.697265625 1057.37011719 l 1
 641.161132812 1017.88574219 l 1
 849.241210938 486.596679688 l 2
 926.90625 288.451171875 978.483398438 260 1033 260 c 2
 1075 260 l 5
 1075 220 l 5
 1075 40 l 5
 1075 0 l 5
 1033 -0 l 2
 922.12890625 -0 831.743164062 50.9013671875 765.69921875 138.864257812 c 1
 664.014648438 45.0341796875 517.748046875 1 322 1 c 0
 228.126953125 1 155.234375 10.6337890625 88.630859375 26.6796875 c 2
 58 34.0595703125 l 1
 58 65.5673828125 l 1
 58 249.4375 l 1
 58 300.418945312 l 1
 107.517578125 288.2890625 l 2
EndSplineSet
EndChar

StartChar: uniFEAE
Encoding: 65198 65198 185
GlifName: uniF_E_A_E_
Width: 860
VWidth: 2142
GlyphClass: 2
Flags: HW
AnchorPoint: "Anchor-7" 322.969 -599.998 basechar 0
AnchorPoint: "Anchor-10" 493.256 888.2 basechar 0
LayerCount: 2
Fore
SplineSet
475 170.1484375 m 4
 475 253.564453125 450.165039062 377.6015625 400.885742188 493.1484375 c 6
 384.284179688 532.07421875 l 5
 424.08203125 546.458984375 l 5
 586.130859375 605.03125 l 5
 625.186523438 619.1484375 l 5
 637.829101562 579.58984375 l 5
 699.1875 387.594726562 l 6
 729.590820312 292.702148438 768.494140625 260 841 260 c 6
 880 260 l 5
 880 220 l 5
 880 40 l 5
 880 0 l 5
 852 0 l 6
 789.459960938 0 743.739257812 6.7119140625 708.290039062 22.4052734375 c 5
 658.087890625 -268.8046875 430.530273438 -457.521484375 57.583984375 -527.041992188 c 6
 25.091796875 -533.099609375 l 5
 13.0185546875 -502.331054688 l 5
 -47.48828125 -348.135742188 l 5
 -65.1005859375 -303.25390625 l 5
 -17.7392578125 -294.231445312 l 6
 319.907226562 -229.904296875 473.162109375 -77.1015625 475 170.1484375 c 4
EndSplineSet
EndChar

StartChar: uniFEB2
Encoding: 65202 65202 189
GlifName: uniF_E_B_2
Width: 2553
GlyphClass: 2
Flags: HW
AnchorPoint: "Anchor-7" 710.902 -676.086 basechar 0
AnchorPoint: "Anchor-10" 1767.53 928.1 basechar 0
LayerCount: 2
Fore
SplineSet
1531 0 m 0
 1474 0 1422 10 1379 29 c 1
 1365 -136 1306 -269 1200 -363 c 0
 1081 -469 920 -520 721 -520 c 0
 289 -520 58 -309 58 96 c 0
 58 242 89 390 151 540 c 2
 166 577 l 1
 203 562 l 1
 358 499 l 1
 394 484 l 1
 380 448 l 2
 333 323 310 207 310 101 c 0
 310 -149 438 -267 728 -267 c 0
 1008 -267 1136 -139 1137 140 c 0
 1137 254 1109 371 1051 492 c 2
 1032 532 l 1
 1074 547 l 1
 1243 605 l 1
 1282 618 l 1
 1294 579 l 1
 1353 396 l 2
 1384 300 1433 261 1533 260 c 0
 1641 260 1678 307 1678 429 c 0
 1678 459 1675 518 1668 604 c 2
 1665 642 l 1
 1703 647 l 1
 1868 667 l 1
 1910 672 l 1
 1913 630 l 1
 1929 404 l 2
 1935 311 1972 260 2048 260 c 0
 2110 260 2147 296 2147 427 c 0
 2147 470 2144 536 2137 625 c 2
 2134 663 l 1
 2172 668 l 1
 2337 688 l 1
 2379 693 l 1
 2382 651 l 1
 2398 404 l 2
 2405 300 2447 260 2543 260 c 2
 2573 260 l 5
 2573 220 l 5
 2573 40 l 5
 2573 0 l 5
 2545 0 l 2
 2434 0 2339 32 2283 105 c 1
 2226 33 2149 0 2049 0 c 0
 1944 0 1858 38 1801 114 c 1
 1729 38 1638 0 1531 0 c 0
EndSplineSet
EndChar

StartChar: uniFEB3
Encoding: 65203 65203 190
GlifName: uniF_E_B_3
Width: 1562
GlyphClass: 2
Flags: HW
AnchorPoint: "Anchor-7" 762.902 -200.086 basechar 0
AnchorPoint: "Anchor-10" 847.53 968.1 basechar 0
LayerCount: 2
Fore
SplineSet
1153 260 m 0
 1211 260 1252 300 1252 442 c 0
 1252 507 1237 592 1209 695 c 2
 1199 734 l 1
 1238 745 l 1
 1406 790 l 1
 1443 800 l 1
 1454 763 l 2
 1487 658 1504 556 1504 457 c 0
 1504 222 1415 1 1154 0 c 0
 1049 0 963 38 906 114 c 1
 834 38 743 0 636 0 c 0
 519 0 426 36 368 111 c 1
 295 33 187 0 49 0 c 2
 -20 0 l 5
 -20 40 l 5
 -20 220 l 5
 -20 260 l 5
 51 260 l 2
 202 260 253 295 253 429 c 0
 253 461 250 520 243 604 c 2
 240 642 l 1
 278 647 l 1
 443 667 l 1
 485 672 l 1
 488 630 l 1
 504 404 l 2
 511 311 553 260 638 260 c 0
 746 260 783 307 783 429 c 0
 783 459 780 518 773 604 c 2
 770 642 l 1
 808 647 l 1
 973 667 l 1
 1015 672 l 1
 1018 630 l 1
 1034 404 l 2
 1040 311 1077 260 1153 260 c 0
EndSplineSet
Position2: "Single Positioning lookup 2 subtable" dx=0 dy=0 dh=-178 dv=0
Position2: "Single Positioning lookup 1 subtable" dx=0 dy=0 dh=-173 dv=0
EndChar

StartChar: uniFEB4
Encoding: 65204 65204 191
GlifName: uniF_E_B_4
Width: 1658
GlyphClass: 2
Flags: HW
AnchorPoint: "Anchor-10" 847.53 968.1 basechar 0
AnchorPoint: "Anchor-7" 762.902 -200.086 basechar 0
LayerCount: 2
Fore
SplineSet
368 111 m 1
 296 33 187 0 49 0 c 2
 -20 0 l 1
 -20 40 l 1
 -20 220 l 1
 -20 260 l 1
 51 260 l 2
 202 260 253 295 253 429 c 0
 253 461 250 520 243 604 c 2
 240 642 l 1
 280 647 l 1
 443 667 l 1
 485 672 l 1
 488 630 l 1
 504 404 l 2
 511 311 552 260 638 260 c 0
 746 260 783 307 783 429 c 0
 783 459 780 518 773 604 c 2
 770 642 l 1
 809 647 l 1
 973 667 l 1
 1015 672 l 1
 1018 630 l 1
 1034 404 l 2
 1040 311 1077 260 1153 260 c 0
 1215 260 1252 296 1252 427 c 0
 1252 470 1249 536 1242 625 c 2
 1239 663 l 1
 1277 668 l 1
 1442 688 l 1
 1484 693 l 1
 1487 651 l 1
 1503 404 l 2
 1510 300 1552 260 1648 260 c 2
 1678 260 l 5
 1678 220 l 5
 1678 40 l 5
 1678 0 l 5
 1650 0 l 2
 1539 0 1444 32 1388 105 c 1
 1331 33 1254 0 1154 0 c 0
 1049 0 963 38 906 114 c 1
 834 38 743 0 636 0 c 0
 519 1 425 36 368 111 c 1
EndSplineSet
EndChar

StartChar: uniFEBA
Encoding: 65210 65210 197
GlifName: uniF_E_B_A_
Width: 2610
VWidth: 2990
GlyphClass: 2
Flags: HW
AnchorPoint: "Anchor-10" 2052.53 1168.1 basechar 0
AnchorPoint: "Anchor-7" 710.902 -676.086 basechar 0
LayerCount: 2
Fore
SplineSet
1752.86523438 261 m 2
 2121.66699219 261 2259 340.8046875 2259 453 c 0
 2259 540.817382812 2198.66113281 605 2104 605 c 0
 1986.11621094 605 1840.85253906 494.591796875 1679.90234375 260.506835938 c 1
 1752.86523438 261 l 2
1137 140.067382812 m 0
 1137 256.118164062 1107.79785156 373.154296875 1050.93457031 491.700195312 c 2
 1031.48925781 532.239257812 l 1
 1074.015625 546.833984375 l 1
 1243.015625 604.833984375 l 1
 1281.56445312 618.063476562 l 1
 1294.0703125 579.274414062 l 1
 1353.1171875 396.127929688 l 2
 1369.48242188 344.00390625 1388.00976562 313.125 1402.64941406 299.502929688 c 1
 1626.34375 667.530273438 1853.83789062 867 2096 867 c 0
 2341.11132812 867 2517 694.311523438 2517 462 c 0
 2517 391.399414062 2493.82714844 322.018554688 2462.37109375 265.322265625 c 1
 2496.08398438 261.993164062 2539.27929688 260 2600 260 c 2
 2630 260 l 5
 2630 220 l 5
 2630 40 l 5
 2630 0 l 5
 2601 0 l 2
 2449.28417969 0 2335.25585938 30.4462890625 2255.03808594 85.9462890625 c 1
 2138.72167969 29.931640625 1971.01464844 0 1757 0 c 2
 1706 0 l 2
 1567.42773438 0 1460.59960938 13.1005859375 1379.50878906 39.25 c 1
 1351.484375 -332.780273438 1092.46289062 -520 721 -520 c 0
 288.607421875 -520 58 -309.212890625 58 96 c 0
 58 241.758789062 89.298828125 390.05859375 151.001953125 540.204101562 c 2
 166.1484375 577.059570312 l 1
 203.061523438 562.055664062 l 1
 358.061523438 499.055664062 l 1
 394.213867188 484.362304688 l 1
 380.416992188 447.858398438 l 2
 333.69921875 324.250976562 310 210.14453125 310 101 c 0
 310 -148.56640625 438.224609375 -267 728 -267 c 0
 1006.27636719 -267 1136.06347656 -139.001953125 1137 140.067382812 c 0
EndSplineSet
EndChar

StartChar: uniFEBB
Encoding: 65211 65211 198
GlifName: uniF_E_B_B_
Width: 1654
VWidth: 2950
GlyphClass: 2
Flags: HW
AnchorPoint: "Anchor-10" 1112.53 1168.1 basechar 0
AnchorPoint: "Anchor-7" 679.209 -202.348 basechar 0
LayerCount: 2
Fore
SplineSet
831.865234375 261 m 2
 1200.66699219 261 1338 340.8046875 1338 453 c 0
 1338 540.817382812 1277.66113281 605 1183 605 c 0
 1065.11621094 605 919.852539062 494.591796875 758.90234375 260.506835938 c 1
 831.865234375 261 l 2
484.233398438 303.6640625 m 1
 707.487304688 668.6015625 933.684570312 867 1175 867 c 0
 1420.11132812 867 1596 694.370117188 1596 461.928710938 c 0
 1594.87597656 146.055664062 1318.69140625 0 836 0 c 2
 785 0 l 2
 563.506835938 0 412.5 36.3955078125 327.659179688 123.133789062 c 1
 254.278320312 41.4765625 163.276367188 0 20 0 c 2
 -20.22265625 0 l 5
 -19.9990234375 40.22265625 l 5
 -18.9990234375 220.22265625 l 5
 -18.7783203125 260 l 5
 20 260 l 2
 179.790039062 260 203 301.040039062 203 428 c 0
 203 485.953125 198.065429688 564.69140625 195.047851562 626.03515625 c 2
 193.220703125 663.201171875 l 1
 230.158203125 667.706054688 l 1
 394.158203125 687.706054688 l 1
 435.841796875 692.7890625 l 1
 438.89453125 650.907226562 l 1
 456.88671875 404.004882812 l 2
 461.017578125 350.899414062 472.715820312 318.4453125 484.233398438 303.6640625 c 1
EndSplineSet
Position2: "Single Positioning lookup 2 subtable" dx=0 dy=0 dh=-178 dv=0
Position2: "Single Positioning lookup 1 subtable" dx=0 dy=0 dh=-173 dv=0
EndChar

StartChar: uniFEBC
Encoding: 65212 65212 199
GlifName: uniF_E_B_C_
Width: 1689
VWidth: 2990
GlyphClass: 2
Flags: HW
AnchorPoint: "Anchor-10" 1112.53 1168.1 basechar 0
AnchorPoint: "Anchor-7" 679.209 -202.348 basechar 0
LayerCount: 2
Fore
SplineSet
831.865234375 261 m 2
 1200.66699219 261 1338 340.8046875 1338 453 c 0
 1338 540.817382812 1277.66113281 605 1183 605 c 0
 1065.11621094 605 919.852539062 494.591796875 758.90234375 260.506835938 c 1
 831.865234375 261 l 2
484.252929688 303.639648438 m 1
 708.563476562 669.671875 934.733398438 867 1176 867 c 0
 1422.4296875 867 1596 692.884765625 1596 460 c 0
 1596 389.704101562 1572.55078125 322.189453125 1540.85839844 264.987304688 c 1
 1574.31933594 261.935546875 1620.53613281 260 1679 260 c 2
 1709 260 l 5
 1709 220 l 5
 1709 40 l 5
 1709 0 l 5
 1679 0 l 2
 1527.30859375 0 1414.08398438 30.4638671875 1334.02539062 85.9404296875 c 1
 1217.73535156 29.9384765625 1050.0078125 0 836 0 c 2
 785 0 l 2
 565.517578125 0 414.524414062 36.4296875 328.000976562 123.517578125 c 1
 255.126953125 42.0869140625 163.609375 0 20 0 c 2
 -20 0 l 1
 -20 40 l 1
 -20 220 l 1
 -20 260 l 1
 19 260 l 2
 179.821289062 260 203 302.205078125 203 427 c 0
 203 487 198.067382812 564.6484375 195.047851562 626.03515625 c 2
 193.220703125 663.201171875 l 1
 230.158203125 667.706054688 l 1
 394.158203125 687.706054688 l 1
 435.841796875 692.7890625 l 1
 438.89453125 650.907226562 l 1
 456.88671875 404.004882812 l 2
 461.018554688 350.88671875 472.694335938 318.47265625 484.252929688 303.639648438 c 1
EndSplineSet
EndChar

StartChar: uniFEC2
Encoding: 65218 65218 205
GlifName: uniF_E_C_2
Width: 1510
VWidth: 2990
GlyphClass: 2
Flags: HW
AnchorPoint: "Anchor-7" 636.602 -198.453 basechar 0
AnchorPoint: "Anchor-10" 470.36 1496.78 basechar 0
LayerCount: 2
Fore
SplineSet
648.865234375 262 m 2
 1017.66699219 262 1155 341.8046875 1155 454 c 0
 1155 542.102539062 1095.46484375 606 1001 606 c 0
 883.071289062 606 736.852539062 495.393554688 575.919921875 261.506835938 c 1
 648.865234375 262 l 2
1356.55273438 264.102539062 m 1
 1390.76464844 261.514648438 1438.96777344 260 1500 260 c 2
 1530 260 l 1
 1530 220 l 1
 1530 40 l 1
 1530 0 l 1
 1501 0 l 2
 1335.29785156 0 1230.5625 33.470703125 1156.46777344 85.3701171875 c 1
 1040.89257812 33.046875 860.388671875 0 653 0 c 2
 98 0 l 1
 58 0 l 1
 58 40 l 1
 58 220 l 1
 58 260 l 1
 98 260 l 1
 297.786132812 260 l 1
 316.559570312 289.848632812 336.299804688 320.103515625 353 347.2421875 c 1
 353 1326 l 5
 353 1366 l 5
 393 1366 l 5
 562 1366 l 5
 602 1366 l 5
 602 1326 l 5
 602 681.353515625 l 1
 719.541015625 800.620117188 848.66015625 867 992 867 c 0
 1236.19042969 867 1412 694.263671875 1412 462 c 0
 1412 393.517578125 1388.5625 323.620117188 1356.55273438 264.102539062 c 1
EndSplineSet
EndChar

StartChar: uniFEC3
Encoding: 65219 65219 206
GlifName: uniF_E_C_3
Width: 1293
VWidth: 2950
GlyphClass: 2
Flags: HW
AnchorPoint: "Anchor-7" 481.602 -198.453 basechar 0
AnchorPoint: "Anchor-10" 292.36 1495.78 basechar 0
LayerCount: 2
Fore
SplineSet
470.865234375 262 m 2
 839.666992188 262 977 341.8046875 977 454 c 0
 977 541.817382812 916.661132812 606 822 606 c 0
 704.116210938 606 558.852539062 495.591796875 397.90234375 261.506835938 c 1
 470.865234375 262 l 2
424 680.260742188 m 1
 544.00390625 800.489257812 675.206054688 867 819 867 c 0
 1060.8203125 867 1235 690.916992188 1235 462 c 0
 1235 146.176757812 959.654296875 0 476 0 c 2
 -20 0 l 1
 -20 40 l 1
 -20 220 l 1
 -20 260 l 1
 118.235351562 260 l 1
 138.169921875 290.565429688 157.739257812 319.673828125 175 346.640625 c 1
 175 1326 l 5
 175 1366 l 5
 215 1366 l 5
 384 1366 l 5
 424 1366 l 5
 424 1326 l 5
 424 680.260742188 l 1
EndSplineSet
Position2: "Single Positioning lookup 2 subtable" dx=0 dy=0 dh=-178 dv=0
Position2: "Single Positioning lookup 1 subtable" dx=0 dy=0 dh=-173 dv=0
EndChar

StartChar: uniFEC4
Encoding: 65220 65220 207
GlifName: uniF_E_C_4
Width: 1332
VWidth: 2990
GlyphClass: 2
Flags: HW
AnchorPoint: "Anchor-10" 289.36 1493.78 basechar 0
AnchorPoint: "Anchor-7" 481.602 -198.453 basechar 0
LayerCount: 2
Fore
SplineSet
470.865234375 262 m 2
 839.666992188 262 977 341.8046875 977 454 c 0
 977 541.817382812 916.661132812 606 822 606 c 0
 704.116210938 606 558.852539062 495.591796875 397.90234375 261.506835938 c 1
 470.865234375 262 l 2
1178.66503906 264.065429688 m 1
 1213.82128906 261.438476562 1260.71484375 260 1322 260 c 2
 1352 260 l 1
 1352 220 l 1
 1352 40 l 1
 1352 0 l 1
 1321 0 l 2
 1155.1953125 0 1051.79980469 34.576171875 978.436523438 86.337890625 c 1
 863.224609375 34.0166015625 683.455078125 0 476 0 c 2
 -20 0 l 1
 -20 40 l 1
 -20 220 l 1
 -20 260 l 1
 119.720703125 260 l 1
 139.01953125 290.9765625 157.483398438 319.913085938 175 347.5859375 c 1
 175 1326 l 5
 175 1366 l 5
 215 1366 l 5
 384 1366 l 5
 424 1366 l 5
 424 1326 l 5
 424 679.995117188 l 1
 543.758789062 800.052734375 673.555664062 867 816 867 c 0
 1058.43945312 867 1235 692.271484375 1235 462 c 0
 1235 393.296875 1210.78417969 323.256835938 1178.66503906 264.065429688 c 1
EndSplineSet
EndChar

StartChar: uniFECA
Encoding: 65226 65226 213
GlifName: uniF_E_C_A_
Width: 1199
VWidth: 2990
GlyphClass: 2
Flags: HW
AnchorPoint: "Anchor-7" 610.833 -790.619 basechar 0
AnchorPoint: "Anchor-10" 574.833 1206.24 basechar 0
LayerCount: 2
Fore
SplineSet
689 -663 m 0
 335.485351562 -663 58 -495.546875 58 -158 c 0
 58 54.1767578125 186.298828125 224.734375 371.908203125 355.610351562 c 1
 220.184570312 453.614257812 128 555.247070312 128 669 c 0
 128 869.568359375 418.932617188 926 616 926 c 0
 816.030273438 926 1094 881.725585938 1094 673 c 0
 1094 564.517578125 991.646484375 458.5625 823.434570312 345.54296875 c 1
 922.14453125 288.561523438 1018.50292969 260 1159 260 c 2
 1219 260 l 1
 1219 220 l 1
 1219 40 l 1
 1219 0 l 1
 1159 0 l 2
 962.458984375 0 790.530273438 71.51171875 599.977539062 201.752929688 c 1
 411.944335938 91.9443359375 305 -28.6083984375 305 -158 c 0
 305 -303.380248765 428.550553431 -412.004714527 693.719212923 -412.004714527 c 0
 814.457105402 -412.004714527 925.610505709 -380.854098303 1040.77636719 -333.200195312 c 1
 1050.53515625 -380.596679688 l 1
 1085.53515625 -550.596679688 l 1
 1092 -582 l 1
 968.91015625 -637.3359375 853.878128071 -663 689 -663 c 0
603.88671875 502.647460938 m 1
 726.963867188 571.112304688 806.145507812 624.91015625 831.819335938 652.737304688 c 1
 801.311523438 664 725.940429688 672 615 672 c 0
 491.6875 672 414.772460938 658.185546875 393.700195312 645.399414062 c 1
 411.463867188 621.15234375 485.7578125 567.756835938 603.88671875 502.647460938 c 1
EndSplineSet
EndChar

StartChar: uniFECB
Encoding: 65227 65227 214
GlifName: uniF_E_C_B_
Width: 1057
VWidth: 2950
GlyphClass: 2
Flags: HW
AnchorPoint: "Anchor-10" 550.493 1227.05 basechar 0
AnchorPoint: "Anchor-7" 484.511 -197.021 basechar 0
LayerCount: 2
Fore
SplineSet
970.889648438 148.807617188 m 2
 649.80078125 48.845703125 354.841796875 0 85 0 c 2
 -20 0 l 5
 -20 40 l 5
 -20 220 l 5
 -20 260 l 5
 198.483398438 260 l 1
 159.545898438 320.59375 131 390.791015625 131 486 c 0
 131 734.979492188 306.436523438 949 585 949 c 0
 735.125 949 859.00390625 898.646484375 956.440429688 800.127929688 c 2
 975.721679688 780.631835938 l 1
 964.491210938 755.616210938 l 1
 898.491210938 608.616210938 l 1
 877.2421875 561.290039062 l 1
 836.875 593.875 l 2
 758.278320312 657.321289062 687.069335938 685.939453125 616.747070312 687.000976562 c 0
 474.37890625 686.59375 381 592.883789062 381 480 c 0
 381 451.720703125 394.501953125 354.377929688 511.125 302.158203125 c 0
 515.337890625 300.052734375 520.58203125 298.471679688 522.9296875 298.217773438 c 2
 949.212890625 405.784179688 l 1
 999 418.34765625 l 1
 999 367 l 1
 999 187 l 1
 999 157.559570312 l 1
 970.889648438 148.807617188 l 2
EndSplineSet
Position2: "Single Positioning lookup 2 subtable" dx=0 dy=0 dh=-178 dv=0
Position2: "Single Positioning lookup 1 subtable" dx=0 dy=0 dh=-173 dv=0
EndChar

StartChar: uniFEDA
Encoding: 65242 65242 229
GlifName: uniF_E_D_A_
Width: 1891
VWidth: 2950
GlyphClass: 2
Flags: HW
AnchorPoint: "Anchor-10" 916.11 1280.05 basechar 0
AnchorPoint: "Anchor-7" 900.268 -186.468 basechar 0
LayerCount: 2
Fore
SplineSet
709.122070312 637.936523438 m 6
 771.411132812 630.904296875 794.72265625 627 839 627 c 4
 942.766601562 627 1015 628.559570312 1015 700 c 4
 1015 752.848632812 990.133789062 757.701171875 921.956054688 758 c 4
 828.858398438 758.409179688 743 808.408203125 743 949 c 4
 743 1064.41503906 817.897460938 1150.578125 972.252929688 1150.578125 c 4
 1005.65820312 1150.578125 1042.77050781 1147.09863281 1083.74316406 1139.84667969 c 6
 1092 1138.38574219 l 5
 1092 1130 l 5
 1092 1035 l 5
 1092 1023.5078125 l 5
 1080.61816406 1025.09570312 l 6
 1040.1953125 1030.73632812 1005.70019531 1033.39941406 976.748046875 1033.39941406 c 4
 883.76171875 1033.39941406 852 997.62109375 852 958 c 4
 852 910.715820312 870.310546875 882.375 940.053710938 882 c 4
 1072.04199219 881.2890625 1123 826.350585938 1123 704 c 4
 1123 553.578125 1030.08886719 509 846 509 c 4
 793.200195312 509 772.049804688 514.181640625 706.501953125 524.11328125 c 6
 698 525.401367188 l 5
 698 534 l 5
 698 628 l 5
 698 639.192382812 l 5
 709.122070312 637.936523438 l 6
978 260 m 2
 1450.11230469 260 1474 348 1474 510 c 6
 1474 1326 l 5
 1474 1366 l 5
 1514 1366 l 5
 1683 1366 l 5
 1723 1366 l 5
 1723 1326 l 5
 1723 512 l 6
 1723 317 1737.21191406 260 1876 260 c 6
 1911 260 l 5
 1911 220 l 5
 1911 40 l 5
 1911 0 l 5
 1878 0 l 6
 1713.40625 0 1617.50585938 48.1240234375 1567.66503906 149.317382812 c 5
 1429.69238281 29.6337890625 1291.88964844 0 985 0 c 2
 840 0 l 2
 355.549804688 0 58 169.282226562 58 524 c 0
 58 619.020507812 79.3525390625 710.384765625 115.2578125 793.8125 c 2
 130.302734375 828.768554688 l 1
 165.96484375 815.483398438 l 1
 318.96484375 758.483398438 l 1
 356.528320312 744.489257812 l 1
 342.453125 706.955078125 l 2
 323.043945312 655.196289062 313 601.823242188 313 549.090820312 c 0
 313.841796875 363.971679688 464.77734375 260 830 260 c 2
 978 260 l 2
EndSplineSet
EndChar

StartChar: uniFEDB
Encoding: 65243 65243 230
GlifName: uniF_E_D_B_
Width: 950
VWidth: 2950
GlyphClass: 2
Flags: HW
AnchorPoint: "Anchor-7" 310.991 -193.935 basechar 0
AnchorPoint: "Anchor-10" 277.533 1437.33 basechar 0
LayerCount: 2
Fore
SplineSet
293.033203125 1014.28125 m 1
 440.548828125 888.447265625 554.512695312 794.557617188 629.328125 714.201171875 c 4
 720.012695312 616.047851562 766 515.649414062 766 396 c 0
 766 124.870117188 564.241210938 0 166 0 c 2
 -20 0 l 1
 -20 40 l 1
 -20 220 l 1
 -20 260 l 1
 165 260 l 2
 441.239257812 260 511 321.44921875 511 413 c 0
 511 463.5 483.415039062 508.80078125 418.655273438 569.806640625 c 4
 317.408203125 664.104492188 226.713867188 733.786132812 148.361328125 795.48828125 c 0
 67.5732421875 858.206054688 20 930.231445312 20 1012 c 0
 20 1115.01464844 81.064453125 1191.83691406 184.931640625 1230.44433594 c 2
 889.5 1492.33105469 l 1
 889.5 1236 l 1
 293.033203125 1014.28125 l 1
EndSplineSet
Position2: "Single Positioning lookup 2 subtable" dx=0 dy=0 dh=-226 dv=0
Position2: "Single Positioning lookup 1 subtable" dx=0 dy=0 dh=-219 dv=0
Position2: "Single Positioning lookup 0 subtable" dx=0 dy=0 dh=180 dv=0
EndChar

StartChar: uniFEDC
Encoding: 65244 65244 231
GlifName: uniF_E_D_C_
Width: 1027
VWidth: 2950
GlyphClass: 2
Flags: HW
AnchorPoint: "Anchor-10" 277.533 1437.33 basechar 0
AnchorPoint: "Anchor-7" 310.991 -193.935 basechar 0
LayerCount: 2
Fore
SplineSet
293.033203125 1014.28125 m 1
 439.51171875 888.478515625 554.581054688 794.485351562 629.275390625 714.256835938 c 4
 688.122070312 651.051757812 732.452148438 579.916992188 765.725585938 485.296875 c 0
 821.633789062 327.046875 905.205078125 260 1018 260 c 2
 1047 260 l 1
 1047 220 l 1
 1047 40 l 1
 1047 0 l 1
 1018 0 l 2
 876.684570312 0 759.600585938 55.298828125 670.154296875 154.642578125 c 1
 575.099609375 47.22265625 420.62890625 0 166 0 c 2
 -20 0 l 1
 -20 40 l 1
 -20 220 l 1
 -20 260 l 1
 165 260 l 2
 441.239257812 260 511 321.44921875 511 413 c 0
 511 463.5 483.415039062 508.80078125 418.655273438 569.806640625 c 4
 317.408203125 664.104492188 226.713867188 733.786132812 148.361328125 795.48828125 c 0
 67.5732421875 858.206054688 20 930.231445312 20 1012 c 0
 20 1115.01464844 80 1192 184.931640625 1230.44433594 c 2
 889.5 1492.33105469 l 1
 889.5 1236 l 1
 293.033203125 1014.28125 l 1
EndSplineSet
EndChar

StartChar: uniFEDE
Encoding: 65246 65246 233
GlifName: uniF_E_D_E_
Width: 1439
VWidth: 2990
GlyphClass: 2
Flags: HW
AnchorPoint: "Anchor-7" 662.902 -668.086 basechar 0
AnchorPoint: "Anchor-10" 654.908 1045.66 basechar 0
LayerCount: 2
Fore
SplineSet
372.23046875 383.374023438 m 2
 329.3671875 274.26953125 309 185.6796875 309 76 c 0
 309 -158.313476562 422.0234375 -267 675 -267 c 0
 908.728515625 -267 1019 -152 1019 108.030273438 c 2
 1021 1324.03027344 l 5
 1021 1326 l 5
 1021 1366 l 5
 1061 1366 l 5
 1229 1366 l 5
 1269.04003906 1366 l 5
 1269 1325.95996094 l 5
 1268 432.979492188 l 2
 1268 304 1296.58105469 260 1428 260 c 2
 1459 260 l 1
 1459 220 l 1
 1459 40 l 1
 1459 0 l 1
 1430 0 l 2
 1357.30371094 0 1305.26367188 13.259765625 1264.42382812 37.8154296875 c 1
 1235.84765625 -320.265625 1036.87402344 -520 674 -520 c 0
 271.384765625 -520 58 -315.922851562 58 75 c 0
 58 216.493164062 86.642578125 339.915039062 143.036132812 476.286132812 c 2
 158.229492188 513.026367188 l 1
 195.061523438 498.055664062 l 1
 350.061523438 435.055664062 l 1
 386.685546875 420.169921875 l 1
 372.23046875 383.374023438 l 2
EndSplineSet
EndChar

StartChar: uniFEDF
Encoding: 65247 65247 234
GlifName: uniF_E_D_F_
Width: 608
VWidth: 2950
GlyphClass: 2
Flags: HW
AnchorPoint: "Anchor-10" 365.751 1500.65 basechar 0
AnchorPoint: "Anchor-7" 259.812 -198.234 basechar 0
LayerCount: 2
Fore
SplineSet
-20 40 m 1
 -20 220 l 1
 -20 260 l 1
 61 260 l 2
 220.958007812 260 251 310 251 443 c 2
 251 1326 l 5
 251 1366 l 5
 291 1366 l 5
 460 1366 l 5
 500 1366 l 5
 500 1326 l 5
 500 444 l 2
 500 163 376.186523438 0 60 0 c 2
 -20 0 l 1
 -20 40 l 1
EndSplineSet
Position2: "Single Positioning lookup 2 subtable" dx=0 dy=0 dh=-143 dv=0
Position2: "Single Positioning lookup 1 subtable" dx=0 dy=0 dh=-104 dv=0
Position2: "Single Positioning lookup 0 subtable" dx=0 dy=0 dh=130 dv=0
EndChar

StartChar: uniFEE0
Encoding: 65248 65248 235
GlifName: uniF_E_E_0
Width: 670
VWidth: 2950
GlyphClass: 2
Flags: HW
AnchorPoint: "Anchor-7" 259.812 -198.234 basechar 0
AnchorPoint: "Anchor-10" 364.751 1500.65 basechar 0
LayerCount: 2
Fore
SplineSet
368.392578125 119.059570312 m 1
 297.01171875 39.49609375 195.427734375 0 43 0 c 2
 -20 0 l 1
 -20 40 l 1
 -20 220 l 1
 -20 260 l 1
 45 260 l 2
 208.345703125 260 251 311 251 429.143554688 c 2
 251 1326 l 5
 251 1366 l 5
 291 1366 l 5
 460 1366 l 5
 500 1366 l 5
 500 1326 l 5
 500 429 l 2
 500 305 534.084960938 260 658 260 c 2
 690 260 l 1
 690 220 l 1
 690 40 l 1
 690 0 l 1
 660 0 l 2
 526.165039062 0 438.521484375 41.9306640625 368.392578125 119.059570312 c 1
EndSplineSet
EndChar

StartChar: uniFEE2
Encoding: 65250 65250 237
GlifName: uniF_E_E_2
Width: 1296
VWidth: 2620
GlyphClass: 2
Flags: HW
AnchorPoint: "Anchor-10" 763.952 1060.2 basechar 0
AnchorPoint: "Anchor-7" 714.983 -298.909 basechar 0
LayerCount: 2
Fore
SplineSet
72.0712890625 -617.388671875 m 6
 65.0458984375 -499.95703125 61 -399.030273438 61 -293 c 4
 61 40.857421875 93.7421875 336.170898438 355.802734375 403.401367188 c 1
 456.783203125 646.083984375 596.813476562 781 780 781 c 0
 1006.64160156 781 1123.35351562 616.958007812 1164.14160156 418.244140625 c 0
 1189.94921875 298.763671875 1234.08300781 260 1288 260 c 2
 1316 260 l 1
 1316 220 l 1
 1316 40 l 1
 1316 0 l 1
 1288 0 l 2
 1212.84082031 0 1141.57421875 23.7236328125 1086.85546875 77.77734375 c 1
 1028.37890625 6.6103515625 949.672851562 -23 846 -23 c 0
 758.256835938 -23 672.1875 7.4228515625 577.053710938 64.921875 c 0
 546.087890625 84.275390625 513.716796875 101.422851562 476.67578125 120.444335938 c 0
 451.87890625 133.270507812 430.147460938 137.905273438 419.201171875 138 c 0
 363.768554688 137.181640625 314 44.0341796875 314 -265 c 4
 314 -394.989257812 318.951171875 -505.744140625 327.859375 -611.647460938 c 6
 331.505859375 -655 l 5
 288 -655 l 5
 112 -655 l 5
 74.3212890625 -655 l 5
 72.0712890625 -617.388671875 l 6
607.0859375 349.688476562 m 1
 714.889648438 269.482421875 794.978515625 235.201171875 841.79296875 235 c 0
 901.32421875 235.995117188 924 257.801757812 924 335 c 0
 924 444.620117188 866.54296875 516 780 516 c 0
 714.229492188 516 656.145507812 469.454101562 607.0859375 349.688476562 c 1
EndSplineSet
EndChar

StartChar: uniFEE3
Encoding: 65251 65251 238
GlifName: uniF_E_E_3
Width: 1048
VWidth: 2950
GlyphClass: 2
Flags: HW
AnchorPoint: "Anchor-10" 583.952 1060.2 basechar 0
AnchorPoint: "Anchor-7" 514.594 -197.063 basechar 0
LayerCount: 2
Fore
SplineSet
433.954101562 354.650390625 m 1
 512.771484375 269.252929688 581.952148438 233 641 233 c 0
 717.643554688 233 743 259.372070312 743 332 c 0
 743 449.806640625 686.0625 515 601 515 c 0
 536.583984375 515 480.149414062 470.89453125 433.954101562 354.650390625 c 1
305.173828125 127.623046875 m 1
 224.010742188 46.0234375 129.939453125 0 23 0 c 2
 -20 0 l 5
 -20 40 l 5
 -20 220 l 5
 -20 260 l 5
 18 260 l 2
 108.434570312 260 168.264648438 354.646484375 219.572265625 467.5234375 c 0
 310.2109375 667.33984375 433.991210938 781 597 781 c 0
 837.626953125 781 990 575.311523438 990 347 c 0
 990 123.356445312 870.427734375 -22 655 -22 c 0
 524.084960938 -22 412.002929688 33.0576171875 305.173828125 127.623046875 c 1
EndSplineSet
Position2: "Single Positioning lookup 2 subtable" dx=0 dy=0 dh=-178 dv=0
Position2: "Single Positioning lookup 1 subtable" dx=0 dy=0 dh=-173 dv=0
EndChar

StartChar: uniFEE4
Encoding: 65252 65252 239
GlifName: uniF_E_E_4
Width: 1112
VWidth: 2950
GlyphClass: 2
Flags: HW
AnchorPoint: "Anchor-10" 583.952 1060.2 basechar 0
AnchorPoint: "Anchor-7" 534.594 -197.063 basechar 0
LayerCount: 2
Fore
SplineSet
433.9296875 354.485351562 m 1
 512.505859375 268.68359375 580.56640625 233 645 233 c 0
 721.2578125 233 746 259.114257812 746 328 c 0
 746 443.109375 685.025390625 515 597 515 c 0
 535.2734375 515 480.354492188 470.995117188 433.9296875 354.485351562 c 1
907.135742188 79.203125 m 1
 843.66796875 7.2958984375 760.963867188 -22 653 -22 c 0
 527.709960938 -22 410.74609375 31.9677734375 304.80859375 127.254882812 c 1
 222.970703125 45.2919921875 129.755859375 0 23 0 c 2
 -20 0 l 1
 -20 40 l 1
 -20 220 l 1
 -20 260 l 1
 18 260 l 2
 110.377929688 260 170.171875 356.375976562 219.490234375 467.341796875 c 0
 309.254882812 666.473632812 433.913085938 781 597 781 c 0
 824.28125 781 944.223632812 608.377929688 984.154296875 418.182617188 c 0
 1009.10546875 298.225585938 1053.50097656 260 1105 260 c 2
 1132 260 l 5
 1132 220 l 5
 1132 40 l 5
 1132 0 l 5
 1104 0 l 2
 1030.27636719 0 960.236328125 24.953125 907.135742188 79.203125 c 1
EndSplineSet
EndChar

StartChar: uniFEEA
Encoding: 65258 65258 245
GlifName: uniF_E_E_A_
Width: 1038
VWidth: 2990
GlyphClass: 2
Flags: HW
AnchorPoint: "Anchor-10" 662.464 1262.36 basechar 0
AnchorPoint: "Anchor-7" 469.642 -196.09 basechar 0
LayerCount: 2
Fore
SplineSet
58 452 m 0
 58 669.009765625 236.37890625 825.348632812 560.208007812 931.713867188 c 1
 558.475585938 942.8515625 l 1
 552.62890625 980.435546875 l 1
 589.87109375 988.165039062 l 1
 748.87109375 1021.16503906 l 1
 790.723632812 1029.8515625 l 1
 796.618164062 987.515625 l 1
 878.625976562 398.459960938 l 2
 891.51953125 303.903320312 937.997070312 260 1027 260 c 2
 1058 260 l 5
 1058 220 l 5
 1058 40 l 5
 1058 0 l 5
 1023 0 l 2
 847.834960938 0 730.51171875 74.701171875 679.263671875 209.793945312 c 1
 603.899414062 158.444335938 521.771484375 132 431 132 c 0
 236.787109375 132 58 229.26953125 58 452 c 0
599.208007812 688.077148438 m 1
 391.364257812 606.028320312 312 529.47265625 312 464 c 0
 312 408.32421875 339.182617188 380 425 380 c 0
 526.104492188 380 621 441.92578125 621 522 c 0
 621 539.515625 620.08203125 555.46875 617.466796875 572.901367188 c 2
 599.208007812 688.077148438 l 1
EndSplineSet
EndChar

StartChar: uniFEEB
Encoding: 65259 65259 246
GlifName: uniF_E_E_B_
Width: 1369
VWidth: 2950
GlyphClass: 2
Flags: HW
AnchorPoint: "Anchor-10" 609.134 1242.79 basechar 0
AnchorPoint: "Anchor-7" 510.852 -199.953 basechar 0
LayerCount: 2
Fore
SplineSet
502.587890625 323.307617188 m 1
 593.012695312 364.68359375 633.978515625 435.864257812 635.000976562 503.245117188 c 0
 634.657226562 592.294921875 588.27734375 632 504 632 c 0
 413.099609375 632 363 583.848632812 363 508 c 0
 363 436.821289062 407.2265625 364.615234375 502.587890625 323.307617188 c 1
602.510742188 1026.96386719 m 2
 1057.42773438 805.46484375 1311 610.807617188 1311 393 c 0
 1311 140.504882812 1128.13476562 10 879 10 c 0
 746.413085938 10 583.061523438 43.5615234375 485.651367188 74.6650390625 c 1
 370.185546875 33.6201171875 214.336914062 0 75 0 c 2
 -20 0 l 1
 -20 40 l 1
 -20 220 l 1
 -20 260 l 1
 63 260 l 2
 114.334960938 260 155.290039062 260.430664062 192.153320312 262.387695312 c 1
 138.442382812 330.006835938 113 410.001953125 113 506 c 0
 113 722.36328125 280.322265625 856.015625 470.688476562 866.352539062 c 1
 473.961914062 872.295898438 l 1
 549.961914062 1010.29589844 l 1
 568.311523438 1043.61523438 l 1
 602.510742188 1026.96386719 l 2
855.34765625 613.92578125 m 1
 862.440429688 584.671875 865 555.62890625 865 523 c 0
 865 421.262695312 832.127929688 331.24609375 774.5 258.137695312 c 1
 807.3828125 256.012695312 836.875976562 255 862 255 c 0
 1005.95703125 255 1056 298.401367188 1056 390 c 0
 1056 436.872070312 999.008789062 516.236328125 855.34765625 613.92578125 c 1
EndSplineSet
Position2: "Single Positioning lookup 2 subtable" dx=0 dy=0 dh=-178 dv=0
Position2: "Single Positioning lookup 1 subtable" dx=0 dy=0 dh=-173 dv=0
EndChar

StartChar: uniFEEC
Encoding: 65260 65260 247
GlifName: uniF_E_E_C_
Width: 1002
VWidth: 2950
GlyphClass: 2
Flags: HW
AnchorPoint: "Anchor-7" 597.16 -669.603 basechar 0
AnchorPoint: "Anchor-10" 551.648 1175.04 basechar 0
LayerCount: 2
Fore
SplineSet
850 527 m 0
 850 251.983398438 597.510742188 71.599609375 424.536132812 3.5830078125 c 1
 446.979492188 -82.806640625 487.306640625 -148.586914062 547.564453125 -202.540039062 c 1
 565.538085938 40.4482421875 770.466796875 260 988 260 c 2
 1022 260 l 5
 1022 220 l 5
 1022 40 l 5
 1022 0 l 5
 986 0 l 2
 844.016601562 0 773 -80.5546875 773 -290 c 0
 773 -317.038085938 773.9921875 -348.987304688 776.814453125 -378.147460938 c 2
 778.662109375 -397.2421875 l 1
 764.926757812 -410.63671875 l 1
 643.926757812 -528.63671875 l 1
 623.977539062 -548.091796875 l 1
 598.815429688 -536.120117188 l 2
 370.576171875 -427.53125 233.0625 -245.737304688 183.668945312 0 c 1
 -20 0 l 1
 -20 40 l 1
 -20 220 l 1
 -20 260 l 1
 166.219726562 260 l 1
 186.9296875 580.29296875 259.973632812 876 548 876 c 0
 739.436523438 876 850 721.883789062 850 527 c 0
409.719726562 264.79296875 m 1
 524.737304688 291.620117188 611 396.938476562 611 527 c 0
 611 605.374023438 580.022460938 622 546 622 c 0
 482.015625 622 428.5859375 535.7421875 409.719726562 264.79296875 c 1
EndSplineSet
EndChar

StartChar: uniFEFB
Encoding: 65275 65275 262
GlifName: uniF_E_F_B_
Width: 1212
VWidth: 2950
GlyphClass: 3
Flags: HW
AnchorPoint: "Anchor-9" 221.642 1446.64 baselig 1
AnchorPoint: "Anchor-6" 288.021 -204.333 baselig 1
AnchorPoint: "Anchor-6" 925.078 -200.55 baselig 0
AnchorPoint: "Anchor-9" 975.01 1497.81 baselig 0
LayerCount: 2
Fore
SplineSet
180.086914062 275.674804688 m 2
 256.63671875 265.861328125 327.83203125 261 399 261 c 0
 415.612304688 261 434.790039062 261.283203125 450.192382812 261.711914062 c 1
 380.015625 495.837890625 262.029296875 734.848632812 73.328125 1168.02539062 c 2
 58.6875 1201.63378906 l 1
 90.8955078125 1219.14257812 l 1
 239.895507812 1300.14257812 l 1
 278.938476562 1321.3671875 l 1
 295.952148438 1280.31445312 l 2
 486.26953125 821.090820312 607.068359375 566.283203125 688.732421875 311.759765625 c 1
 797.021484375 364.701171875 855 436 855 638 c 6
 855 1326 l 1
 855 1366 l 1
 895 1366 l 1
 1064 1366 l 1
 1104 1366 l 1
 1104 1326 l 1
 1104 637 l 6
 1104 194 858.171875 3 396 3 c 0
 303.236328125 3 228.110351562 9.0712890625 168.087890625 19.6015625 c 2
 135 25.40625 l 1
 135 59 l 1
 135 236 l 1
 135 281.456054688 l 1
 180.086914062 275.674804688 l 2
EndSplineSet
Position2: "Single Positioning lookup 2 subtable" dx=0 dy=0 dh=-143 dv=0
Position2: "Single Positioning lookup 1 subtable" dx=0 dy=0 dh=-104 dv=0
Position2: "Single Positioning lookup 0 subtable" dx=0 dy=0 dh=130 dv=0
PairPos2: "'kern' Horizontal Kerning lookup 4 subtable 0" uni0639 dx=-60 dy=0 dh=-60 dv=0 dx=0 dy=0 dh=0 dv=0
PairPos2: "'kern' Horizontal Kerning lookup 4 subtable 0" uni063A dx=-60 dy=0 dh=-60 dv=0 dx=0 dy=0 dh=0 dv=0
LCarets2: 1 0
Ligature2: "'rlig' Required Ligatures in Arabic lookup 5 subtable" uniFEDF uniFE8E
EndChar

StartChar: uniFEFC
Encoding: 65276 65276 263
GlifName: uniF_E_F_C_
Width: 1273
VWidth: 2950
GlyphClass: 3
Flags: HW
AnchorPoint: "Anchor-9" 974.01 1497.81 baselig 0
AnchorPoint: "Anchor-9" 221.642 1448.64 baselig 1
AnchorPoint: "Anchor-6" 925.078 -200.55 baselig 0
AnchorPoint: "Anchor-6" 288.021 -204.333 baselig 1
LayerCount: 2
Fore
SplineSet
295.952148438 1280.31445312 m 2
 486.26953125 821.090820312 607.068359375 566.283203125 688.732421875 311.759765625 c 1
 797.021484375 364.701171875 855 436 855 638 c 2
 855 1326 l 1
 855 1366 l 1
 895 1366 l 1
 1064 1366 l 1
 1104 1366 l 1
 1104 1326 l 1
 1104 587 l 2
 1104 342 1153.18066406 260 1257 260 c 2
 1293 260 l 1
 1293 220 l 1
 1293 40 l 1
 1293 0 l 1
 1255 0 l 2
 1100.98242188 0 994.393554688 68.03515625 941.661132812 190.311523438 c 1
 818.668945312 63.5068359375 637.950195312 3 396 3 c 0
 303.236328125 3 228.110351562 9.0712890625 168.087890625 19.6015625 c 2
 135 25.40625 l 1
 135 59 l 1
 135 236 l 1
 135 281.608398438 l 1
 180.217773438 275.658203125 l 2
 254.598632812 265.87109375 326.828125 261 398 261 c 0
 414.838867188 261 434.012695312 261.28515625 449.8828125 261.727539062 c 1
 378.774414062 494.577148438 260.916992188 733.413085938 73.275390625 1168.1484375 c 2
 58.7958984375 1201.69335938 l 1
 90.8955078125 1219.14257812 l 1
 239.895507812 1300.14257812 l 1
 278.938476562 1321.3671875 l 1
 295.952148438 1280.31445312 l 2
EndSplineSet
PairPos2: "'kern' Horizontal Kerning lookup 4 subtable 0" uni0639 dx=-60 dy=0 dh=-60 dv=0 dx=0 dy=0 dh=0 dv=0
PairPos2: "'kern' Horizontal Kerning lookup 4 subtable 0" uni063A dx=-60 dy=0 dh=-60 dv=0 dx=0 dy=0 dh=0 dv=0
LCarets2: 1 0
Ligature2: "'rlig' Required Ligatures in Arabic lookup 5 subtable" uniFEE0 uniFE8E
EndChar

StartChar: arabic_dot
Encoding: 65536 -1 264
GlifName: arabic_dot
Width: 189
VWidth: 2682
GlyphClass: 2
Flags: HW
LayerCount: 2
Fore
SplineSet
-66.8994903068 110.577536066 m 1
 78.4722732511 255.949299625 l 1
 91.2001953125 268.677221687 l 1
 103.928117374 255.949299625 l 1
 250.24910897 109.628308027 l 1
 262.976989096 96.9004279008 l 1
 250.249150906 84.1725058397 l 1
 104.878345332 -61.199257659 l 1
 92.1504649394 -73.9272219229 l 1
 79.4225009427 -61.1993412626 l 1
 -66.8994486385 85.1216502753 l 1
 -79.6274540363 97.8495723365 l 1
 -66.8994903068 110.577536066 l 1
EndSplineSet
EndChar

StartChar: arabic_2dots
Encoding: 65537 -1 265
GlifName: arabic_2dots
Width: 504
VWidth: 2682
GlyphClass: 2
Flags: HW
LayerCount: 2
Fore
SplineSet
258.272077939 110.727922061 m 1
 398.272077939 250.727922061 l 1
 410.9547855 263.410629622 l 1
 423.682546656 250.773136275 l 1
 564.682546656 110.773136275 l 1
 577.456004176 98.0902706535 l 1
 564.77281731 85.3171321078 l 1
 423.77281731 -56.6828678922 l 1
 410.954464827 -69.5921306758 l 1
 398.182131349 -56.6373352901 l 1
 258.182131349 85.3626647099 l 1
 245.634104729 98.0899488522 l 1
 258.272077939 110.727922061 l 1
-73.7279220614 110.727922061 m 1
 66.2720779386 250.727922061 l 1
 78.9547854997 263.410629622 l 1
 91.6825466564 250.773136275 l 1
 232.682546656 110.773136275 l 1
 245.456004176 98.0902706535 l 1
 232.77281731 85.3171321078 l 1
 91.7728173098 -56.6828678922 l 1
 78.9544648274 -69.5921306758 l 1
 66.1821313486 -56.6373352901 l 1
 -73.8178686514 85.3626647099 l 1
 -86.3658952706 98.0899488522 l 1
 -73.7279220614 110.727922061 l 1
EndSplineSet
EndChar

StartChar: arabic_3dots
Encoding: 65538 -1 266
GlifName: arabic_3dots
Width: 504
VWidth: 2675
GlyphClass: 2
Flags: HW
LayerCount: 2
Fore
SplineSet
98.2724609375 337.727539062 m 5
 230.272460938 469.727539062 l 5
 242.952148438 482.408203125 l 5
 255.6796875 469.775390625 l 5
 388.6796875 337.775390625 l 5
 401.50390625 325.047851562 l 5
 388.727539062 312.272460938 l 5
 255.727539062 179.272460938 l 5
 242.952148438 166.49609375 l 5
 230.224609375 179.3203125 l 5
 98.224609375 312.3203125 l 5
 85.591796875 325.047851562 l 5
 98.2724609375 337.727539062 l 5
270.272460938 75.7275390625 m 1
 402.272460938 207.727539062 l 1
 414.952148438 220.408203125 l 1
 427.6796875 207.775390625 l 1
 560.6796875 75.775390625 l 1
 573.50390625 63.0478515625 l 1
 560.727539062 50.2724609375 l 1
 427.727539062 -82.7275390625 l 1
 414.952148438 -95.50390625 l 1
 402.224609375 -82.6796875 l 1
 270.224609375 50.3203125 l 1
 257.591796875 63.0478515625 l 1
 270.272460938 75.7275390625 l 1
-69.7275390625 75.7275390625 m 1
 62.2724609375 207.727539062 l 1
 74.9521484375 220.408203125 l 1
 87.6796875 207.775390625 l 1
 220.6796875 75.775390625 l 1
 233.50390625 63.0478515625 l 1
 220.727539062 50.2724609375 l 1
 87.7275390625 -82.7275390625 l 1
 74.9521484375 -95.50390625 l 1
 62.224609375 -82.6796875 l 1
 -69.775390625 50.3203125 l 1
 -82.408203125 63.0478515625 l 1
 -69.7275390625 75.7275390625 l 1
EndSplineSet
EndChar

StartChar: arabic_3dots_a
Encoding: 65539 -1 267
GlifName: arabic_3dots_a
Width: 504
VWidth: 2689
GlyphClass: 2
Flags: HW
LayerCount: 2
Fore
SplineSet
99.224609375 -121.3203125 m 5
 231.224609375 11.6796875 l 5
 243.952148438 24.50390625 l 5
 256.727539062 11.7275390625 l 5
 389.727539062 -121.272460938 l 5
 402.50390625 -134.047851562 l 5
 389.6796875 -146.775390625 l 5
 256.6796875 -278.775390625 l 5
 243.952148438 -291.408203125 l 5
 231.272460938 -278.727539062 l 5
 99.2724609375 -146.727539062 l 5
 86.591796875 -134.047851562 l 5
 99.224609375 -121.3203125 l 5
271.224609375 140.6796875 m 1
 403.224609375 273.6796875 l 1
 415.952148438 286.50390625 l 1
 428.727539062 273.727539062 l 1
 561.727539062 140.727539062 l 1
 574.50390625 127.952148438 l 1
 561.6796875 115.224609375 l 1
 428.6796875 -16.775390625 l 1
 415.952148438 -29.408203125 l 1
 403.272460938 -16.7275390625 l 1
 271.272460938 115.272460938 l 1
 258.591796875 127.952148438 l 1
 271.224609375 140.6796875 l 1
-68.775390625 140.6796875 m 1
 63.224609375 273.6796875 l 1
 75.9521484375 286.50390625 l 1
 88.7275390625 273.727539062 l 1
 221.727539062 140.727539062 l 1
 234.50390625 127.952148438 l 1
 221.6796875 115.224609375 l 1
 88.6796875 -16.775390625 l 1
 75.9521484375 -29.408203125 l 1
 63.2724609375 -16.7275390625 l 1
 -68.7275390625 115.272460938 l 1
 -81.408203125 127.952148438 l 1
 -68.775390625 140.6796875 l 1
EndSplineSet
EndChar

StartChar: uni066E.fina
Encoding: 65540 -1 268
GlifName: uni066E_.fina
Width: 1878
VWidth: 2990
GlyphClass: 2
Flags: HW
AnchorPoint: "Anchor-10" 892.51 1465.59 basechar 0
AnchorPoint: "Anchor-7" 795.357 -219.261 basechar 0
LayerCount: 2
Fore
SplineSet
985 0 m 2
 840 0 l 2
 355.549804688 0 58 169.282226562 58 524 c 0
 58 619.020507812 79.3525390625 710.384765625 115.2578125 793.8125 c 2
 130.302734375 828.768554688 l 1
 165.96484375 815.483398438 l 1
 318.96484375 758.483398438 l 1
 356.528320312 744.489257812 l 1
 342.453125 706.955078125 l 2
 323.043945312 655.196289062 313 601.823242188 313 549.090820312 c 0
 313.841796875 363.971679688 464.77734375 260 830 260 c 2
 980 260 l 2
 1235.73730469 260 1391.12109375 304.508789062 1449.21386719 374.538085938 c 0
 1463.51855469 391.782226562 1475 420.678710938 1475 472 c 0
 1475 523.002929688 1471.09667969 575.18359375 1468.07226562 625.604492188 c 2
 1465.82421875 663.068359375 l 1
 1503.06933594 667.6953125 l 1
 1664.06933594 687.6953125 l 1
 1706.18457031 692.926757812 l 1
 1708.91699219 650.575195312 l 1
 1724.9140625 402.618164062 l 2
 1731.82910156 298.901367188 1769.05371094 260 1873 260 c 2
 1898 260 l 5
 1898 220 l 5
 1898 40 l 5
 1898 0 l 5
 1873 0 l 2
 1736.6953125 0 1633.91503906 53.384765625 1566.56640625 154.697265625 c 1
 1435.25585938 46.7548828125 1233.70898438 0 985 0 c 2
EndSplineSet
EndChar

StartChar: uni06A1.fina
Encoding: 65543 -1 269
GlifName: uni06A_1.fina
Width: 1962
VWidth: 2990
GlyphClass: 2
Flags: HW
AnchorPoint: "Anchor-10" 713.816 1611.03 basechar 0
AnchorPoint: "Anchor-7" 590.121 -271.592 basechar 0
LayerCount: 2
Fore
SplineSet
1501 681 m 0
 1468.88476562 681 1369 573.896484375 1369 530 c 0
 1369 487.455078125 1476.56640625 353.578125 1506.08789062 350.001953125 c 1
 1536.10546875 351.306640625 1645 488.119140625 1645 538 c 0
 1645 569.745117188 1556.63183594 681 1501 681 c 0
960 260 m 2
 1105.375 260 1188.34375 261.072265625 1236.29394531 263.661132812 c 1
 1163.06640625 348.100585938 1121 430.766601562 1121 536 c 0
 1121 694.01171875 1292.62988281 936 1503 936 c 0
 1720.05371094 936 1894 716.149414062 1894 551 c 0
 1894 434.575195312 1847.4140625 349.994140625 1772.76074219 262.090820312 c 1
 1801.79785156 260.512695312 1836.51757812 260 1888 260 c 2
 1982 260 l 5
 1982 220 l 5
 1982 40 l 5
 1982 0 l 5
 1890 0 l 2
 1722.00976562 0 1601.85839844 34.322265625 1501.79589844 101.010742188 c 1
 1377.94238281 28.7294921875 1200.48339844 0 965 0 c 2
 840 0 l 2
 355.576171875 0 58 168.853515625 58 524 c 0
 58 619.047851562 78.884765625 710.963867188 115.413085938 794.491210938 c 2
 130.615234375 829.25390625 l 1
 166.1328125 815.907226562 l 1
 319.478515625 758.28125 l 1
 356.9765625 744.189453125 l 1
 342.830078125 706.711914062 l 2
 323.098632812 654.439453125 313 601.44140625 313 549.08203125 c 0
 313.84765625 364.23046875 464.799804688 260 830 260 c 2
 960 260 l 2
EndSplineSet
EndChar

StartChar: uni06A1.init
Encoding: 65544 -1 270
GlifName: uni06A_1.init
Width: 918
VWidth: 2950
GlyphClass: 2
Flags: HW
AnchorPoint: "Anchor-10" 447.443 1644.02 basechar 0
AnchorPoint: "Anchor-7" 367.886 -207.023 basechar 0
LayerCount: 2
Fore
SplineSet
619.885742188 377.590820312 m 1
 569.677734375 367.060546875 519.868164062 362 466 362 c 0
 237.079101562 362 101.275390625 465.970703125 99 670.77734375 c 0
 99 904.724609375 229.463867188 1122 466 1122 c 0
 756.637695312 1122 860 799.30859375 860 502 c 0
 860 96.3671875 669.913085938 0 265 0 c 2
 -20 0 l 5
 -20 40 l 5
 -20 220 l 5
 -20 260 l 5
 276 260 l 2
 495.973632812 260 595.197265625 292.291015625 619.885742188 377.590820312 c 1
606.625976562 628.379882812 m 1
 585.78515625 761.793945312 537.40625 866 459 866 c 0
 404.682617188 866 340 801.431640625 340 698 c 0
 340 642.924804688 368.643554688 612 479 612 c 0
 520.580078125 612 564.529296875 618.104492188 606.625976562 628.379882812 c 1
EndSplineSet
EndChar

StartChar: uni06A1.medi
Encoding: 65545 -1 271
GlifName: uni06A_1.medi
Width: 972
VWidth: 2990
GlyphClass: 2
Flags: HW
AnchorPoint: "Anchor-10" 532.544 1426.06 basechar 0
AnchorPoint: "Anchor-7" 507.517 -207.023 basechar 0
LayerCount: 2
Fore
SplineSet
511 681 m 0
 478.884765625 681 379 573.896484375 379 530 c 0
 379 487.455078125 486.56640625 353.578125 516.087890625 350.001953125 c 1
 546.10546875 351.306640625 655 488.119140625 655 538 c 0
 655 569.5546875 565.6640625 681 511 681 c 0
784.703125 261.924804688 m 1
 815.259765625 260.359375 850.516601562 260 898 260 c 2
 992 260 l 5
 992 220 l 5
 992 40 l 5
 992 0 l 5
 900 0 l 2
 744.120117188 0 615.124023438 33.658203125 513.00390625 100.3359375 c 1
 408.23046875 31.994140625 275.025390625 0 114 0 c 2
 -20 0 l 1
 -20 40 l 1
 -20 220 l 1
 -20 260 l 1
 114 260 l 2
 171.397460938 260 217.030273438 260.737304688 247.310546875 262.362304688 c 1
 173.10546875 347.375976562 131 429.984375 131 536 c 0
 131 693.84765625 301.518554688 936 512 936 c 0
 728.943359375 936 904 716.309570312 904 551 c 0
 904 443.752929688 859.489257812 349.741210938 784.703125 261.924804688 c 1
EndSplineSet
EndChar

StartChar: uni066F.fina
Encoding: 65546 -1 272
GlifName: uni066F_.fina
Width: 1450
VWidth: 2950
GlyphClass: 2
Flags: HW
AnchorPoint: "Anchor-10" 758.297 1039.41 basechar 0
AnchorPoint: "Anchor-7" 713.744 -658.409 basechar 0
LayerCount: 2
Fore
SplineSet
380.416992188 447.858398438 m 2
 333.69921875 324.250976562 310 210.14453125 310 101 c 0
 310 -148.909179688 434.318359375 -267 728 -267 c 0
 1006.46484375 -267 1099.140625 -179.357421875 1128.62109375 1 c 1
 1023 1 l 2
 767.658203125 1 619 113.795898438 619 337 c 0
 619 577.634765625 766.220703125 801 993 801 c 0
 1221.19824219 801 1340.62695312 599.154296875 1376.37011719 260 c 1
 1470 260 l 1
 1470 220 l 1
 1470 40 l 1
 1470 0 l 1
 1373.17675781 0 l 1
 1323.97460938 -341.528320313 1130.99707031 -520 721 -520 c 0
 285.5625 -520 58 -309.021484375 58 96 c 0
 58 241.758789062 89.298828125 390.05859375 151.001953125 540.204101562 c 2
 166.1484375 577.059570312 l 1
 203.061523438 562.055664062 l 1
 358.061523438 499.055664062 l 1
 394.213867188 484.362304688 l 1
 380.416992188 447.858398438 l 2
1132.68359375 261 m 1
 1112.73632812 466.653320312 1054.74316406 536 979 536 c 0
 924.7890625 536 864 458.78515625 864 352 c 0
 864 295.26171875 895.537109375 261 1013 261 c 2
 1132.68359375 261 l 1
EndSplineSet
EndChar

StartChar: arabic_gaf_bar
Encoding: 65550 -1 273
GlifName: arabic_gaf_bar
Width: 751
VWidth: 2769
GlyphClass: 2
Flags: HW
LayerCount: 2
Fore
SplineSet
735 1841.37207031 m 1
 8 1570.91503906 l 1
 8 1686.62792969 l 5
 735 1957.08496094 l 5
 735 1841.37207031 l 1
EndSplineSet
EndChar

StartChar: guillemotleft
Encoding: 171 171 283
GlifName: guillemotleft
Width: 946
Flags: HW
LayerCount: 2
Fore
SplineSet
448 495 m 0
 448 598.520507812 499.07421875 782.991210938 694.275390625 999.766601562 c 2
 721.2265625 1029.69726562 l 1
 750.970703125 1002.5390625 l 1
 842.970703125 918.5390625 l 1
 870.255859375 893.626953125 l 1
 847.583007812 864.454101562 l 2
 701.7734375 676.845703125 685 557.88671875 685 496 c 0
 685 426.5390625 699.416015625 317.578125 847.668945312 125.434570312 c 2
 870.16015625 96.28515625 l 1
 842.970703125 71.4609375 l 1
 750.970703125 -12.5390625 l 1
 721.1484375 -39.7685546875 l 1
 694.205078125 -9.6884765625 l 2
 500.102539062 207.0078125 448 391.299804688 448 495 c 0
70 495 m 0
 70 598.520507812 121.07421875 782.991210938 316.275390625 999.766601562 c 2
 343.2265625 1029.69726562 l 1
 372.970703125 1002.5390625 l 1
 464.970703125 918.5390625 l 1
 492.255859375 893.626953125 l 1
 469.583007812 864.454101562 l 2
 323.7734375 676.845703125 307 557.88671875 307 496 c 0
 307 426.5390625 321.416015625 317.578125 469.668945312 125.434570312 c 2
 492.16015625 96.28515625 l 1
 464.970703125 71.4609375 l 1
 372.970703125 -12.5390625 l 1
 343.1484375 -39.7685546875 l 1
 316.205078125 -9.6884765625 l 2
 122.102539062 207.0078125 70 391.299804688 70 495 c 0
EndSplineSet
EndChar

StartChar: guillemotright
Encoding: 187 187 284
GlifName: guillemotright
Width: 946
Flags: HW
LayerCount: 2
Fore
SplineSet
498 495 m 0
 498 391.296875 445.897460938 207.008789062 251.794921875 -9.6884765625 c 2
 224.8515625 -39.7685546875 l 1
 195.029296875 -12.5390625 l 1
 103.029296875 71.4609375 l 1
 75.83984375 96.28515625 l 1
 98.3310546875 125.434570312 l 2
 246.583984375 317.578125 261 426.5390625 261 496 c 0
 261 557.88671875 244.2265625 676.844726562 98.4169921875 864.454101562 c 2
 75.744140625 893.626953125 l 1
 103.029296875 918.5390625 l 1
 195.029296875 1002.5390625 l 1
 224.7734375 1029.69726562 l 1
 251.724609375 999.766601562 l 2
 446.924804688 782.9921875 498 598.517578125 498 495 c 0
876 495 m 0
 876 391.296875 823.897460938 207.008789062 629.794921875 -9.6884765625 c 2
 602.8515625 -39.7685546875 l 1
 573.029296875 -12.5390625 l 1
 481.029296875 71.4609375 l 1
 453.83984375 96.28515625 l 1
 476.331054688 125.434570312 l 2
 624.583984375 317.578125 639 426.5390625 639 496 c 0
 639 557.88671875 622.2265625 676.844726562 476.416992188 864.454101562 c 2
 453.744140625 893.626953125 l 1
 481.029296875 918.5390625 l 1
 573.029296875 1002.5390625 l 1
 602.7734375 1029.69726562 l 1
 629.724609375 999.766601562 l 2
 824.924804688 782.9921875 876 598.517578125 876 495 c 0
EndSplineSet
EndChar

StartChar: NameMe.302
Encoding: 65562 -1 293
GlifName: N_ameM_e.302
Width: 525
VWidth: 2950
Flags: HW
LayerCount: 2
Fore
SplineSet
271.004882812 90.318359375 m 1
 210.841796875 19.3193359375 124.826171875 0 22 0 c 2
 -20 0 l 1
 -20 40 l 1
 -20 220 l 1
 -20 260 l 1
 24 260 l 2
 146.759765625 260 148 299 148 469 c 2
 148 1009 l 5
 148 1049 l 5
 188 1049 l 5
 357 1049 l 5
 397 1049 l 5
 397 1009 l 5
 397 469 l 2
 397 297 400.501953125 260 502 260 c 2
 545 260 l 1
 545 220 l 1
 545 40 l 1
 545 0 l 1
 505 0 l 2
 405.397460938 0 326.944335938 22.6572265625 271.004882812 90.318359375 c 1
EndSplineSet
EndChar

StartChar: NameMe.303
Encoding: 65563 -1 294
GlifName: N_ameM_e.303
Width: 487
VWidth: 2950
Flags: HW
LayerCount: 2
Fore
SplineSet
-20 40 m 1
 -20 220 l 1
 -20 260 l 1
 11 260 l 2
 111.811523438 260 130 304 130 443 c 2
 130 1162 l 5
 130 1202 l 5
 170 1202 l 5
 339 1202 l 5
 379 1202 l 5
 379 1162 l 5
 379 445 l 2
 379 178 285.923828125 0 10 0 c 2
 -20 0 l 1
 -20 40 l 1
EndSplineSet
EndChar

StartChar: NameMe.65564
Encoding: 65564 -1 297
GlifName: N_ameM_e.65564
Width: 527
VWidth: 2950
Flags: HW
AnchorPoint: "Anchor-10" 232.697 1336.11 basechar 0
AnchorPoint: "Anchor-7" 292.078 -201.903 basechar 0
LayerCount: 2
Fore
SplineSet
522 0 m 2
 258.825195312 0 108 138 108 444 c 2
 108 1127 l 5
 108 1167 l 5
 148 1167 l 5
 317 1167 l 5
 357 1167 l 5
 357 1127 l 5
 357 444 l 2
 357 293 407.83984375 260 522 260 c 2
 547 260 l 1
 547 220 l 1
 547 40 l 1
 547 0 l 1
 522 0 l 2
EndSplineSet
EndChar

StartChar: NameMe.65565
Encoding: 65565 -1 298
GlifName: N_ameM_e.65565
Width: 716
VWidth: 2957
Flags: HW
LayerCount: 2
Fore
SplineSet
117.144072948 -267.232556568 m 2
 157.387296457 -276.0664349 197.734373112 -280 233 -280 c 0
 338.106816845 -280 408.843645576 -261.718835065 445.73773843 -232.203560781 c 0
 475.420220457 -208.266075276 488 -184.949191825 488 -162 c 0
 488 -155.271584617 485.625039259 -148.912998373 462.700149874 -147.996002798 c 2
 362.773476662 -145.997469333 l 2
 279.034915008 -143.877505747 234 -97.6101601919 234 -13 c 0
 234 167.785665014 416.539386428 255.986028615 619.900994952 257.999509888 c 2
 630.72362802 258.106664671 l 1
 629.976121305 247.309345448 l 1
 620.976121305 117.309345448 l 1
 620.343785858 108.175611222 l 1
 611.1898392 108.001802108 l 2
 460.596880315 105.14244213 393.819080881 68.9715541312 379.644426418 0.579412773842 c 1
 477.294461897 -3.00407476667 l 2
 571.266004219 -5.09233126271 630 -55.5569570926 630 -151 c 0
 630 -208.250131528 603.464648173 -263.548218114 555.395229967 -316.731404214 c 0
 486.670752786 -391.703561139 376.421102224 -428 226 -428 c 0
 184.351577847 -428 139.869781171 -423.944452659 94.4629299372 -416.88116469 c 2
 84.6721824558 -415.358159526 l 1
 86.1051235462 -405.553825749 l 1
 105.105123546 -275.553825749 l 1
 106.657737442 -264.930678042 l 1
 117.144072948 -267.232556568 l 2
EndSplineSet
EndChar

StartChar: uni060D
Encoding: 1549 1549 299
Width: 828
VWidth: 4036
Flags: HW
LayerCount: 2
Fore
SplineSet
556.780273438 1458.1484375 m 5
 776.4453125 1392.09472656 l 1
 223.374023438 -220.399414062 l 5
 3.708984375 -154.345703125 l 5
 556.780273438 1458.1484375 l 5
EndSplineSet
EndChar

StartChar: NameMe.65541
Encoding: 65541 -1 300
Width: 592
VWidth: 2950
Flags: HW
AnchorPoint: "Anchor-10" 261.384 1390 basechar 0
AnchorPoint: "Anchor-7" 253.422 -186.625 basechar 0
LayerCount: 2
Fore
SplineSet
484 792 m 2
 516 684 534 562 534 460 c 0
 534 177 384 -1 99 -1 c 2
 -20 -1 l 5
 -20 39 l 5
 -20 219 l 5
 -20 259 l 5
 99 259 l 2
 232 259 283 305 283 457 c 0
 283 530 269 640 247 732 c 2
 238 770 l 1
 276 780 l 1
 436 820 l 1
 473 829 l 1
 484 792 l 2
EndSplineSet
EndChar

StartChar: NameMe.65542
Encoding: 65542 -1 301
Width: 687
VWidth: 2950
Flags: HW
AnchorPoint: "Anchor-10" 265.665 1335.09 basechar 0
AnchorPoint: "Anchor-7" 320.537 -139.742 basechar 0
LayerCount: 2
Fore
SplineSet
683 0 m 2
 561.235351562 0 468.8984375 39.0537109375 407.869140625 116.427734375 c 1
 329.684570312 37.8349609375 222.693359375 0 101 0 c 2
 -20 0 l 1
 -20 40 l 1
 -20 220 l 1
 -20 260 l 1
 101 260 l 2
 243.120117188 260 283 305.629882812 283 437 c 0
 283 496.9140625 278.081054688 564.373046875 275.047851562 626.03515625 c 2
 273.220703125 663.201171875 l 1
 310.158203125 667.706054688 l 1
 474.158203125 687.706054688 l 1
 516.168945312 692.829101562 l 1
 518.916015625 650.595703125 l 1
 534.9140625 404.6171875 l 2
 541.795898438 300.540039062 582.991210938 260 685 260 c 2
 707 260 l 5
 707 220 l 5
 707 40 l 5
 707 0 l 5
 683 0 l 2
EndSplineSet
EndChar

StartChar: uniFBFD.compact
Encoding: 65575 -1 321
Width: 1437
VWidth: 2703
Flags: HW
AnchorPoint: "Anchor-7" 718.902 -658.086 basechar 0
AnchorPoint: "Anchor-10" 681.6 693.22 basechar 0
LayerCount: 2
Fore
SplineSet
1395.89257812 0 m 1
 1404.81152344 -32.578125 1406 -54.828125 1406 -74 c 0
 1406 -342.643554688 1113.23144531 -519 720 -519 c 0
 287.291992188 -519 59 -306.821289062 59 101 c 0
 59 214.466796875 82.966796875 370.395507812 133.43359375 484.213867188 c 2
 149.182617188 519.733398438 l 1
 185.145507812 505.021484375 l 1
 339.145507812 442.021484375 l 1
 374.6171875 427.510742188 l 1
 361.635742188 391.451171875 l 2
 327.107421875 295.541015625 310 199.359375 310 100 c 0
 310 -148.127929688 435.879882812 -267 719 -267 c 0
 959.333984375 -267 1164 -155.583007812 1164 -67 c 0
 1164 -39.9384765625 1138 0 1040 0 c 2
 907 0 l 2
 844 0 827.0078125 32.3876953125 817 75 c 2
 786 207 l 2
 776.201171875 248.725585938 789 260 826 260 c 2
 1457 260 l 5
 1457 220 l 5
 1457 40 l 5
 1457 0 l 5
 1395.89257812 0 l 1
EndSplineSet
EndChar

StartChar: uniFECC.compact
Encoding: 65579 -1 324
Width: 1071
VWidth: 2990
Flags: HW
AnchorPoint: "Anchor-7" 574.511 -197.021 basechar 0
AnchorPoint: "Anchor-10" 598.107 1140.89 basechar 0
LayerCount: 2
Fore
SplineSet
830.291015625 278.356445312 m 1
 880.068359375 265.876953125 947.971679688 260 1045 260 c 2
 1091 260 l 5
 1091 220 l 5
 1091 40 l 5
 1091 0 l 5
 1045 0 l 2
 849.04296875 0 715.529296875 46.33203125 607.067382812 115.065429688 c 1
 497.409179688 46.0361328125 345.014648438 0 87 0 c 2
 -20 0 l 1
 -20 40 l 1
 -20 220 l 1
 -20 260 l 1
 90 260 l 2
 218.881835938 260 311.348632812 265.814453125 369.94140625 278.202148438 c 1
 225.197265625 372.891601562 127 471.16796875 127 599 c 0
 127 802.548828125 405.680664062 856 607 856 c 0
 794.860351562 856 1080 802.677734375 1080 599 c 0
 1080 489.112304688 978.44921875 378.991210938 830.291015625 278.356445312 c 1
603.194335938 415.346679688 m 1
 683.901367188 460.940429688 799.888671875 539.169921875 820.213867188 573.864257812 c 1
 800.916015625 586.831054688 726.182617188 602 604 602 c 0
 479.275390625 602 403.61328125 586.481445312 386.176757812 574.069335938 c 1
 402.522460938 541.240234375 514.359375 461.865234375 603.194335938 415.346679688 c 1
EndSplineSet
EndChar

StartChar: uniFEEE.compact
Encoding: 65581 -1 327
Width: 876
VWidth: 2142
Flags: HW
AnchorPoint: "Anchor-10" 430.256 1070.2 basechar 0
AnchorPoint: "Anchor-7" 415.969 -599.998 basechar 0
LayerCount: 2
Fore
SplineSet
432 800 m 0
 666.319335938 800 786.4375 599.709960938 816.060546875 260 c 1
 896 260 l 1
 896 219 l 1
 896 40 l 1
 896 0 l 1
 799.44140625 0 l 1
 735.158203125 -275.528320312 523.669921875 -460.640625 175.520507812 -527.287109375 c 2
 142.817382812 -533.546875 l 1
 130.728515625 -502.521484375 l 1
 70.728515625 -348.521484375 l 1
 53.216796875 -303.575195312 l 1
 100.62890625 -294.685546875 l 2
 350.346679688 -247.86328125 495.305664062 -140.916015625 554.938476562 0 c 1
 462 0 l 2
 206.658203125 0 58 112.795898438 58 336 c 0
 58 575.708984375 206.145507812 800 432 800 c 0
572.671875 260 m 1
 552.658203125 465.311523438 493.883789062 535 418 535 c 0
 363.7890625 535 303 457.78515625 303 351 c 0
 303 294.26171875 334.537109375 260 452 260 c 2
 572.671875 260 l 1
EndSplineSet
EndChar

StartChar: figuredash
Encoding: 8210 8210 329
Width: 1170
Flags: HW
LayerCount: 2
Fore
SplineSet
1003 611 m 1
 168 611 l 1
 128 611 l 1
 128 651 l 1
 128 782 l 1
 128 822 l 1
 168 822 l 1
 1003 822 l 1
 1043 822 l 1
 1043 782 l 1
 1043 651 l 1
 1043 611 l 1
 1003 611 l 1
EndSplineSet
EndChar

StartChar: NameMe.65583
Encoding: 65583 -1 340
Width: 465
VWidth: 2703
Flags: HW
LayerCount: 2
Fore
SplineSet
202.094794579 1340.5703125 m 2
 374.184656083 1340.5703125 421.240234375 1356.60990184 421.240234375 1422.11035156 c 0
 421.240234375 1469.3691123 387.610763787 1504.85058594 337.08984375 1504.85058594 c 0
 271.246331502 1504.85058594 225.497687199 1461.55018444 146.401293671 1340.19422695 c 1
 202.094794579 1340.5703125 l 2
-52.1024751407 1316.73790628 m 1
 -35.1825532657 1398.04845315 l 1
 -32.4960408202 1410.9587844 l 1
 -22.773196898 1402.05034413 l 1
 -22.773196898 1402.05034413 15.138111247 1368.25058389 42.0414854369 1355.68462102 c 1
 148.041055169 1532.88836203 224.792309895 1605.390625 333.330078125 1605.390625 c 0
 442.850167128 1605.390625 519.900342992 1529.24480905 519.900342992 1426.31409022 c 0
 519.407975237 1288.16509627 429.82714762 1240.5 204 1240.5 c 2
 180.030273438 1240.5 l 2
 61.9615948761 1240.5 -19.7903622151 1260.90281368 -51.1270306859 1311.24663713 c 2
 -52.7144645416 1313.79692386 l 1
 -52.1024751407 1316.73790628 l 1
EndSplineSet
EndChar

StartChar: uni06CD
Encoding: 1741 1741 352
Width: 1681
VWidth: 2950
Flags: HW
AnchorPoint: "Anchor-7" 920.902 -636.086 basechar 0
AnchorPoint: "Anchor-10" 848.6 976.22 basechar 0
LayerCount: 2
Fore
SplineSet
923 -499 m 4
 491.452148438 -499 262 -288.056640625 262 119 c 0
 262 198.43359375 271.046875 260.909179688 291.184570312 333.634765625 c 1
 72.9208984375 245.88671875 l 1
 3.228515625 217.869140625 l 1
 18.8779296875 291.333984375 l 1
 54.8779296875 460.333984375 l 1
 59.3310546875 481.239257812 l 1
 79.1845703125 489.155273438 l 1
 395.184570312 615.155273438 l 1
 410.143554688 621.120117188 l 1
 425.061523438 615.055664062 l 1
 580.061523438 552.055664062 l 1
 617.2109375 536.956054688 l 1
 602.017578125 499.844726562 l 2
 542.079101562 353.4375 513 235.950195312 513 122 c 0
 513 -127.860351562 639.658203125 -247.051757812 928.06640625 -248 c 4
 1161.73046875 -248 1381 -143.649414062 1381 -2 c 4
 1381 11.626953125 1370.22460938 16 1322 16 c 6
 1178 16 l 6
 997.969726562 16 892 120.90625 892 303 c 4
 892 598.701171875 1135.41699219 786.53515625 1395.55859375 786.53515625 c 4
 1434.984375 786.53515625 1511.41503906 785.244140625 1591.38476562 751.922851562 c 6
 1621.47460938 739.385742188 l 5
 1615.26855469 707.384765625 l 5
 1583.26855469 542.384765625 l 5
 1574.77050781 498.568359375 l 5
 1532.14355469 511.797851562 l 6
 1479.19726562 528.229492188 1432.76855469 531.233398438 1395.96875 531.233398438 c 4
 1238.125 531.233398438 1141 413.5703125 1141 316 c 4
 1141 275.744140625 1146.01269531 272 1188 272 c 6
 1368.08300781 272 l 6
 1527.91308594 271.333984375 1623 171.860351562 1623 38 c 4
 1623 -311.319335938 1324.96777344 -499 923 -499 c 4
EndSplineSet
Substitution2: "'fina' Terminal Forms in Arabic lookup 1 subtable" uni06CD.fina
EndChar

StartChar: uni06CD.compact
Encoding: 65585 -1 353
Width: 1677
VWidth: 2703
Flags: HW
AnchorPoint: "Anchor-7" 958.902 -658.086 basechar 0
AnchorPoint: "Anchor-10" 921.6 693.22 basechar 0
LayerCount: 2
Fore
SplineSet
18.8779296875 181.333984375 m 1
 54.8779296875 350.333984375 l 1
 59.3310546875 371.239257812 l 1
 79.1845703125 379.155273438 l 1
 395.184570312 505.155273438 l 1
 410.192382812 511.138671875 l 1
 425.145507812 505.021484375 l 1
 579.145507812 442.021484375 l 1
 614.6171875 427.510742188 l 1
 601.635742188 391.451171875 l 2
 567.107421875 295.541015625 550 199.359375 550 100 c 0
 550 -148.127929688 675.879882812 -267 959 -267 c 0
 1199.33398438 -267 1404 -155.583007812 1404 -67 c 0
 1404 -39.9384765625 1378.98730469 0 1280 0 c 2
 1157 0 l 2
 1092.85839844 0 1062.61230469 51.0556640625 1053.04980469 92.8916015625 c 2
 1031.02246094 185.009765625 l 2
 1027.81542969 199.438476562 1026.67480469 219.798828125 1040.82226562 237.758789062 c 0
 1056.46777344 257.620117188 1078.63574219 260 1093 260 c 2
 1697 260 l 1
 1737 260 l 1
 1737 220 l 1
 1737 40 l 1
 1737 0 l 1
 1697 0 l 1
 1636.6640625 0 l 1
 1645.81152344 -32.578125 1646 -54.828125 1646 -74 c 0
 1646 -342.643554688 1353.23144531 -519 960 -519 c 0
 527.291992188 -519 299 -306.821289062 299 101 c 0
 299 146.359375 303.435546875 188.290039062 311.06640625 231.263671875 c 1
 72.87109375 135.8671875 l 1
 3.2529296875 107.985351562 l 1
 18.8779296875 181.333984375 l 1
EndSplineSet
EndChar

StartChar: NameMe.65587
Encoding: 65587 -1 355
Width: 504
VWidth: 2682
Flags: HW
LayerCount: 2
Fore
SplineSet
231.7265625 109.63671875 m 5
 91.7265625 249.63671875 l 5
 79.0439453125 262.319335938 l 5
 91.681640625 275.046875 l 5
 231.681640625 416.046875 l 5
 244.364257812 428.8203125 l 5
 257.13671875 416.13671875 l 5
 399.13671875 275.13671875 l 5
 412.046875 262.318359375 l 5
 399.091796875 249.545898438 l 5
 257.091796875 109.545898438 l 5
 244.364257812 96.998046875 l 5
 231.7265625 109.63671875 l 5
231.7265625 -222.36328125 m 5
 91.7265625 -82.36328125 l 5
 79.0439453125 -69.6806640625 l 5
 91.681640625 -56.953125 l 5
 231.681640625 84.046875 l 5
 244.364257812 96.8203125 l 5
 257.13671875 84.13671875 l 5
 399.13671875 -56.86328125 l 5
 412.046875 -69.681640625 l 5
 399.091796875 -82.4541015625 l 5
 257.091796875 -222.454101562 l 5
 244.364257812 -235.001953125 l 5
 231.7265625 -222.36328125 l 5
EndSplineSet
EndChar

StartChar: uni06D2
Encoding: 1746 1746 385
Width: 1744
VWidth: 0
Flags: HW
AnchorPoint: "Anchor-7" 881.902 -140.086 basechar 0
AnchorPoint: "Anchor-10" 585.53 1140.1 basechar 0
LayerCount: 2
Fore
SplineSet
759.212890625 468.71875 m 2
 711.752929688 530.848632812 656.231445312 612.2890625 597.396484375 673.969726562 c 1
 554.53125 608.805664062 534.645507812 570.780273438 473.778320312 497.452148438 c 0
 386.995117188 392.90234375 332.67578125 353.578125 313.70703125 336.400390625 c 1
 351.083007812 296.411132812 568.188476562 250.009765625 807.669921875 250.009765625 c 0
 1230.390625 250.009765625 1633.49902344 316.467773438 1633.49902344 316.467773438 c 1
 1678.44238281 323.87109375 l 1
 1679.97753906 278.34765625 l 1
 1685.97753906 100.34765625 l 1
 1687.1875 64.44140625 l 1
 1651.61621094 59.396484375 l 2
 1649.62011719 59.11328125 1238.05859375 0.67578125 810.045898438 0.67578125 c 0
 510.203125 0.67578125 58 27.18359375 58 323 c 0
 58 488.80078125 201.51171875 531.4609375 308.37109375 669.487304688 c 0
 439.92578125 839.411132812 456.178710938 952 584 952 c 0
 740.534179688 952 907.322265625 680.936523438 943.135742188 615.118164062 c 2
 958.395507812 587.073242188 l 1
 934.430664062 565.9765625 l 1
 817.430664062 462.9765625 l 1
 785.244140625 434.641601562 l 1
 759.212890625 468.71875 l 2
EndSplineSet
Position2: "Single Positioning lookup 2 subtable" dx=0 dy=0 dh=-120 dv=0
Position2: "Single Positioning lookup 1 subtable" dx=0 dy=0 dh=-120 dv=0
Substitution2: "'fina' Terminal Forms in Arabic lookup 1 subtable" uniFBAF
EndChar

StartChar: uni06D4
Encoding: 1748 1748 387
Width: 632
VWidth: 2950
Flags: HW
LayerCount: 2
Fore
SplineSet
58 40 m 1
 58 220 l 1
 58 260 l 1
 98 260 l 1
 534 260 l 1
 574 260 l 1
 574 220 l 1
 574 40 l 1
 574 0 l 1
 534 0 l 1
 98 0 l 1
 58 0 l 1
 58 40 l 1
EndSplineSet
EndChar

StartChar: uniFBA7
Encoding: 64423 64423 388
Width: 919
VWidth: 2950
Flags: HW
AnchorPoint: "Anchor-10" 465.28 934.77 basechar 0
AnchorPoint: "Anchor-7" 442.251 -166.396 basechar 0
LayerCount: 2
Fore
SplineSet
234.423828125 -18.8369140625 m 1
 88.423828125 17.1630859375 l 1
 54.869140625 25.4375 l 1
 58.1845703125 59.837890625 l 2
 90.650390625 396.66796875 282.986328125 685 479 685 c 0
 784.364257812 685 732.567382812 260 906 260 c 2
 939 260 l 5
 939 220 l 5
 939 40 l 5
 939 0 l 5
 907 0 l 2
 579.6328125 0 509.619140625 383.975585938 481.193359375 401.984375 c 1
 440.08984375 400.19140625 317.166992188 269.0546875 283.657226562 14.7734375 c 2
 277.817382812 -29.537109375 l 1
 234.423828125 -18.8369140625 l 1
EndSplineSet
EndChar

StartChar: uniFBA9
Encoding: 64425 64425 390
Width: 1002
Flags: HW
AnchorPoint: "Anchor-7" 604.251 -667.396 basechar 0
AnchorPoint: "Anchor-10" 483.28 874.77 basechar 0
LayerCount: 2
Fore
SplineSet
184.870117188 29.3349609375 m 1
 138.528320312 9.9228515625 97.353515625 0 43 0 c 2
 -20 0 l 1
 -20 40 l 1
 -20 220 l 1
 -20 260 l 1
 45 260 l 2
 200.391601562 260 230.45703125 302.466796875 348.653320312 413.192382812 c 2
 378.407226562 441.064453125 l 1
 405.708007812 410.78515625 l 1
 515.708007812 288.78515625 l 1
 542.763671875 258.77734375 l 1
 512.485351562 232.024414062 l 1
 487.5859375 210.024414062 l 2
 481.272460938 204.446289062 475.479492188 198.770507812 470.16796875 193.013671875 c 0
 366.13671875 80.2568359375 432.071289062 -96.4921875 547.80859375 -203.197265625 c 1
 569.305664062 80.025390625 716.9140625 260 988 260 c 2
 1022 260 l 5
 1022 220 l 5
 1022 40 l 5
 1022 0 l 5
 986 0 l 2
 844.016601562 0 773 -80.5546875 773 -290 c 0
 773 -317.038085938 773.9921875 -348.987304688 776.814453125 -378.147460938 c 2
 778.662109375 -397.2421875 l 1
 764.926757812 -410.63671875 l 1
 643.926757812 -528.63671875 l 1
 623.977539062 -548.091796875 l 1
 598.815429688 -536.120117188 l 2
 376.934570312 -430.556640625 212.733398438 -240.704101562 184.870117188 29.3349609375 c 1
EndSplineSet
EndChar

StartChar: uniFBAA
Encoding: 64426 64426 391
Width: 1487
VWidth: 2703
Flags: HW
AnchorPoint: "Anchor-10" 727.134 1222.79 basechar 0
AnchorPoint: "Anchor-7" 628.852 -239.953 basechar 0
LayerCount: 2
Fore
SplineSet
47 260 m 5
 119 260 l 5
 119 0 l 1
 95 0 l 1
 47 260 l 5
EndSplineSet
Refer: 246 65259 N 1 0 0 1 118 0 2
EndChar

StartChar: uniFBAB
Encoding: 64427 64427 392
Width: 1120
VWidth: 2703
Flags: HW
AnchorPoint: "Anchor-10" 659.648 1135.04 basechar 0
AnchorPoint: "Anchor-7" 705.16 -709.603 basechar 0
LayerCount: 2
Fore
SplineSet
47 260 m 5
 119 260 l 5
 119 0 l 1
 95 0 l 1
 47 260 l 5
EndSplineSet
Refer: 247 65260 N 1 0 0 1 118 0 2
EndChar

StartChar: uni0658
Encoding: 1624 1624 397
Width: 0
VWidth: 2316
Flags: HW
AnchorPoint: "Anchor-7" 711.902 -612.086 basechar 0
AnchorPoint: "Anchor-10" 603.219 1239.43 mark 0
AnchorPoint: "Anchor-9" 603.219 1239.43 mark 0
AnchorPoint: "Anchor-1" 598.537 1560.66 basemark 0
AnchorPoint: "Anchor-1" 603.219 1239.43 mark 0
LayerCount: 2
Fore
SplineSet
844.949903641 1538.31239291 m 2
 831.091131769 1387.78597068 748.657347929 1264.6953125 591.306640625 1264.6953125 c 0
 433.348590729 1264.6953125 351.415598067 1388.95665742 337.664345686 1538.31237975 c 2
 336.910507596 1546.5 l 1
 345.132757726 1546.5 l 1
 445.584259067 1546.5 l 1
 452.135452355 1546.5 l 1
 453.016175136 1540.00827751 l 2
 465.98920802 1444.38530613 501.018675822 1381.5703125 591.306640625 1381.5703125 c 0
 682.21338447 1381.5703125 715.304651158 1445.76175477 727.843033035 1539.98926763 c 2
 728.709383491 1546.5 l 1
 735.277503396 1546.5 l 1
 837.48149039 1546.5 l 1
 845.703725975 1546.5 l 1
 844.949903641 1538.31239291 l 2
EndSplineSet
EndChar

StartChar: uniFBC0
Encoding: 64448 64448 398
Width: 0
VWidth: 2712
Flags: HW
AnchorPoint: "Anchor-10" 674.729 1661.91 mark 0
AnchorPoint: "Anchor-9" 674.729 1661.91 mark 0
AnchorPoint: "Anchor-1" 673.079 2352.57 basemark 0
AnchorPoint: "Anchor-1" 674.729 1661.91 mark 0
LayerCount: 2
Fore
SplineSet
640.502701723 1840.04980469 m 2
 807.046931532 1840.04980469 864.775390625 1876.36273401 864.775390625 1922.95019531 c 0
 864.775390625 1960.68903631 839.330603421 1987.84960938 798.525390625 1987.84960938 c 0
 748.449642675 1987.84960938 683.871792128 1938.92080434 614.419338854 1839.87360371 c 1
 640.502701723 1840.04980469 l 2
480.558115332 1839.15039062 m 1
 489.142065961 1852.90181013 497.441482333 1865.92537983 503.875 1876.07874261 c 1
 503.875 2297.34960938 l 1
 503.875 2306.34960938 l 1
 503.875 2311.34960938 l 1
 503.875 2318.84960938 l 1
 511.375 2318.84960938 l 1
 516.375 2318.84960938 l 1
 525.375 2318.84960938 l 1
 601.424804688 2318.84960938 l 1
 610.424804688 2318.84960938 l 1
 615.424804688 2318.84960938 l 1
 622.924804688 2318.84960938 l 1
 622.924804688 2311.34960938 l 1
 622.924804688 2306.34960938 l 1
 622.924804688 2297.34960938 l 1
 622.924804688 2033.42575074 l 1
 676.610981693 2085.41040817 731.690013204 2112.29980469 794.474609375 2112.29980469 c 0
 907.382061354 2112.29980469 987.875 2033.57471064 987.875 1926.47308289 c 0
 986.841021136 1781.23760228 859.432493127 1715.15039062 642.375 1715.15039062 c 2
 392.625 1715.15039062 l 1
 383.625 1715.15039062 l 1
 378.625 1715.15039062 l 1
 371.125 1715.15039062 l 1
 371.125 1722.65039062 l 1
 371.125 1727.65039062 l 1
 371.125 1736.65039062 l 1
 371.125 1817.65039062 l 1
 371.125 1826.65039062 l 1
 371.125 1831.65039062 l 1
 371.125 1839.15039062 l 1
 378.625 1839.15039062 l 1
 383.625 1839.15039062 l 1
 392.625 1839.15039062 l 1
 480.558115332 1839.15039062 l 1
EndSplineSet
EndChar

StartChar: uniFBBF
Encoding: 64447 64447 403
Width: 0
VWidth: 0
Flags: HW
LayerCount: 2
Fore
SplineSet
123.5 387 m 0
 123.5 339.212420299 162.028078836 301.5 210 301.5 c 0
 257.89553369 301.5 295.5 339.104511985 295.5 387 c 0
 295.5 434.971902387 257.787619576 473.5 210 473.5 c 0
 162.136212317 473.5 123.5 434.863808663 123.5 387 c 0
20.5 387 m 0
 20.5 491.156171874 105.843820003 576.5 210 576.5 c 0
 314.156171874 576.5 399.5 491.156179997 399.5 387 c 0
 399.5 282.843828126 314.156179997 197.5 210 197.5 c 0
 105.843828126 197.5 20.5 282.843820003 20.5 387 c 0
EndSplineSet
EndChar

StartChar: uniFBAF.compact
Encoding: 65613 -1 408
Width: 1207
VWidth: 2950
Flags: HW
AnchorPoint: "Anchor-7" 802.902 -592.086 basechar 0
AnchorPoint: "Anchor-10" 756.53 559.1 basechar 0
LayerCount: 2
Fore
SplineSet
656 0 m 2
 494.330078125 0 353.330078125 -94.4150390625 315.151367188 -135.073242188 c 1
 356.999023438 -175.669921875 572.596679688 -219.990234375 807.669921875 -219.990234375 c 0
 1164.04296875 -219.990234375 1345.69726562 -154.635742188 1346.34960938 -154.401367188 c 2
 1388.88378906 -138.919921875 l 1
 1398.99121094 -183.07421875 l 1
 1436.99121094 -349.07421875 l 1
 1445.39550781 -385.786132812 l 1
 1409.25390625 -396.383789062 l 2
 1406.01269531 -397.334960938 1159.94921875 -469.32421875 810.045898438 -469.32421875 c 0
 510.203125 -469.32421875 58 -442.81640625 58 -147 c 0
 58 46.77734375 368.383789062 260 660 260 c 2
 1227 260 l 5
 1227 220 l 5
 1227 40 l 5
 1227 0 l 5
 656 0 l 2
EndSplineSet
EndChar

StartChar: uni06F4.urdu
Encoding: 65615 -1 412
Width: 1246
VWidth: 2950
Flags: HW
LayerCount: 2
Fore
SplineSet
167 1071 m 4
 167 1213.99707031 256.06640625 1316.71191406 396.576171875 1316.71191406 c 4
 596.658203125 1316.71191406 753.37109375 1171.36816406 842.485351562 991.541992188 c 5
 871.036132812 1106.44335938 910.288085938 1213.32226562 955.958007812 1296.2890625 c 6
 975.12109375 1331.1015625 l 5
 1010.05859375 1312.16796875 l 5
 1165.05859375 1228.16796875 l 5
 1205.265625 1206.37792969 l 5
 1178.31835938 1169.4296875 l 6
 1085.70410156 1042.44433594 1027.85253906 894.861328125 988.4375 662.315429688 c 6
 982.791015625 629 l 5
 949 629 l 5
 866 629 l 5
 786 629 l 5
 758.098632812 629 l 5
 748.461914062 655.18359375 l 6
 647.577148438 929.28125 498.037109375 1061.33105469 437.58203125 1061.33105469 c 4
 428.546875 1061.33105469 422.618164062 1060.15136719 420.998046875 1059.6484375 c 4
 420.155273438 1057.05371094 418.9765625 1050.47265625 418.9765625 1039.87304688 c 4
 418.9765625 974.724609375 517 758.776367188 517 205 c 6
 517 40 l 1
 517 0 l 1
 477 0 l 1
 307 0 l 1
 267 0 l 1
 267 40 l 1
 267 208 l 6
 267 753.375976562 167 916.890625 167 1071 c 4
EndSplineSet
EndChar

StartChar: uni06F7.urdu
Encoding: 65616 -1 413
Width: 1056
VWidth: 2950
Flags: HW
LayerCount: 2
Fore
SplineSet
70 40 m 2
 70 410.584960938 432.615234375 938.896484375 762.88671875 1289.43066406 c 6
 790.262695312 1318.48632812 l 5
 819.373046875 1291.16796875 l 5
 949.373046875 1169.16796875 l 5
 980.486328125 1139.96777344 l 5
 949.340820312 1110.80273438 l 6
 635.295898438 816.725585938 404.986328125 474.485351562 349.296875 260 c 1
 956 260 l 1
 996 260 l 1
 996 220 l 1
 996 40 l 1
 996 0 l 1
 956 0 l 1
 110 0 l 1
 70 0 l 1
 70 40 l 2
EndSplineSet
EndChar

StartChar: uni06E9
Encoding: 1769 1769 418
Width: 1180
VWidth: 0
Flags: HW
LayerCount: 2
Fore
SplineSet
492.786585069 61.4027497894 m 1
 526.8203125 86.4273648858 l 1
 526.8203125 675.522304532 l 1
 388.347089766 813.995527266 l 1
 383.043788907 819.298828125 l 1
 388.347089766 824.602128984 l 1
 584.696699141 1020.95173836 l 1
 590 1026.25503922 l 1
 595.303300859 1020.95173836 l 1
 791.652910234 824.602128984 l 1
 796.956211093 819.298828125 l 1
 791.652910234 813.995527266 l 1
 653.1796875 675.522304532 l 1
 653.1796875 86.4273648858 l 1
 687.213414931 61.4027497894 l 1
 705.631212297 47.8603515625 l 1
 682.770507812 47.8603515625 l 1
 497.229492188 47.8603515625 l 1
 474.368787703 47.8603515625 l 1
 492.786585069 61.4027497894 l 1
517.394656537 819.298859244 m 1
 590 746.69351578 l 1
 662.605343463 819.298859244 l 1
 590 891.905054793 l 1
 517.394656537 819.298859244 l 1
234.551907144 819.298835199 m 1
 419.623613359 634.227128984 l 1
 421.8203125 632.030429843 l 1
 421.8203125 628.923828125 l 1
 421.8203125 143.345703125 l 1
 421.8203125 139.551181166 l 1
 418.763258653 137.3033336 l 1
 219.01953125 -9.56795945944 l 1
 219.01953125 -57.1396484375 l 1
 960.98046875 -57.1396484375 l 1
 960.98046875 -9.56795945944 l 1
 761.236741347 137.3033336 l 1
 758.1796875 139.551181166 l 1
 758.1796875 143.345703125 l 1
 758.1796875 628.923828125 l 1
 758.1796875 632.030429843 l 1
 760.376386641 634.227128984 l 1
 945.448092856 819.298835199 l 1
 590 1174.74787632 l 1
 234.551907144 819.298835199 l 1
105.505287487 824.60212358 m 1
 584.696693737 1303.79450639 l 1
 590 1309.09782347 l 1
 595.303306263 1303.79450639 l 1
 1074.49471251 824.60212358 l 1
 1079.79800256 819.298822721 l 1
 1074.49470711 813.995527266 l 1
 853.1796875 592.680507657 l 1
 853.1796875 187.614834459 l 1
 1052.9234149 40.7435414002 l 1
 1055.98046875 38.4956938344 l 1
 1055.98046875 34.701171875 l 1
 1055.98046875 -144.639648438 l 1
 1055.98046875 -152.139648438 l 1
 1048.48046875 -152.139648438 l 1
 131.51953125 -152.139648438 l 1
 124.01953125 -152.139648438 l 1
 124.01953125 -144.639648438 l 1
 124.01953125 34.701171875 l 1
 124.01953125 38.4956938344 l 1
 127.076585097 40.7435414002 l 1
 326.8203125 187.614834459 l 1
 326.8203125 592.680507657 l 1
 105.505292891 813.995527266 l 1
 100.201997436 819.298822721 l 1
 105.505287487 824.60212358 l 1
EndSplineSet
EndChar

StartChar: uni06DE
Encoding: 1758 1758 419
Width: 1990
VWidth: 0
Flags: HW
LayerCount: 2
Fore
SplineSet
448.099609375 223.838867188 m 5
 448.099609375 27.640625 l 5
 644.297851562 27.640625 l 5
 448.099609375 223.838867188 l 5
735.438476562 -63.5 m 5
 365 -63.5 l 5
 357.5 -63.5 l 5
 357.5 -56 l 5
 357.5 314.438476562 l 5
 95.5595703125 576.377929688 l 5
 90.2568359375 581.681640625 l 5
 95.5595703125 586.985351562 l 5
 357.5 848.924804688 l 5
 357.5 1213 l 5
 357.5 1220.5 l 5
 365 1220.5 l 5
 729.075195312 1220.5 l 5
 986.514648438 1477.94042969 l 5
 991.818359375 1483.24316406 l 5
 997.122070312 1477.94042969 l 5
 1254.56152344 1220.5 l 5
 1625 1220.5 l 5
 1632.5 1220.5 l 5
 1632.5 1213 l 5
 1632.5 842.561523438 l 5
 1894.44042969 580.622070312 l 5
 1899.74316406 575.318359375 l 5
 1894.44042969 570.014648438 l 5
 1632.5 308.075195312 l 5
 1632.5 -56 l 5
 1632.5 -63.5 l 5
 1625 -63.5 l 5
 1260.92480469 -63.5 l 5
 1003.48535156 -320.940429688 l 5
 998.181640625 -326.243164062 l 5
 992.877929688 -320.940429688 l 5
 735.438476562 -63.5 l 5
1352.06542969 27.640625 m 5
 1541.90039062 27.640625 l 5
 1541.90039062 217.475585938 l 5
 1352.06542969 27.640625 l 5
1541.90039062 933.161132812 m 5
 1541.90039062 1129.359375 l 5
 1345.70214844 1129.359375 l 5
 1541.90039062 933.161132812 l 5
448.099609375 939.524414062 m 5
 637.934570312 1129.359375 l 5
 448.099609375 1129.359375 l 5
 448.099609375 939.524414062 l 5
448.099609375 810.6328125 m 5
 448.099609375 351.966796875 l 5
 772.42578125 27.640625 l 5
 1223.17382812 27.640625 l 5
 1541.90039062 346.3671875 l 5
 1541.90039062 805.033203125 l 5
 1217.57421875 1129.359375 l 5
 766.826171875 1129.359375 l 5
 448.099609375 810.6328125 l 5
857.966796875 1220.5 m 5
 1126.43359375 1220.5 l 5
 992.200195312 1354.73339844 l 5
 857.966796875 1220.5 l 5
357.5 720.033203125 m 5
 218.766601562 581.299804688 l 5
 357.5 442.56640625 l 5
 357.5 720.033203125 l 5
1632.5 714.43359375 m 5
 1632.5 436.966796875 l 5
 1771.23339844 575.700195312 l 5
 1632.5 714.43359375 l 5
1132.03320312 -63.5 m 5
 863.56640625 -63.5 l 5
 997.799804688 -197.733398438 l 5
 1132.03320312 -63.5 l 5
908.5 575 m 4
 908.5 527.212890625 947.028320312 489.5 995 489.5 c 4
 1042.89550781 489.5 1080.5 527.104492188 1080.5 575 c 4
 1080.5 622.971679688 1042.78808594 661.5 995 661.5 c 4
 947.135742188 661.5 908.5 622.864257812 908.5 575 c 4
814.5 575 m 4
 814.5 674.158203125 895.841796875 755.5 995 755.5 c 4
 1094.15820312 755.5 1175.5 674.158203125 1175.5 575 c 4
 1175.5 475.841796875 1094.15820312 394.5 995 394.5 c 4
 895.841796875 394.5 814.5 475.841796875 814.5 575 c 4
EndSplineSet
EndChar

StartChar: uni06DD
Encoding: 1757 1757 420
Width: 2440
VWidth: 0
Flags: HW
LayerCount: 2
Fore
SplineSet
276.5 1362 m 0
 276.5 1470.15183256 364.848128334 1558.5 473 1558.5 c 0
 510.109010003 1558.5 544.732384659 1547.95224455 574.344432418 1530.19441225 c 1
 757.794014993 1660.10167787 979.48072592 1735.5 1220 1735.5 c 0
 1459.82922476 1735.5 1681.87608482 1659.76758508 1863.82638768 1531.48854054 c 1
 1892.96799027 1548.63801008 1926.90011137 1558.5 1963 1558.5 c 0
 2071.15183256 1558.5 2159.5 1470.15187167 2159.5 1362 c 0
 2159.5 1325.88499514 2149.56997565 1292.27021337 2132.6226227 1263.05082751 c 1
 2262.33827513 1079.58727782 2337.5 858.255363264 2337.5 618 c 0
 2337.5 377.829515346 2261.56978661 155.525627661 2132.94146758 -26.6002797787 c 1
 2149.83152635 -55.6102530827 2159.5 -89.2171421866 2159.5 -125 c 0
 2159.5 -233.151832559 2071.15187167 -321.5 1963 -321.5 c 0
 1927.18430937 -321.5 1892.11907122 -310.963337018 1864.60027978 -294.941467582 c 1
 1681.17889469 -424.484731196 1460.05901482 -499.5 1220 -499.5 c 0
 979.03231872 -499.5 755.911257499 -422.989968783 573.582496479 -293.653310853 c 1
 542.62531526 -312.023780194 509.753154456 -321.5 473 -321.5 c 0
 364.848167441 -321.5 276.5 -233.151871666 276.5 -125 c 0
 276.5 -87.8332882448 287.059014986 -53.2054028006 304.887404395 -23.5200546553 c 1
 176.742831622 159.18979715 102.5 379.293671786 102.5 618 c 0
 102.5 857.018867013 177.795651274 1078.51044343 305.21384702 1259.98482568 c 1
 286.331597076 1291.18456462 276.5 1324.65709509 276.5 1362 c 0
1857.09960938 -125 m 0
 1857.09960938 -183.248619804 1904.75144344 -230.900390625 1963 -230.900390625 c 0
 2021.2486198 -230.900390625 2068.90039062 -183.248556565 2068.90039062 -125 c 0
 2068.90039062 -66.7513801956 2021.24855656 -19.099609375 1963 -19.099609375 c 0
 1904.7513802 -19.099609375 1857.09960938 -66.7514434347 1857.09960938 -125 c 0
367.099609375 -125 m 0
 367.099609375 -183.248619804 414.751443435 -230.900390625 473 -230.900390625 c 0
 531.248619804 -230.900390625 578.900390625 -183.248556565 578.900390625 -125 c 0
 578.900390625 -66.7513801958 531.248556565 -19.099609375 473 -19.099609375 c 0
 414.751380196 -19.099609375 367.099609375 -66.7514434349 367.099609375 -125 c 0
1857.09960938 1362 m 0
 1857.09960938 1303.7513802 1904.75144344 1256.09960938 1963 1256.09960938 c 0
 2021.2486198 1256.09960938 2068.90039062 1303.75144344 2068.90039062 1362 c 0
 2068.90039062 1420.2486198 2021.24855656 1467.90039062 1963 1467.90039062 c 0
 1904.7513802 1467.90039062 1857.09960938 1420.24855656 1857.09960938 1362 c 0
367.099609375 1362 m 0
 367.099609375 1303.7513802 414.751443435 1256.09960938 473 1256.09960938 c 0
 531.248619804 1256.09960938 578.900390625 1303.75144344 578.900390625 1362 c 0
 578.900390625 1420.2486198 531.248556565 1467.90039062 473 1467.90039062 c 0
 414.751380196 1467.90039062 367.099609375 1420.24855656 367.099609375 1362 c 0
1767.03272783 1347.5 m 1
 668.967272165 1347.5 l 1
 661.262467662 1245.56294604 576.165095735 1165.5 473 1165.5 c 0
 448.018874284 1165.5 424.173271198 1170.32445849 402.202967267 1178.74718558 c 1
 292.106831471 1018.28338632 228.5 826.154055078 228.5 618 c 0
 228.5 410.090909856 292.805906457 217.018158768 401.661461584 58.0412656826 c 1
 425.576786486 67.2880440823 447.660321213 71.5 473 71.5 c 0
 575.420914674 71.5 659.041356075 -7.55101053009 668.631553772 -106.5 c 1
 1767.36844623 -106.5 l 1
 1777.08223522 -6.27582990801 1861.23459459 71.5 1963 71.5 c 0
 1989.40207509 71.5 2014.66249464 66.0776572401 2037.47171879 56.779859612 c 1
 2147.6620398 217.139267487 2211.5 409.644093683 2211.5 618 c 0
 2211.5 826.795695824 2146.58224925 1020.74664844 2036.9351836 1179.99958797 c 1
 2012.49111631 1170.12937084 1989.32363396 1165.5 1963 1165.5 c 0
 1859.16933831 1165.5 1774.63890566 1246.86780892 1767.03272783 1347.5 c 1
1752.50391061 1454.5 m 1
 1597.78714515 1553.08052592 1416.02822742 1609.5 1220 1609.5 c 0
 1023.90168583 1609.5 840.86624484 1552.22250952 687.496089387 1454.5 c 1
 1752.50391061 1454.5 l 1
679.738133878 -213.5 m 1
 836.635836543 -315.449964904 1020.65307137 -373.5 1220 -373.5 c 0
 1419.42302912 -373.5 1604.69817394 -314.583143274 1760.26186612 -213.5 c 1
 679.738133878 -213.5 l 1
EndSplineSet
EndChar

StartChar: uniFD3E
Encoding: 64830 64830 421
Width: 1273
Flags: HW
LayerCount: 2
Fore
SplineSet
614.5 603 m 0
 614.5 570.379640396 642.995723682 542.5 677 542.5 c 0
 711.788317655 542.5 739.5 569.952581632 739.5 607 c 0
 739.5 639.280576033 709.276155684 666.5 676 666.5 c 0
 639.58120313 666.5 614.5 636.368633731 614.5 603 c 0
637.301119332 203.718814862 m 0
 672.177809352 45.8559021428 747.479227633 -83.082202478 859.868652849 -182.843483879 c 1
 797.310644826 -58.3933496033 755.795542391 70.997984149 734.604218117 202.752739417 c 0
 731.201145556 222.03681726 737.39515509 238.001756808 750.696699141 251.303300859 c 2
 785.696699141 286.303300859 l 2
 795.863886623 296.470488341 809.773340389 303.5 826 303.5 c 2
 979.5 303.5 l 1
 979.5 908.5 l 1
 826 908.5 l 2
 809.773340389 908.5 795.863886623 915.529511659 785.696699141 925.696699141 c 2
 747.811933857 963.581464425 l 2
 733.991251995 976.250422799 729.262966299 994.432871749 732.608591336 1012.27620528 c 0
 757.610655059 1170.62260886 804.349089534 1316.05667893 871.214563312 1447.84888601 c 1
 746.991658648 1340.48606603 666.357377188 1192.01893041 629.359143899 1000.55307314 c 0
 627.015105492 988.83288111 621.066049201 979.459447484 613.303300859 971.696699141 c 2
 567.303300859 925.696699141 l 2
 557.319541795 915.712940077 544.309077296 908.5 528 908.5 c 2
 373.5 908.5 l 1
 373.5 755 l 2
 373.5 739.096183149 367.548561201 725.941959483 357.303300859 715.696699141 c 2
 247.606601718 606 l 1
 357.303300859 496.303300859 l 2
 367.548561201 486.058040517 373.5 472.903816851 373.5 457 c 2
 373.5 303.5 l 1
 528 303.5 l 2
 544.309077296 303.5 557.319541795 296.287059923 567.303300859 286.303300859 c 2
 622.303300859 231.303300859 l 2
 630.571380369 223.035221349 635.055541751 212.701125189 637.301119332 203.718814862 c 0
840.5 599 m 0
 840.5 511.54853351 763.00594981 438.5 676 438.5 c 0
 582.600081871 438.5 511.5 515.196382124 511.5 609 c 0
 511.5 696.45146649 588.99405019 769.5 676 769.5 c 0
 769.399918129 769.5 840.5 692.803617876 840.5 599 c 0
1098.05386589 1569.45848039 m 2
 975.389511562 1457.58858924 891.164167941 1274.36900904 847.052650272 1021.55395145 c 1
 848.106601718 1020.5 l 1
 1036 1020.5 l 2
 1071.9595904 1020.5 1091.5 997.425603167 1091.5 965 c 2
 1091.5 246.882841096 l 2
 1090.39066393 211.384086839 1070.64842928 191.5 1036 191.5 c 2
 850.486105632 191.5 l 1
 896.654781188 -49.7519972836 979.651636636 -213.605493037 1094.78513399 -309.224838293 c 0
 1101.22133418 -314.55768988 1106.1018938 -320.090352742 1109.33449786 -326.015719506 c 0
 1126.44135105 -357.372600027 1093.09063712 -384.132536749 1050.50340775 -406.631450381 c 2
 1047.80581111 -408.056595774 l 1
 1044.87939309 -407.193957626 l 2
 774.501429419 -327.492990724 603.6783301 -134.407768679 532.183667463 163.257180647 c 1
 504.823436214 191.5 l 1
 317 191.5 l 2
 291.336141273 191.5 261.5 213.194680572 261.5 247 c 2
 261.5 433.909717997 l 1
 129.696699141 566.696699141 l 2
 119.383529538 577.009868744 112.5 591.725753437 112.5 607 c 0
 112.5 621.215785252 118.645232309 634.251760738 129.677021049 645.283549478 c 2
 261.5 778.090282003 l 1
 261.5 965 l 2
 261.5 1000.07773837 293.537734493 1020.5 317 1020.5 c 2
 504.790745687 1020.5 l 1
 522.0714457 1038.60359049 l 1
 588.844353417 1371.59285206 764.871789891 1581.26086212 1044.56216156 1664.10055519 c 0
 1054.3986492 1667.63313658 1061.85645883 1667.95126077 1069.73258372 1665.87278538 c 0
 1100.58186871 1657.7317921 1111.65786413 1614.63578828 1100.23244611 1573.01462264 c 2
 1099.65779976 1570.92126808 l 1
 1098.05386589 1569.45848039 l 2
EndSplineSet
EndChar

StartChar: uniFD3F
Encoding: 64831 64831 422
Width: 1273
Flags: HW
LayerCount: 2
Fore
SplineSet
658.5 603 m 0
 658.5 636.368568325 633.41861144 666.5 597 666.5 c 0
 563.72422098 666.5 533.5 639.280584912 533.5 607 c 0
 533.5 569.952631449 561.211614087 542.5 596 542.5 c 0
 630.004135869 542.5 658.5 570.379611282 658.5 603 c 0
635.698880668 203.718814862 m 0
 637.989946296 212.883077374 642.397766192 223.00436791 650.696699141 231.303300859 c 2
 705.696699141 286.303300859 l 2
 715.680458205 296.287059923 728.690922704 303.5 745 303.5 c 2
 899.5 303.5 l 1
 899.5 457 l 2
 899.5 472.903816851 905.451438799 486.058040517 915.696699141 496.303300859 c 2
 1025.39339828 606 l 1
 915.696699141 715.696699141 l 2
 905.451438799 725.941959483 899.5 739.096183149 899.5 755 c 2
 899.5 908.5 l 1
 745 908.5 l 2
 728.690922704 908.5 715.680458205 915.712940077 705.696699141 925.696699141 c 2
 659.696699141 971.696699141 l 2
 651.933950799 979.459447484 645.984894508 988.83288111 643.640856101 1000.55307314 c 0
 606.603806145 1192.21980666 524.923855215 1341.42336089 401.785436688 1447.84888601 c 1
 469.472254844 1314.43780476 515.366421977 1170.76778763 540.391408664 1012.27620528 c 0
 543.736950742 994.4333142 539.009579505 976.251185007 525.188066143 963.581464425 c 2
 487.303300859 925.696699141 l 2
 477.136113377 915.529511659 463.226659611 908.5 447 908.5 c 2
 293.5 908.5 l 1
 293.5 303.5 l 1
 447 303.5 l 2
 463.226659611 303.5 477.136113377 296.470488341 487.303300859 286.303300859 c 2
 522.303300859 251.303300859 l 2
 535.605056073 238.001545645 541.798933656 222.03726613 538.395781883 202.752739417 c 0
 517.237152627 71.2012618711 474.840057004 -60.0829058179 413.131347151 -182.843483879 c 1
 526.61925 -82.1071504561 600.889496968 46.1605518017 635.698880668 203.718814862 c 0
432.5 599 m 0
 432.5 692.803619839 503.6001122 769.5 597 769.5 c 0
 684.007982336 769.5 761.5 696.451031883 761.5 609 c 0
 761.5 515.196380161 690.3998878 438.5 597 438.5 c 0
 509.992017664 438.5 432.5 511.548968117 432.5 599 c 0
172.767553891 1573.01462264 m 2
 166.577775249 1595.56310197 167.070993194 1617.25092046 173.049518727 1634.32993654 c 0
 181.546723779 1658.60413273 202.42125218 1673.4439013 228.437838442 1664.10055519 c 0
 509.672023327 1580.80361001 684.528000932 1369.73596123 750.9285543 1038.60359049 c 1
 768.209254313 1020.5 l 1
 956 1020.5 l 2
 979.46354155 1020.5 1011.5 1000.07857951 1011.5 965 c 2
 1011.5 778.090282003 l 1
 1143.30330086 645.303300859 l 2
 1154.37415735 634.232444372 1160.5 621.223688774 1160.5 607 c 0
 1160.5 591.733660987 1153.59707543 576.990546996 1143.32297895 566.716450522 c 2
 1011.5 433.909717997 l 1
 1011.5 247 l 2
 1011.5 213.195318058 981.66309102 191.5 956 191.5 c 2
 768.176563786 191.5 l 1
 740.816332537 163.257180647 l 1
 668.99309939 -135.775757852 498.15343609 -327.59472813 228.120606912 -407.193957626 c 2
 225.19418889 -408.056595774 l 1
 222.496592252 -406.631450381 l 2
 199.744174614 -394.611305214 181.636541232 -382.534861731 170.516900751 -369.29338917 c 0
 154.471400423 -350.186112036 155.413710417 -328.117230772 178.208242477 -309.230332779 c 0
 293.328133967 -213.622287304 376.681760097 -47.9934184158 422.513894368 191.5 c 1
 237 191.5 l 2
 202.351275971 191.5 182.60930994 211.384923001 181.5 246.882841096 c 2
 181.5 965 l 2
 181.5 997.425801416 201.040697254 1020.5 237 1020.5 c 2
 424.893398282 1020.5 l 1
 425.947349728 1021.55395145 l 1
 381.525501906 1276.14759521 297.648349551 1457.55405991 174.946134114 1569.45848039 c 2
 173.342200239 1570.92126808 l 1
 172.767553891 1573.01462264 l 2
EndSplineSet
EndChar

StartChar: uni0610
Encoding: 1552 1552 423
Width: 0
VWidth: 2712
Flags: HW
AnchorPoint: "Anchor-10" 493.924 1223.86 mark 0
AnchorPoint: "Anchor-9" 493.924 1223.86 mark 0
AnchorPoint: "Anchor-1" 534.091 1760.26 basemark 0
AnchorPoint: "Anchor-1" 493.924 1223.86 mark 0
LayerCount: 2
Fore
SplineSet
457.954160598 1374.90527344 m 2
 642.040254127 1374.90527344 726.209960938 1413.9982461 726.209960938 1484.56542969 c 0
 726.209960938 1535.63858101 689.814200575 1574.02539062 635.234375 1574.02539062 c 0
 564.27223662 1574.02539062 483.953784364 1506.27556243 397.120451078 1374.49433153 c 1
 457.954160598 1374.90527344 l 2
130.225136976 1196.14394098 m 2
 149.403465172 1229.44963431 159.41917392 1272.83196935 159.599609375 1326.5 c 0
 159.599609375 1387.33953545 144.284189883 1448.31622678 114.887125366 1509.6020244 c 2
 111.241144523 1517.20301612 l 1
 119.214825557 1519.93955812 l 1
 204.55955212 1549.22959719 l 1
 211.787391469 1551.7101687 l 1
 214.132302823 1544.43718531 l 1
 243.921602243 1452.04251418 l 2
 256.847382577 1412.340309 271.705467689 1394.06326865 285.55571047 1389.93934887 c 1
 399.598857843 1582.35529488 512.934213606 1680.93554688 632.205078125 1680.93554688 c 0
 746.656967706 1680.93554688 831.099561906 1597.38634885 831.099561906 1489.08366758 c 0
 830.571501798 1340.66405 702.90303212 1268.5 460 1268.5 c 2
 434.244140625 1268.5 l 2
 355.298319354 1268.5 297.178190559 1277.34482939 257.642888398 1293.39163128 c 1
 255.430482073 1234.05099181 242.113048714 1183.95585416 218.798657595 1142.70979322 c 2
 214.986211109 1135.96510067 l 1
 208.368870518 1139.99454596 l 1
 132.823948643 1185.99552253 l 1
 126.573144798 1189.80177547 l 1
 130.225136976 1196.14394098 l 2
EndSplineSet
EndChar

StartChar: uni0611
Encoding: 1553 1553 424
Width: 0
VWidth: 2712
Flags: HW
AnchorPoint: "Anchor-10" 496.924 1247.86 mark 0
AnchorPoint: "Anchor-9" 496.924 1247.86 mark 0
AnchorPoint: "Anchor-1" 534.091 1790.26 basemark 0
AnchorPoint: "Anchor-1" 496.924 1247.86 mark 0
LayerCount: 2
Fore
SplineSet
261.130230272 1267.68554688 m 1
 258.127640583 1219.28593682 242.285225186 1174.44143351 218.922681033 1133.11018385 c 2
 215.110234547 1126.3654913 l 1
 208.492893956 1130.39493659 l 1
 132.94797208 1176.39591315 l 1
 126.697168234 1180.20216609 l 1
 130.349160413 1186.5443316 l 2
 149.527488609 1219.85002493 159.543197357 1263.23235998 159.723632812 1316.90039062 c 0
 159.723632812 1377.60991796 144.084789278 1439.09664324 115.237279568 1499.53098688 c 2
 111.36516797 1507.60340675 l 1
 119.338848996 1510.33994875 l 1
 204.683575558 1539.62998781 l 1
 211.911414906 1542.11055932 l 1
 214.25632626 1534.83757593 l 1
 244.052221648 1442.42254633 l 2
 258.074788351 1398.93031289 274.127128724 1381.58303708 289.88263694 1379.44657861 c 2
 368.797900717 1379.66407926 l 1
 342.066351916 1415.17917541 319.403320312 1455.09419608 319.403320312 1515.58007812 c 0
 319.403320312 1643.10949484 408.186463039 1751.07714844 550.048828125 1751.07714844 c 0
 627.758433813 1751.07714844 690.355528612 1725.46659711 740.259280791 1675.00829183 c 2
 743.874636699 1671.35276044 l 1
 741.768778028 1666.66244411 l 1
 706.194559278 1587.42904567 l 1
 702.210442163 1578.55534022 l 1
 694.641644779 1584.6650983 l 2
 650.751483684 1620.09454008 609.240447536 1637.46737148 567.252116312 1637.97949219 c 0
 484.527990374 1637.97949219 426.033203125 1582.06249154 426.033203125 1512.34570312 c 0
 426.033203125 1493.68639951 435.241538967 1434.66256126 504.211043145 1403.77973334 c 0
 508.178464427 1401.7960227 515.462689483 1399.65931322 519.182809699 1400.51740367 c 2
 749.800714541 1458.71150053 l 1
 759.135742188 1461.06710038 l 1
 759.135742188 1451.43945312 l 1
 759.135742188 1354.41894531 l 1
 759.135742188 1348.89880943 l 1
 753.865118487 1347.25794808 l 2
 581.970623721 1293.7434025 434.470723813 1267.68554688 290.548828125 1267.68554688 c 2
 261.130230272 1267.68554688 l 1
EndSplineSet
EndChar

StartChar: uni0612
Encoding: 1554 1554 425
Width: 0
VWidth: 2712
Flags: HW
AnchorPoint: "Anchor-10" 517.924 962.86 mark 0
AnchorPoint: "Anchor-9" 517.924 962.86 mark 0
AnchorPoint: "Anchor-1" 522.091 1913.26 basemark 0
AnchorPoint: "Anchor-1" 517.924 962.86 mark 0
LayerCount: 2
Fore
SplineSet
461.255859375 990.358398438 m 2
 238.129266778 990.358398438 79.2412109375 1082.44524001 79.2412109375 1285.44238281 c 0
 79.2412109375 1461.25021847 215.462519344 1607.92328719 465.011934775 1670.56004835 c 1
 457.6761289 1673.54752841 450.012886665 1676.68663913 437.116088837 1681.98382472 c 0
 363.334221421 1711.49579074 316.063143382 1730.09375 293.407226562 1730.09375 c 0
 255.106690068 1730.09375 215.298213963 1704.44304803 189.451083167 1670.68462623 c 2
 174.689364417 1651.54888404 l 1
 170.928768781 1646.67399178 l 1
 165.414652542 1649.41281931 l 1
 82.8570353552 1690.41867869 l 1
 75.7079358046 1693.96959236 l 1
 79.697026921 1700.88376362 l 1
 87.9482881361 1715.18542571 l 2
 134.978652738 1791.89028229 208.224851852 1842.41308594 293.954101562 1842.41308594 c 0
 342.141375546 1842.41308594 398.107348088 1820.46752373 462.904013207 1789.1662511 c 0
 575.851912963 1734.05723494 643.21283694 1711.0979218 704.398560125 1707.90582979 c 2
 712.07182809 1707.50551128 l 1
 711.485980585 1699.84417466 l 1
 704.37855871 1606.8978856 l 1
 703.890030726 1600.50923103 l 1
 697.503473179 1599.99401312 l 2
 406.146840968 1576.48962075 184.999023438 1451.28714206 184.999023438 1294.18945312 c 0
 184.999023438 1164.21572267 276.241587957 1098.85058594 468.909179688 1098.85058594 c 2
 477.048221029 1098.85058594 l 1
 476.384175982 1090.73867876 l 1
 468.730855669 997.246491256 l 1
 468.166992719 990.358398438 l 1
 461.255859375 990.358398438 l 2
884.597027743 1609.18024777 m 2
 914.476899157 1535.03305826 929.97265625 1455.56469908 929.97265625 1392.05566406 c 0
 929.97265625 1190.19007626 810.824525507 1066.37899709 578.33467028 1022.20118013 c 2
 572.209582916 1021.03728853 l 1
 569.946228122 1026.84663995 l 1
 537.142517185 1111.04390557 l 1
 533.86607488 1119.45354812 l 1
 542.733375874 1121.13525407 l 2
 731.144444748 1156.86788763 822.607151318 1246.17568873 823.66796875 1389.35005 c 0
 823.66796875 1437.70765528 809.655965042 1507.05041158 782.165885808 1571.73244124 c 2
 779.056817328 1579.04783884 l 1
 786.540323356 1581.72710859 l 1
 875.112588981 1613.43804609 l 1
 881.901708231 1615.86870917 l 1
 884.597027743 1609.18024777 l 2
EndSplineSet
EndChar

StartChar: uni06DC
Encoding: 1756 1756 426
Width: 0
VWidth: 2712
Flags: HW
AnchorPoint: "Anchor-10" 556.924 1187.86 mark 0
AnchorPoint: "Anchor-9" 556.924 1187.86 mark 0
AnchorPoint: "Anchor-1" 558.091 1694.26 basemark 0
AnchorPoint: "Anchor-1" 556.924 1187.86 mark 0
LayerCount: 2
Fore
SplineSet
498.709960938 1268.10546875 m 0
 463.667540149 1268.10546875 434.141053383 1276.25759962 411.723429356 1290.32855813 c 1
 403.49307106 1106.75840751 284.472536354 1009.27539062 95.5322265625 1009.27539062 c 0
 -114.271853647 1009.27539062 -222.066406248 1108.35833889 -222.06640625 1303.47851562 c 0
 -222.06640625 1374.03024712 -206.552997812 1446.92264016 -176.91047221 1519.36601747 c 2
 -173.865741089 1526.77474372 l 1
 -167.763688761 1524.29462398 l 1
 -89.7932250055 1492.60428827 l 1
 -83.0130065139 1489.84853449 l 1
 -85.6021932825 1483.00297728 l 2
 -109.573465809 1419.62527138 -121.453125 1360.62381771 -121.453125 1305.96777344 c 0
 -121.453125 1174.78110764 -50.1083930035 1110.38574219 99.0166015625 1110.38574219 c 0
 244.166372978 1110.38574219 314.681817144 1180.61973445 315.005859375 1325.37988281 c 0
 315.005859375 1384.18452172 300.406414836 1444.26842614 270.944203973 1505.81132571 c 2
 267.306898226 1513.4092057 l 1
 275.274368698 1516.14365037 l 1
 359.394485885 1545.01376756 l 1
 366.622495198 1547.49442834 l 1
 368.967312077 1540.22121514 l 1
 398.33346447 1449.13252953 l 2
 415.001732976 1397.43496957 445.05170728 1373.17098548 499.737361371 1372.70019531 c 0
 560.979423014 1372.70019531 584.2890625 1404.26517397 584.2890625 1469.22949219 c 0
 584.2890625 1484.69483528 582.644620313 1514.21178265 579.333614795 1557.25485438 c 2
 578.783078694 1564.41182368 l 1
 585.909032893 1565.27558084 l 1
 668.037939143 1575.23065897 l 1
 675.864932294 1576.17939106 l 1
 676.421705378 1568.31479202 l 1
 684.386696287 1455.80648509 l 2
 687.753155028 1406.75412425 709.091632449 1372.70019531 755.548828125 1372.70019531 c 0
 794.626919254 1372.70019531 817.236328125 1403.26684243 817.236328125 1475.70117188 c 0
 817.236328125 1510.18983077 810.095349296 1553.40749399 795.6132076 1605.08251875 c 2
 793.565800209 1612.38805614 l 1
 800.894467082 1614.35106287 l 1
 884.516537394 1636.74950037 l 1
 891.461067775 1638.60961492 l 1
 893.613128365 1631.74993828 l 2
 909.7372494 1580.35442606 917.848632813 1530.80925101 917.848632812 1483.16699219 c 0
 917.848632812 1368.01981288 875.598133204 1268.62929293 756.063308129 1268.10546875 c 0
 700.615917956 1268.10546875 659.597294501 1290.63879581 634.525049158 1333.00351927 c 1
 598.916539812 1289.13156605 554.043080531 1268.10546875 498.709960938 1268.10546875 c 0
EndSplineSet
EndChar

StartChar: uni220E
Encoding: 8718 8718 429
Width: 970
Flags: HW
LayerCount: 2
Fore
SplineSet
160 40 m 1
 160 884 l 1
 160 924 l 1
 200 924 l 1
 770 924 l 1
 810 924 l 1
 810 884 l 1
 810 40 l 1
 810 0 l 1
 770 0 l 1
 200 0 l 1
 160 0 l 1
 160 40 l 1
EndSplineSet
EndChar
